<svg width="48" height="48" viewBox="0 0 48 48" fill="none" xmlns="http://www.w3.org/2000/svg" xmlns:xlink="http://www.w3.org/1999/xlink">
<path d="M24.2486 9.00889C24.4527 8.9922 24.6601 8.99642 24.8638 9.04404C24.884 9.04905 24.8545 9.08849 24.8745 9.0958C24.998 9.13866 25.1723 9.24759 25.2837 9.08896C25.3679 9.11354 25.4711 9.14846 25.5357 9.20811C25.5761 9.24648 25.5159 9.27325 25.5796 9.27549C25.594 9.27612 25.591 9.23336 25.6118 9.2374C25.6193 9.23888 25.6269 9.24036 25.6343 9.24229C25.709 9.26117 25.7809 9.29891 25.857 9.30869C25.8737 9.31064 25.8825 9.27623 25.8892 9.27158C25.9441 9.23763 25.9751 9.34171 25.9859 9.35264C26.0695 9.43523 26.15 9.44823 26.2437 9.4874C26.2652 9.49629 26.2584 9.44216 26.2798 9.44932C26.3917 9.48752 26.5026 9.5376 26.6011 9.60264C26.6223 9.61721 26.5848 9.64559 26.5943 9.65439C26.6357 9.69227 26.6784 9.62739 26.7193 9.66318C26.7276 9.67079 26.7084 9.69968 26.7085 9.7042C26.7128 9.77101 26.7725 9.70451 26.7808 9.70615C26.8844 9.72469 26.9067 9.83236 27.0015 9.86338C27.0125 9.8662 27.0081 9.81564 27.0386 9.82822C27.2439 9.91307 27.4519 10.0344 27.6226 10.1896C27.6479 10.2133 27.6093 10.2269 27.6089 10.2315C27.6024 10.3029 27.6694 10.2475 27.6812 10.2511C27.771 10.287 27.7891 10.395 27.9068 10.3683C28.0129 10.492 28.1688 10.6804 28.1089 10.9308C28.0375 11.182 27.9149 11.3699 27.7446 11.5245C27.7408 11.5274 27.7121 11.4975 27.7046 11.503C27.6201 11.5807 27.6846 11.6015 27.7007 11.711C27.7035 11.7388 27.5958 11.725 27.5845 11.7237C27.5526 11.7216 27.5161 11.6675 27.5083 11.669C27.4467 11.6827 27.6086 11.8081 27.562 11.8624C27.56 11.8633 27.5375 11.8321 27.5308 11.8341C27.5102 11.8403 27.5091 11.8638 27.4878 11.8683C27.4376 11.8782 27.3556 11.8196 27.355 11.9034C27.3558 11.9149 27.447 11.9884 27.398 12.0294C27.3787 12.0459 27.2971 12.124 27.2681 12.1388C27.2397 12.1535 27.2309 12.1114 27.228 12.1114C27.1431 12.1263 27.141 12.1004 27.0864 12.0724C27.0765 12.0806 27.0663 12.0886 27.0562 12.0968C27.0759 12.1286 27.1059 12.1699 27.106 12.1837C27.1045 12.2096 27.0306 12.215 27.0103 12.212C26.9901 12.2091 26.9903 12.1786 26.9751 12.1798C26.8757 12.187 26.9953 12.2729 26.9878 12.3126C26.967 12.4067 26.8492 12.3283 26.7905 12.3478C26.7746 12.3532 26.8002 12.3719 26.7896 12.3819C26.7424 12.4211 26.6916 12.4026 26.647 12.4659C26.6402 12.4768 26.6212 12.5708 26.565 12.5333C26.557 12.5277 26.5571 12.493 26.5308 12.4962C26.4914 12.5011 26.4256 12.5182 26.3902 12.5411C26.3827 12.546 26.3814 12.5527 26.3823 12.5597C26.8164 12.5504 27.2998 12.5638 27.8247 12.6134C28.9655 12.7212 30.8758 13.0156 32.9302 13.5509C34.8519 14.0516 36.9313 14.771 38.6304 15.7628L38.9644 15.9649L38.9732 15.9698L38.982 15.9757C39.2033 16.1271 39.5484 16.3735 39.8667 16.6222C40.0255 16.7462 40.1832 16.8751 40.3169 16.9952C40.37 17.043 40.424 17.0959 40.4761 17.1485C41.2226 17.1433 42.2795 17.2023 43.2915 17.3966C43.8533 17.5045 44.417 17.6568 44.9116 17.8712C45.4011 18.0835 45.8622 18.374 46.1743 18.7765C47.2628 20.1815 47.0195 21.8199 46.7456 22.5187C46.5585 23.263 45.5954 24.1057 43.5845 24.0763C41.9762 24.0528 40.8535 24.5259 40.3804 24.8165C40.2574 26.5108 40.0237 29.6411 39.9527 30.1212C39.8423 30.8632 38.9817 33.7746 34.8198 35.9161C32.7298 36.9914 29.0391 37.8732 24.979 38.0538C20.9128 38.2347 16.3975 37.7161 12.6695 35.922L12.6538 35.9142L12.6382 35.9054C11.9528 35.5142 10.8884 34.7724 9.88234 33.7989C8.8804 32.8292 7.89712 31.592 7.43117 30.2071L7.4175 30.1661L7.41066 30.1222C7.28786 29.3033 7.05412 26.9601 7.04055 23.8565C6.86778 23.7529 6.65459 23.6316 6.43508 23.5245C6.08696 23.3548 5.79521 23.252 5.63234 23.2403C5.28488 23.2156 4.25455 23.1184 3.28664 22.9122C2.80609 22.8098 2.31271 22.6745 1.9214 22.4962C1.72643 22.4073 1.53203 22.2968 1.37551 22.1573C1.21937 22.018 1.06532 21.8162 1.02687 21.5489C0.950538 21.0152 1.03445 20.0755 1.3091 19.2237C1.57426 18.4018 2.09221 17.4338 3.04445 17.17C3.13227 17.1457 3.22315 17.1207 3.31594 17.0948C3.98842 16.9072 4.79292 16.682 5.59816 16.5353C6.3081 16.4059 7.05359 16.3312 7.73586 16.4083C8.42911 15.7916 9.48092 15.288 10.6226 14.8741C11.8912 14.4143 13.3435 14.0396 14.7075 13.7452C16.0735 13.4504 17.3632 13.2333 18.3101 13.0899C18.7836 13.0183 19.173 12.9653 19.4439 12.9298C19.5789 12.9121 19.685 12.8986 19.7573 12.8897C19.7931 12.8854 19.8215 12.8822 19.8404 12.88C19.8494 12.8789 19.8569 12.8776 19.8618 12.8771C19.864 12.8768 19.8664 12.8763 19.8677 12.8761H19.8696L19.8989 12.8731H22.5845C22.5142 12.7794 22.4333 12.6769 22.3335 12.5704C22.2418 12.4725 22.1507 12.3957 22.064 12.3321C22.0438 12.3425 22.0203 12.3541 22.0122 12.3487C21.9926 12.333 21.9978 12.2957 21.9829 12.2833C21.9207 12.2313 21.8398 12.222 21.772 12.1886C21.7575 12.1814 21.7578 12.1691 21.7554 12.1573C21.7321 12.1481 21.7089 12.1405 21.6861 12.1329C21.6675 12.1361 21.6482 12.138 21.6275 12.1202C21.626 12.1189 21.6259 12.116 21.6245 12.1144C21.5533 12.0946 21.4843 12.0822 21.4175 12.0733C21.4096 12.0805 21.4143 12.1075 21.4097 12.1114C21.387 12.1253 21.3691 12.0963 21.3472 12.1124C21.342 12.1171 21.3388 12.1485 21.3345 12.1534C21.2974 12.196 21.2479 12.1225 21.2378 12.1085C21.2038 12.0589 21.1831 12.0981 21.1558 12.0782C21.1423 12.0684 21.1455 12.0581 21.1489 12.0489C21.0229 12.0413 20.9076 12.0316 20.8023 11.9942C20.7809 11.9904 20.7588 11.9933 20.731 12.0196C20.737 11.9984 20.7377 11.9804 20.7407 11.9669C20.7261 11.9596 20.711 11.9532 20.6968 11.9444C20.6752 11.9565 20.6526 11.9652 20.6343 11.9337C20.6335 11.9307 20.6403 11.921 20.6489 11.9083C20.6131 11.88 20.5781 11.847 20.5454 11.8048C20.5354 11.8805 20.4887 11.9326 20.4302 11.837C20.4166 11.8119 20.512 11.8541 20.5034 11.8155C20.4911 11.7503 20.3752 11.7686 20.396 11.6808C20.3984 11.6739 20.4322 11.6753 20.4654 11.6788C20.4607 11.67 20.4543 11.6617 20.4497 11.6524C20.4417 11.6452 20.4345 11.6368 20.4263 11.629C20.3687 11.6842 20.3058 11.7393 20.2544 11.8028C20.2396 11.8224 20.3093 11.8514 20.2388 11.8663C20.2335 11.8672 20.182 11.8453 20.1587 11.8497C20.1424 11.8528 20.1243 11.8949 20.0982 11.8937C20.0722 11.8923 20.0824 11.8513 20.0464 11.8419C20.0095 11.8319 19.9815 11.8754 19.9341 11.8282C19.8245 11.7186 19.721 11.5312 19.6773 11.3595C19.6637 11.3062 19.6977 11.3229 19.6909 11.2862C19.678 11.2136 19.6489 11.146 19.6509 11.0655C19.652 11.0392 19.697 11.0655 19.6978 11.0392C19.7009 10.8951 19.7061 10.7428 19.772 10.6017C19.8969 10.3396 20.1045 10.1952 20.2876 10.0987C20.5664 9.95877 20.8333 9.85275 21.1128 9.7501C21.2584 9.69712 21.4495 9.66462 21.5923 9.5958C21.6089 9.5878 21.5874 9.55811 21.5884 9.55283C21.6258 9.49025 21.6335 9.56571 21.6704 9.56357C21.819 9.5526 21.973 9.5057 22.1001 9.45127C22.1539 9.42783 22.0764 9.37518 22.145 9.39658C22.1497 9.39853 22.1472 9.43997 22.1636 9.43955C22.2011 9.43776 22.265 9.41156 22.2935 9.40635C22.3478 9.39688 22.3572 9.39362 22.4068 9.37998C22.4748 9.36171 22.5617 9.35876 22.6323 9.33115C22.647 9.325 22.6168 9.29169 22.6392 9.27842C22.6625 9.26525 22.7308 9.25129 22.7554 9.25498C22.7799 9.25874 22.778 9.29193 22.7837 9.29795C22.83 9.34779 22.8863 9.25072 22.897 9.24424C23.0705 9.16719 23.2376 9.18123 23.4097 9.15049C23.5402 9.12708 23.6791 9.0899 23.8062 9.07627C23.957 9.06035 24.0878 9.07015 24.2349 9.05771C24.2503 9.05643 24.2295 9.01047 24.2486 9.00889ZM41.19 19.0831C41.4725 19.5223 40.8952 21.228 40.5708 22.0265H43.7818C45.0836 21.6928 44.7168 20.4653 44.1734 19.7501C43.7382 19.1782 42.0031 19.0672 41.19 19.0831ZM6.91945 18.1534C6.4726 18.2409 5.3845 18.4389 4.60598 18.5343C3.82762 18.6299 3.38842 19.861 3.26613 20.4649C4.29758 21.3038 6.13137 21.2126 6.91945 21.0616C5.9591 19.7558 6.51917 18.579 6.91945 18.1534ZM26.2827 12.5616C26.3076 12.5609 26.3327 12.5612 26.3579 12.5606C26.3551 12.5554 26.3503 12.5514 26.3404 12.5509C26.3264 12.5503 26.3054 12.5569 26.2827 12.5616Z" fill="#F5C149"/>
<use xlink:href="#stroke0_448_620" transform="translate(24.6053 8.94517) scale(0.00155175) rotate(124.187)"/>
<use xlink:href="#stroke0_448_620" transform="translate(24.0926 8.95827) scale(0.00175756) rotate(-40.395)"/>
<use xlink:href="#stroke0_448_620" transform="translate(24.5377 8.83623) scale(0.00112191) rotate(-0.0516546)"/>
<use xlink:href="#stroke0_448_620" transform="translate(24.8824 9.27698) scale(0.000902256) rotate(-138.312)"/>
<use xlink:href="#stroke0_448_620" transform="translate(25.1257 9.28875) scale(0.000845885) rotate(-175.459)"/>
<use xlink:href="#stroke0_448_620" transform="translate(25.3069 9.07377) scale(0.000779417) rotate(101.964)"/>
<use xlink:href="#stroke0_448_620" transform="translate(25.3899 8.6973) scale(0.00178362) rotate(48.7867)"/>
<use xlink:href="#stroke0_448_620" transform="translate(25.4994 9.00803) scale(0.000848564) rotate(32.9257)"/>
<use xlink:href="#stroke0_448_620" transform="translate(25.5678 9.4312) scale(0.000868588) rotate(-118.671)"/>
<use xlink:href="#stroke0_448_620" transform="translate(25.5448 9.21369) scale(0.00118689) rotate(-26.1286)"/>
<use xlink:href="#stroke0_448_620" transform="translate(26.0956 9.72206) scale(0.00170937) rotate(-151.631)"/>
<use xlink:href="#stroke0_448_620" transform="translate(25.9111 9.87962) scale(0.00220117) rotate(-96.271)"/>
<use xlink:href="#stroke0_448_620" transform="translate(26.05 9.4493) scale(0.00206114) rotate(-34.2855)"/>
<use xlink:href="#stroke0_448_620" transform="translate(27.0979 9.9523) scale(0.00200228) rotate(169.071)"/>
<use xlink:href="#stroke0_448_620" transform="translate(26.6146 9.38877) scale(0.00238652) rotate(7.34441)"/>
<use xlink:href="#stroke0_448_620" transform="translate(27.3471 9.70954) scale(0.0010574) rotate(89.075)"/>
<use xlink:href="#stroke0_448_620" transform="translate(27.8065 9.66033) scale(0.00226495) rotate(92.0792)"/>
<use xlink:href="#stroke0_448_620" transform="translate(27.3476 10.685) scale(0.00216124) rotate(-105.656)"/>
<use xlink:href="#stroke0_448_620" transform="translate(27.6787 10.1075) scale(0.00117997) rotate(14.3821)"/>
<use xlink:href="#stroke0_448_620" transform="translate(27.6983 10.1247) scale(0.00204562) rotate(4.41019)"/>
<use xlink:href="#stroke0_448_620" transform="translate(27.9929 11.3343) scale(0.0023444) rotate(-121.554)"/>
<use xlink:href="#stroke0_448_620" transform="translate(28.5314 10.9937) scale(0.00226113) rotate(118.5)"/>
<use xlink:href="#stroke0_448_620" transform="translate(27.9196 11.1177) scale(0.00105468) rotate(47.4705)"/>
<use xlink:href="#stroke0_448_620" transform="translate(27.3888 12.0652) scale(0.0026354) rotate(-106.687)"/>
<use xlink:href="#stroke0_448_620" transform="translate(27.9711 11.4234) scale(0.00219013) rotate(101.192)"/>
<use xlink:href="#stroke0_448_620" transform="translate(27.4833 12.29) scale(0.00193917) rotate(-129.916)"/>
<use xlink:href="#stroke0_448_620" transform="translate(27.4074 11.456) scale(0.00230349) rotate(44.6879)"/>
<use xlink:href="#stroke0_448_620" transform="translate(26.6361 12.4565) scale(0.00258801) rotate(-82.2215)"/>
<use xlink:href="#stroke0_448_620" transform="translate(26.7904 12.3602) scale(0.00113886) rotate(-78.9962)"/>
<use xlink:href="#stroke0_448_620" transform="translate(26.7428 12.0904) scale(0.00130604) rotate(-4.55032)"/>
<use xlink:href="#stroke0_448_620" transform="translate(27.3394 12.6482) scale(0.00262206) rotate(158.757)"/>
<use xlink:href="#stroke0_448_620" transform="translate(27.0055 12.7251) scale(0.0024262) rotate(157.005)"/>
<use xlink:href="#stroke0_448_620" transform="translate(26.2375 12.5439) scale(0.00133864) rotate(-42.3767)"/>
<use xlink:href="#stroke0_448_620" transform="translate(26.8031 12.844) scale(0.00125947) rotate(-146.23)"/>
<use xlink:href="#stroke0_448_620" transform="translate(27.2396 12.7595) scale(0.00146811) rotate(170.328)"/>
<use xlink:href="#stroke0_448_620" transform="translate(27.2567 12.9884) scale(0.00175985) rotate(-142.353)"/>
<use xlink:href="#stroke0_448_620" transform="translate(27.0505 12.2938) scale(0.00237891) rotate(-14.6826)"/>
<use xlink:href="#stroke0_448_620" transform="translate(28.2263 12.5811) scale(0.001679) rotate(128.247)"/>
<use xlink:href="#stroke0_448_620" transform="translate(27.9394 13.1124) scale(0.00213449) rotate(-113.646)"/>
<use xlink:href="#stroke0_448_620" transform="translate(28.3232 12.9734) scale(0.00134994) rotate(-122.668)"/>
<use xlink:href="#stroke0_448_620" transform="translate(28.3195 12.5667) scale(0.00129658) rotate(-21.3879)"/>
<use xlink:href="#stroke0_448_620" transform="translate(28.5309 13.0142) scale(0.00172898) rotate(-89.0785)"/>
<use xlink:href="#stroke0_448_620" transform="translate(28.4081 12.8383) scale(0.00348487) rotate(-49.2228)"/>
<use xlink:href="#stroke0_448_620" transform="translate(29.4338 13.2278) scale(0.00180183) rotate(-109.162)"/>
<use xlink:href="#stroke0_448_620" transform="translate(30.0872 12.1102) scale(0.00348009) rotate(48.9088)"/>
<use xlink:href="#stroke0_448_620" transform="translate(30.7525 13.7862) scale(0.00340597) rotate(-151.105)"/>
<use xlink:href="#stroke0_448_620" transform="translate(31.0722 12.8142) scale(0.00139363) rotate(75.7998)"/>
<use xlink:href="#stroke0_448_620" transform="translate(31.0885 12.3712) scale(0.00343305) rotate(31.4212)"/>
<use xlink:href="#stroke0_448_620" transform="translate(31.6213 12.7723) scale(0.00204625) rotate(37.5872)"/>
<use xlink:href="#stroke0_448_620" transform="translate(32.1254 14.2416) scale(0.00385251) rotate(-136.046)"/>
<use xlink:href="#stroke0_448_620" transform="translate(33.1024 14.0561) scale(0.00316122) rotate(-174.384)"/>
<use xlink:href="#stroke0_448_620" transform="translate(33.7752 13.1979) scale(0.00328704) rotate(102.715)"/>
<use xlink:href="#stroke0_448_620" transform="translate(34.2496 13.194) scale(0.00354331) rotate(93.1318)"/>
<use xlink:href="#stroke0_448_620" transform="translate(33.8443 14.5816) scale(0.00323091) rotate(-113.814)"/>
<use xlink:href="#stroke0_448_620" transform="translate(35.0598 13.2139) scale(0.00396449) rotate(70.3358)"/>
<use xlink:href="#stroke0_448_620" transform="translate(34.6344 14.2155) scale(0.00190881) rotate(-48.9518)"/>
<use xlink:href="#stroke0_448_620" transform="translate(34.8989 13.6205) scale(0.00404777) rotate(3.98177)"/>
<use xlink:href="#stroke0_448_620" transform="translate(36.2965 14.6524) scale(0.00171973) rotate(157.711)"/>
<use xlink:href="#stroke0_448_620" transform="translate(36.4694 14.3565) scale(0.00161167) rotate(97.6007)"/>
<use xlink:href="#stroke0_448_620" transform="translate(35.8101 15.2517) scale(0.00387413) rotate(-80.1232)"/>
<use xlink:href="#stroke0_448_620" transform="translate(37.7596 14.289) scale(0.0040494) rotate(87.1818)"/>
<use xlink:href="#stroke0_448_620" transform="translate(37.233 14.6265) scale(0.00298922) rotate(12.6643)"/>
<use xlink:href="#stroke0_448_620" transform="translate(37.7071 15.8971) scale(0.00238654) rotate(-107.711)"/>
<use xlink:href="#stroke0_448_620" transform="translate(38.1242 16.1992) scale(0.00277387) rotate(-117.837)"/>
<use xlink:href="#stroke0_448_620" transform="translate(38.723 16.7953) scale(0.004071) rotate(-132.394)"/>
<use xlink:href="#stroke0_448_620" transform="translate(39.0613 16.9048) scale(0.00327773) rotate(-121.831)"/>
<use xlink:href="#stroke0_448_620" transform="translate(39.7679 17.0755) scale(0.00279829) rotate(-148.785)"/>
<use xlink:href="#stroke0_448_620" transform="translate(40.2684 16.046) scale(0.00312741) rotate(67.6342)"/>
<use xlink:href="#stroke0_448_620" transform="translate(40.1267 16.5256) scale(0.00201826) rotate(25.3355)"/>
<use xlink:href="#stroke0_448_620" transform="translate(39.9959 16.5796) scale(0.00372793) rotate(-4.62142)"/>
<use xlink:href="#stroke0_448_620" transform="translate(40.8112 17.944) scale(0.00376295) rotate(-107.496)"/>
<use xlink:href="#stroke0_448_620" transform="translate(42.8327 16.6938) scale(0.00467104) rotate(105.809)"/>
<use xlink:href="#stroke0_448_620" transform="translate(41.9884 17.4838) scale(0.00193309) rotate(-76.2237)"/>
<use xlink:href="#stroke0_448_620" transform="translate(42.1959 17.1251) scale(0.00225896) rotate(-27.5165)"/>
<use xlink:href="#stroke0_448_620" transform="translate(42.9313 16.9341) scale(0.00176888) rotate(34.3585)"/>
<use xlink:href="#stroke0_448_620" transform="translate(42.8347 17.3465) scale(0.00191901) rotate(-39.8508)"/>
<use xlink:href="#stroke0_448_620" transform="translate(44.3755 17.9104) scale(0.00348072) rotate(166.504)"/>
<use xlink:href="#stroke0_448_620" transform="translate(43.9597 17.1721) scale(0.00180409) rotate(27.7101)"/>
<use xlink:href="#stroke0_448_620" transform="translate(44.6103 17.3211) scale(0.00185985) rotate(81.6311)"/>
<use xlink:href="#stroke0_448_620" transform="translate(45.6287 17.8952) scale(0.0037565) rotate(140.283)"/>
<use xlink:href="#stroke0_448_620" transform="translate(45.392 17.3907) scale(0.00276934) rotate(60.5913)"/>
<use xlink:href="#stroke0_448_620" transform="translate(45.523 17.6821) scale(0.00223975) rotate(42.1686)"/>
<use xlink:href="#stroke0_448_620" transform="translate(46.2083 18.5654) scale(0.00190148) rotate(156.944)"/>
<use xlink:href="#stroke0_448_620" transform="translate(45.3566 18.8129) scale(0.00312556) rotate(-57.4569)"/>
<use xlink:href="#stroke0_448_620" transform="translate(46.04 19.3551) scale(0.00205528) rotate(-99.0075)"/>
<use xlink:href="#stroke0_448_620" transform="translate(46.8642 19.4325) scale(0.0018794) rotate(160.886)"/>
<use xlink:href="#stroke0_448_620" transform="translate(46.6892 19.0334) scale(0.00202895) rotate(53.9608)"/>
<use xlink:href="#stroke0_448_620" transform="translate(46.2151 19.8167) scale(0.00225818) rotate(-47.3697)"/>
<use xlink:href="#stroke0_448_620" transform="translate(45.8427 20.2799) scale(0.00449486) rotate(-44.763)"/>
<use xlink:href="#stroke0_448_620" transform="translate(46.6447 20.0295) scale(0.0042416) rotate(24.4567)"/>
<use xlink:href="#stroke0_448_620" transform="translate(47.5942 21.3709) scale(0.00270434) rotate(122.874)"/>
<use xlink:href="#stroke0_448_620" transform="translate(47.0439 22.2629) scale(0.00187608) rotate(-152.564)"/>
<use xlink:href="#stroke0_448_620" transform="translate(47.3583 21.78) scale(0.00281579) rotate(95.0838)"/>
<use xlink:href="#stroke0_448_620" transform="translate(47.0078 22.9384) scale(0.00203811) rotate(-171.025)"/>
<use xlink:href="#stroke0_448_620" transform="translate(46.3563 22.245) scale(0.0029681) rotate(25.2641)"/>
<use xlink:href="#stroke0_448_620" transform="translate(45.3312 22.6091) scale(0.00483841) rotate(-4.92888)"/>
<use xlink:href="#stroke0_448_620" transform="translate(45.3312 23.5296) scale(0.00191322) rotate(-30.7874)"/>
<use xlink:href="#stroke0_448_620" transform="translate(44.6652 23.7048) scale(0.00316962) rotate(-39.1095)"/>
<use xlink:href="#stroke0_448_620" transform="translate(44.4369 24.7359) scale(0.00385415) rotate(-105.581)"/>
<use xlink:href="#stroke0_448_620" transform="translate(45.0356 24.0377) scale(0.00276965) rotate(134.344)"/>
<use xlink:href="#stroke0_448_620" transform="translate(43.4619 25.0931) scale(0.00462483) rotate(-116.265)"/>
<use xlink:href="#stroke0_448_620" transform="translate(42.9665 23.4961) scale(0.00280425) rotate(18.5335)"/>
<use xlink:href="#stroke0_448_620" transform="translate(43.3061 24.7097) scale(0.00344293) rotate(-177.216)"/>
<use xlink:href="#stroke0_448_620" transform="translate(41.5165 23.4537) scale(0.00424171) rotate(1.6701)"/>
<use xlink:href="#stroke0_448_620" transform="translate(42.1273 24.4961) scale(0.00198559) rotate(162.64)"/>
<use xlink:href="#stroke0_448_620" transform="translate(40.959 23.9597) scale(0.00257123) rotate(-0.920507)"/>
<use xlink:href="#stroke0_448_620" transform="translate(41.1838 25.5975) scale(0.00458941) rotate(-152.722)"/>
<use xlink:href="#stroke0_448_620" transform="translate(39.5615 25.1076) scale(0.00358269) rotate(-60.4821)"/>
<use xlink:href="#stroke0_448_620" transform="translate(39.9799 26.248) scale(0.00371235) rotate(-112.121)"/>
<use xlink:href="#stroke0_448_620" transform="translate(40.4224 26.4193) scale(0.00224724) rotate(-149.638)"/>
<use xlink:href="#stroke0_448_620" transform="translate(40.2795 25.4781) scale(0.00383723) rotate(45.0211)"/>
<use xlink:href="#stroke0_448_620" transform="translate(40.0206 27.2394) scale(0.00200735) rotate(-108.249)"/>
<use xlink:href="#stroke0_448_620" transform="translate(40.0109 28.105) scale(0.0037071) rotate(-122.674)"/>
<use xlink:href="#stroke0_448_620" transform="translate(40.5884 27.3255) scale(0.00256526) rotate(90.675)"/>
<use xlink:href="#stroke0_448_620" transform="translate(39.945 28.6486) scale(0.00240638) rotate(-115.456)"/>
<use xlink:href="#stroke0_448_620" transform="translate(40.1513 27.9759) scale(0.00210252) rotate(49.3331)"/>
<use xlink:href="#stroke0_448_620" transform="translate(40.8551 28.3373) scale(0.00427391) rotate(96.1901)"/>
<use xlink:href="#stroke0_448_620" transform="translate(40.3249 29.7433) scale(0.0018789) rotate(-179.111)"/>
<use xlink:href="#stroke0_448_620" transform="translate(40.6572 29.4135) scale(0.00334731) rotate(102.754)"/>
<use xlink:href="#stroke0_448_620" transform="translate(39.2604 30.1147) scale(0.00291069) rotate(-30.2606)"/>
<use xlink:href="#stroke0_448_620" transform="translate(40.5764 31.4347) scale(0.00431715) rotate(171.127)"/>
<use xlink:href="#stroke0_448_620" transform="translate(39.122 31.1509) scale(0.00203231) rotate(-30.1672)"/>
<use xlink:href="#stroke0_448_620" transform="translate(38.8363 31.8967) scale(0.00281757) rotate(-70.4165)"/>
<use xlink:href="#stroke0_448_620" transform="translate(39.7955 32.1224) scale(0.00252358) rotate(148.897)"/>
<use xlink:href="#stroke0_448_620" transform="translate(38.173 32.3876) scale(0.00346857) rotate(-47.3333)"/>
<use xlink:href="#stroke0_448_620" transform="translate(38.4274 33.0575) scale(0.00201481) rotate(-91.4485)"/>
<use xlink:href="#stroke0_448_620" transform="translate(38.0968 33.1164) scale(0.00209079) rotate(-63.3542)"/>
<use xlink:href="#stroke0_448_620" transform="translate(38.0521 33.4971) scale(0.00185322) rotate(-89.4587)"/>
<use xlink:href="#stroke0_448_620" transform="translate(38.6624 33.5049) scale(0.00220543) rotate(143.176)"/>
<use xlink:href="#stroke0_448_620" transform="translate(38.4736 34.6548) scale(0.00463893) rotate(-174.496)"/>
<use xlink:href="#stroke0_448_620" transform="translate(36.9997 34.6103) scale(0.0024896) rotate(-93.221)"/>
<use xlink:href="#stroke0_448_620" transform="translate(36.5517 34.2796) scale(0.002451) rotate(-30.6439)"/>
<use xlink:href="#stroke0_448_620" transform="translate(36.3709 33.9596) scale(0.00361271) rotate(18.1846)"/>
<use xlink:href="#stroke0_448_620" transform="translate(35.9717 34.9648) scale(0.00183893) rotate(-46.3118)"/>
<use xlink:href="#stroke0_448_620" transform="translate(36.6858 35.4419) scale(0.00274286) rotate(160.59)"/>
<use xlink:href="#stroke0_448_620" transform="translate(36.3246 35.3414) scale(0.00232854) rotate(131.999)"/>
<use xlink:href="#stroke0_448_620" transform="translate(35.583 36.6603) scale(0.00449412) rotate(-149.323)"/>
<use xlink:href="#stroke0_448_620" transform="translate(33.8865 35.4624) scale(0.00420493) rotate(-16.2412)"/>
<use xlink:href="#stroke0_448_620" transform="translate(35.0418 35.9009) scale(0.00392847) rotate(114.474)"/>
<use xlink:href="#stroke0_448_620" transform="translate(34.3177 36.9855) scale(0.00376848) rotate(173.087)"/>
<use xlink:href="#stroke0_448_620" transform="translate(33.6549 36.5276) scale(0.00184145) rotate(126.12)"/>
<use xlink:href="#stroke0_448_620" transform="translate(33.3045 37.0187) scale(0.00206006) rotate(176.651)"/>
<use xlink:href="#stroke0_448_620" transform="translate(32.3129 36.4677) scale(0.00200344) rotate(-2.11649)"/>
<use xlink:href="#stroke0_448_620" transform="translate(32.6 36.33) scale(0.00270043) rotate(72.1631)"/>
<use xlink:href="#stroke0_448_620" transform="translate(32.208 38.0247) scale(0.00458249) rotate(-159.913)"/>
<use xlink:href="#stroke0_448_620" transform="translate(31.7043 36.9437) scale(0.00208874) rotate(106.85)"/>
<use xlink:href="#stroke0_448_620" transform="translate(30.0369 37.4326) scale(0.00354956) rotate(-56.7779)"/>
<use xlink:href="#stroke0_448_620" transform="translate(30.5115 36.874) scale(0.00214708) rotate(54.2405)"/>
<use xlink:href="#stroke0_448_620" transform="translate(30.5747 37.9642) scale(0.0032158) rotate(176.969)"/>
<use xlink:href="#stroke0_448_620" transform="translate(29.577 38.219) scale(0.00286741) rotate(-136.756)"/>
<use xlink:href="#stroke0_448_620" transform="translate(29.8518 36.9715) scale(0.00465935) rotate(96.1681)"/>
<use xlink:href="#stroke0_448_620" transform="translate(28.9212 37.7294) scale(0.00177952) rotate(136.671)"/>
<use xlink:href="#stroke0_448_620" transform="translate(27.8206 37.6657) scale(0.00180344) rotate(-33.8493)"/>
<use xlink:href="#stroke0_448_620" transform="translate(28.6458 37.6013) scale(0.00364306) rotate(120.332)"/>
<use xlink:href="#stroke0_448_620" transform="translate(28.177 37.9616) scale(0.00404255) rotate(138.702)"/>
<use xlink:href="#stroke0_448_620" transform="translate(26.4083 37.799) scale(0.001727) rotate(-28.0065)"/>
<use xlink:href="#stroke0_448_620" transform="translate(25.7064 37.6366) scale(0.00331993) rotate(-20.4172)"/>
<use xlink:href="#stroke0_448_620" transform="translate(25.5604 38.3874) scale(0.00239933) rotate(-88.6907)"/>
<use xlink:href="#stroke0_448_620" transform="translate(24.985 38.0725) scale(0.00258885) rotate(-49.9667)"/>
<use xlink:href="#stroke0_448_620" transform="translate(25.3732 38.524) scale(0.0021967) rotate(-152.924)"/>
<use xlink:href="#stroke0_448_620" transform="translate(25.0046 38.4474) scale(0.00174466) rotate(-147.811)"/>
<use xlink:href="#stroke0_448_620" transform="translate(24.3136 38.3583) scale(0.00186286) rotate(-86.5893)"/>
<use xlink:href="#stroke0_448_620" transform="translate(24.2687 37.6703) scale(0.00177072) rotate(30.9611)"/>
<use xlink:href="#stroke0_448_620" transform="translate(23.6499 37.7422) scale(0.00224413) rotate(-6.43083)"/>
<use xlink:href="#stroke0_448_620" transform="translate(24.1396 38.4292) scale(0.00237874) rotate(172.303)"/>
<use xlink:href="#stroke0_448_620" transform="translate(23.1873 37.7401) scale(0.0017152) rotate(14.3991)"/>
<use xlink:href="#stroke0_448_620" transform="translate(22.8984 37.6285) scale(0.00215) rotate(21.8261)"/>
<use xlink:href="#stroke0_448_620" transform="translate(23.2055 38.1209) scale(0.00178973) rotate(138.458)"/>
<use xlink:href="#stroke0_448_620" transform="translate(22.3477 38.8704) scale(0.00346097) rotate(-133.012)"/>
<use xlink:href="#stroke0_448_620" transform="translate(22.4024 37.909) scale(0.00193258) rotate(116.432)"/>
<use xlink:href="#stroke0_448_620" transform="translate(21.4303 38.388) scale(0.00184325) rotate(-99.8733)"/>
<use xlink:href="#stroke0_448_620" transform="translate(21.1363 37.2077) scale(0.00348853) rotate(34.5426)"/>
<use xlink:href="#stroke0_448_620" transform="translate(20.5034 38.5623) scale(0.00281551) rotate(-109.679)"/>
<use xlink:href="#stroke0_448_620" transform="translate(19.8462 37.5525) scale(0.00275885) rotate(-9.43826)"/>
<use xlink:href="#stroke0_448_620" transform="translate(19.6373 37.9179) scale(0.00167257) rotate(-48.3676)"/>
<use xlink:href="#stroke0_448_620" transform="translate(20.4969 37.5851) scale(0.00403459) rotate(117.752)"/>
<use xlink:href="#stroke0_448_620" transform="translate(18.8591 37.3136) scale(0.00232453) rotate(17.0669)"/>
<use xlink:href="#stroke0_448_620" transform="translate(19.2505 37.8121) scale(0.00204996) rotate(141.801)"/>
<use xlink:href="#stroke0_448_620" transform="translate(17.328 37.3409) scale(0.00434726) rotate(-27.1489)"/>
<use xlink:href="#stroke0_448_620" transform="translate(18.2424 37.4731) scale(0.00185931) rotate(119.488)"/>
<use xlink:href="#stroke0_448_620" transform="translate(17.7335 37.0672) scale(0.00213224) rotate(69.3106)"/>
<use xlink:href="#stroke0_448_620" transform="translate(16.8241 38.034) scale(0.00288082) rotate(-107.21)"/>
<use xlink:href="#stroke0_448_620" transform="translate(17.3408 38.0048) scale(0.00432067) rotate(177.897)"/>
<use xlink:href="#stroke0_448_620" transform="translate(16.2845 36.4762) scale(0.00314144) rotate(62.6794)"/>
<use xlink:href="#stroke0_448_620" transform="translate(15.2067 36.992) scale(0.00201563) rotate(-37.122)"/>
<use xlink:href="#stroke0_448_620" transform="translate(14.6615 37.2869) scale(0.00309121) rotate(-73.8918)"/>
<use xlink:href="#stroke0_448_620" transform="translate(14.6339 37.1633) scale(0.00194525) rotate(-94.6104)"/>
<use xlink:href="#stroke0_448_620" transform="translate(14.2063 36.7765) scale(0.00191519) rotate(-51.9039)"/>
<use xlink:href="#stroke0_448_620" transform="translate(14.0005 36.2927) scale(0.00210115) rotate(-2.8099)"/>
<use xlink:href="#stroke0_448_620" transform="translate(14.136 35.8964) scale(0.00260757) rotate(54.8695)"/>
<use xlink:href="#stroke0_448_620" transform="translate(14.3808 36.6074) scale(0.00365057) rotate(153.729)"/>
<use xlink:href="#stroke0_448_620" transform="translate(12.357 35.6308) scale(0.00363265) rotate(-11.6797)"/>
<use xlink:href="#stroke0_448_620" transform="translate(12.4002 36.1983) scale(0.00166842) rotate(-87.6146)"/>
<use xlink:href="#stroke0_448_620" transform="translate(11.5408 35.9251) scale(0.00355831) rotate(-59.4511)"/>
<use xlink:href="#stroke0_448_620" transform="translate(12.4069 35.2909) scale(0.00199896) rotate(107.79)"/>
<use xlink:href="#stroke0_448_620" transform="translate(12.4212 35.4023) scale(0.00336734) rotate(143.75)"/>
<use xlink:href="#stroke0_448_620" transform="translate(10.3048 34.8657) scale(0.00384727) rotate(-40.9273)"/>
<use xlink:href="#stroke0_448_620" transform="translate(10.3706 34.2431) scale(0.00254247) rotate(-4.70881)"/>
<use xlink:href="#stroke0_448_620" transform="translate(9.77497 34.295) scale(0.0030757) rotate(-41.1028)"/>
<use xlink:href="#stroke0_448_620" transform="translate(9.63247 34.3647) scale(0.00259271) rotate(-74.8929)"/>
<use xlink:href="#stroke0_448_620" transform="translate(9.61801 33.2598) scale(0.00254046) rotate(17.9504)"/>
<use xlink:href="#stroke0_448_620" transform="translate(9.30672 34.3008) scale(0.00375457) rotate(-120.496)"/>
<use xlink:href="#stroke0_448_620" transform="translate(9.71055 33.6634) scale(0.00356484) rotate(-177.069)"/>
<use xlink:href="#stroke0_448_620" transform="translate(9.33647 32.7245) scale(0.0019697) rotate(134.668)"/>
<use xlink:href="#stroke0_448_620" transform="translate(9.10108 32.968) scale(0.00308281) rotate(-174.868)"/>
<use xlink:href="#stroke0_448_620" transform="translate(8.80597 31.9831) scale(0.00176344) rotate(115.417)"/>
<use xlink:href="#stroke0_448_620" transform="translate(8.60856 31.4986) scale(0.00216392) rotate(88.5491)"/>
<use xlink:href="#stroke0_448_620" transform="translate(8.37046 31.9056) scale(0.00172748) rotate(-178.085)"/>
<use xlink:href="#stroke0_448_620" transform="translate(7.37331 31.9329) scale(0.00361328) rotate(-98.6764)"/>
<use xlink:href="#stroke0_448_620" transform="translate(7.42917 31.3416) scale(0.00242409) rotate(-108.519)"/>
<use xlink:href="#stroke0_448_620" transform="translate(7.17995 30.0464) scale(0.00245589) rotate(5.47559)"/>
<use xlink:href="#stroke0_448_620" transform="translate(7.40812 29.2773) scale(0.00338749) rotate(44.5177)"/>
<use xlink:href="#stroke0_448_620" transform="translate(7.50638 30.2944) scale(0.00317316) rotate(-147.94)"/>
<use xlink:href="#stroke0_448_620" transform="translate(6.93581 29.1048) scale(0.00158326) rotate(-29.5355)"/>
<use xlink:href="#stroke0_448_620" transform="translate(6.61715 29.4426) scale(0.00390103) rotate(-91.526)"/>
<use xlink:href="#stroke0_448_620" transform="translate(6.81706 28.3682) scale(0.00175541) rotate(-47.4917)"/>
<use xlink:href="#stroke0_448_620" transform="translate(6.68212 28.2087) scale(0.00230033) rotate(-63.4225)"/>
<use xlink:href="#stroke0_448_620" transform="translate(6.71717 27.1922) scale(0.00277259) rotate(0.061503)"/>
<use xlink:href="#stroke0_448_620" transform="translate(6.76846 26.422) scale(0.0035697) rotate(18.1517)"/>
<use xlink:href="#stroke0_448_620" transform="translate(7.31646 27.0992) scale(0.00160289) rotate(-165.534)"/>
<use xlink:href="#stroke0_448_620" transform="translate(6.67743 26.8211) scale(0.00235713) rotate(-85.1031)"/>
<use xlink:href="#stroke0_448_620" transform="translate(6.46393 25.9125) scale(0.0028011) rotate(-31.3212)"/>
<use xlink:href="#stroke0_448_620" transform="translate(7.14604 26.4525) scale(0.00378852) rotate(-141.143)"/>
<use xlink:href="#stroke0_448_620" transform="translate(7.49526 25.2584) scale(0.00198054) rotate(150.608)"/>
<use xlink:href="#stroke0_448_620" transform="translate(6.57601 24.1881) scale(0.00309714) rotate(3.7059)"/>
<use xlink:href="#stroke0_448_620" transform="translate(6.57364 24.958) scale(0.00375932) rotate(-103.762)"/>
<use xlink:href="#stroke0_448_620" transform="translate(6.60302 23.9322) scale(0.00172525) rotate(-62.553)"/>
<use xlink:href="#stroke0_448_620" transform="translate(7.18434 23.0483) scale(0.00337844) rotate(87.2624)"/>
<use xlink:href="#stroke0_448_620" transform="translate(6.65355 23.6543) scale(0.00177876) rotate(163.528)"/>
<use xlink:href="#stroke0_448_620" transform="translate(5.85918 22.996) scale(0.0017065) rotate(16.8927)"/>
<use xlink:href="#stroke0_448_620" transform="translate(5.88557 24.0978) scale(0.00378074) rotate(-152.075)"/>
<use xlink:href="#stroke0_448_620" transform="translate(4.74684 23.6139) scale(0.00248699) rotate(-90.7035)"/>
<use xlink:href="#stroke0_448_620" transform="translate(5.3437 22.5562) scale(0.00377521) rotate(92.8964)"/>
<use xlink:href="#stroke0_448_620" transform="translate(4.24016 23.7241) scale(0.00281771) rotate(-140.894)"/>
<use xlink:href="#stroke0_448_620" transform="translate(3.38867 22.5104) scale(0.00267392) rotate(7.52206)"/>
<use xlink:href="#stroke0_448_620" transform="translate(4.04437 22.9603) scale(0.00305207) rotate(136.982)"/>
<use xlink:href="#stroke0_448_620" transform="translate(3.22752 23.5033) scale(0.00336087) rotate(-164.202)"/>
<use xlink:href="#stroke0_448_620" transform="translate(1.90061 23.1263) scale(0.00284376) rotate(-87.7059)"/>
<use xlink:href="#stroke0_448_620" transform="translate(1.24475 23.0256) scale(0.00368556) rotate(-83.2918)"/>
<use xlink:href="#stroke0_448_620" transform="translate(0.923095 22.3406) scale(0.00254526) rotate(-53.1585)"/>
<use xlink:href="#stroke0_448_620" transform="translate(0.890701 21.9369) scale(0.00168954) rotate(-29.012)"/>
<use xlink:href="#stroke0_448_620" transform="translate(1.15619 21.5215) scale(0.00143243) rotate(48.6532)"/>
<use xlink:href="#stroke0_448_620" transform="translate(1.02484 21.1049) scale(0.00212263) rotate(43.3318)"/>
<use xlink:href="#stroke0_448_620" transform="translate(1.04278 21.6511) scale(0.00135824) rotate(-141.214)"/>
<use xlink:href="#stroke0_448_620" transform="translate(0.898951 20.7197) scale(0.00169503) rotate(28.5723)"/>
<use xlink:href="#stroke0_448_620" transform="translate(1.39475 20.8983) scale(0.00165082) rotate(142.243)"/>
<use xlink:href="#stroke0_448_620" transform="translate(1.01403 21.1968) scale(0.0030412) rotate(-133.491)"/>
<use xlink:href="#stroke0_448_620" transform="translate(0.914215 20.4856) scale(0.00170428) rotate(-110.915)"/>
<use xlink:href="#stroke0_448_620" transform="translate(0.727471 19.4966) scale(0.00226599) rotate(-7.39004)"/>
<use xlink:href="#stroke0_448_620" transform="translate(0.848652 19.7879) scale(0.00201624) rotate(-82.2238)"/>
<use xlink:href="#stroke0_448_620" transform="translate(1.1264 19.8781) scale(0.00342614) rotate(-119.027)"/>
<use xlink:href="#stroke0_448_620" transform="translate(2.00623 19.1322) scale(0.00291323) rotate(178.986)"/>
<use xlink:href="#stroke0_448_620" transform="translate(1.87293 18.7255) scale(0.00184597) rotate(-159.886)"/>
<use xlink:href="#stroke0_448_620" transform="translate(2.69314 18.0523) scale(0.00333534) rotate(138.112)"/>
<use xlink:href="#stroke0_448_620" transform="translate(2.3035 17.1773) scale(0.00218359) rotate(57.7679)"/>
<use xlink:href="#stroke0_448_620" transform="translate(2.92615 16.9582) scale(0.00278299) rotate(87.7914)"/>
<use xlink:href="#stroke0_448_620" transform="translate(2.77118 16.7236) scale(0.0022825) rotate(38.5918)"/>
<use xlink:href="#stroke0_448_620" transform="translate(2.72927 17.3146) scale(0.00181633) rotate(-69.327)"/>
<use xlink:href="#stroke0_448_620" transform="translate(3.15552 17.5055) scale(0.00218201) rotate(-105.145)"/>
<use xlink:href="#stroke0_448_620" transform="translate(3.19832 16.8552) scale(0.00246359) rotate(-33.277)"/>
<use xlink:href="#stroke0_448_620" transform="translate(3.61551 16.758) scale(0.002124) rotate(-31.8951)"/>
<use xlink:href="#stroke0_448_620" transform="translate(4.29209 17.1971) scale(0.00172064) rotate(-122.487)"/>
<use xlink:href="#stroke0_448_620" transform="translate(4.85439 17.0569) scale(0.00167391) rotate(-169.87)"/>
<use xlink:href="#stroke0_448_620" transform="translate(4.8907 16.3909) scale(0.0012826) rotate(50.6549)"/>
<use xlink:href="#stroke0_448_620" transform="translate(5.24256 17.155) scale(0.00230309) rotate(-148.042)"/>
<use xlink:href="#stroke0_448_620" transform="translate(5.53375 16.1261) scale(0.00191387) rotate(55.7595)"/>
<use xlink:href="#stroke0_448_620" transform="translate(6.13548 17.0538) scale(0.0027424) rotate(-167.512)"/>
<use xlink:href="#stroke0_448_620" transform="translate(6.65664 16.9556) scale(0.00285916) rotate(-176.194)"/>
<use xlink:href="#stroke0_448_620" transform="translate(7.04666 16.4223) scale(0.0019613) rotate(137.88)"/>
<use xlink:href="#stroke0_448_620" transform="translate(6.69728 15.8492) scale(0.00250328) rotate(20.6775)"/>
<use xlink:href="#stroke0_448_620" transform="translate(6.97384 16.0764) scale(0.00175796) rotate(0.44195)"/>
<use xlink:href="#stroke0_448_620" transform="translate(8.39246 16.5171) scale(0.00324936) rotate(143.425)"/>
<use xlink:href="#stroke0_448_620" transform="translate(8.05467 16.5105) scale(0.00122237) rotate(-161.536)"/>
<use xlink:href="#stroke0_448_620" transform="translate(8.27292 16.3292) scale(0.00119563) rotate(179.828)"/>
<use xlink:href="#stroke0_448_620" transform="translate(8.93185 15.9183) scale(0.00261195) rotate(130.798)"/>
<use xlink:href="#stroke0_448_620" transform="translate(8.81083 15.489) scale(0.00157139) rotate(80.1324)"/>
<use xlink:href="#stroke0_448_620" transform="translate(9.55716 15.3381) scale(0.00302778) rotate(110.088)"/>
<use xlink:href="#stroke0_448_620" transform="translate(8.89641 15.3925) scale(0.00139541) rotate(-31.484)"/>
<use xlink:href="#stroke0_448_620" transform="translate(9.3003 14.9948) scale(0.00168141) rotate(25.9276)"/>
<use xlink:href="#stroke0_448_620" transform="translate(9.31507 15.531) scale(0.00197188) rotate(-84.2653)"/>
<use xlink:href="#stroke0_448_620" transform="translate(9.92181 14.5891) scale(0.00227165) rotate(38.4277)"/>
<use xlink:href="#stroke0_448_620" transform="translate(9.9071 15.1793) scale(0.00166587) rotate(-70.4105)"/>
<use xlink:href="#stroke0_448_620" transform="translate(10.6769 14.6017) scale(0.0015914) rotate(73.7668)"/>
<use xlink:href="#stroke0_448_620" transform="translate(11.0509 14.7703) scale(0.0014741) rotate(122.117)"/>
<use xlink:href="#stroke0_448_620" transform="translate(10.5657 14.7089) scale(0.00159633) rotate(-37.563)"/>
<use xlink:href="#stroke0_448_620" transform="translate(11.4887 14.3334) scale(0.00193875) rotate(85.0243)"/>
<use xlink:href="#stroke0_448_620" transform="translate(11.4569 14.9461) scale(0.00152334) rotate(-137.778)"/>
<use xlink:href="#stroke0_448_620" transform="translate(11.9981 14.1103) scale(0.00210401) rotate(80.0457)"/>
<use xlink:href="#stroke0_448_620" transform="translate(11.6113 14.6717) scale(0.00202047) rotate(-76.5504)"/>
<use xlink:href="#stroke0_448_620" transform="translate(12.9977 14.1931) scale(0.00275554) rotate(123.777)"/>
<use xlink:href="#stroke0_448_620" transform="translate(12.8354 14.6492) scale(0.00188018) rotate(-152.235)"/>
<use xlink:href="#stroke0_448_620" transform="translate(13.1255 14.4643) scale(0.00146321) rotate(-164.795)"/>
<use xlink:href="#stroke0_448_620" transform="translate(13.0162 14.344) scale(0.00115925) rotate(-105.477)"/>
<use xlink:href="#stroke0_448_620" transform="translate(13.6127 13.6469) scale(0.0019654) rotate(72.2834)"/>
<use xlink:href="#stroke0_448_620" transform="translate(13.491 13.3527) scale(0.0028574) rotate(20.8553)"/>
<use xlink:href="#stroke0_448_620" transform="translate(14.2746 13.7165) scale(0.00120007) rotate(94.0109)"/>
<use xlink:href="#stroke0_448_620" transform="translate(14.9312 13.5919) scale(0.00265228) rotate(112.924)"/>
<use xlink:href="#stroke0_448_620" transform="translate(14.2114 14.0526) scale(0.00268787) rotate(-75.7104)"/>
<use xlink:href="#stroke0_448_620" transform="translate(15.6281 13.9827) scale(0.00249502) rotate(168.349)"/>
<use xlink:href="#stroke0_448_620" transform="translate(15.9215 13.1555) scale(0.00247787) rotate(88.593)"/>
<use xlink:href="#stroke0_448_620" transform="translate(15.4146 13.6898) scale(0.00204755) rotate(-67.4549)"/>
<use xlink:href="#stroke0_448_620" transform="translate(15.8407 13.3657) scale(0.00121271) rotate(-24.7302)"/>
<use xlink:href="#stroke0_448_620" transform="translate(15.8006 13.4606) scale(0.00254973) rotate(-51.5052)"/>
<use xlink:href="#stroke0_448_620" transform="translate(16.7439 13.6028) scale(0.00106229) rotate(-153.249)"/>
<use xlink:href="#stroke0_448_620" transform="translate(17.305 13.3049) scale(0.00174523) rotate(133.427)"/>
<use xlink:href="#stroke0_448_620" transform="translate(17.7439 13.6374) scale(0.00270295) rotate(170.667)"/>
<use xlink:href="#stroke0_448_620" transform="translate(17.2836 13.5699) scale(0.00206746) rotate(-95.4421)"/>
<use xlink:href="#stroke0_448_620" transform="translate(18.1478 13.4754) scale(0.00174886) rotate(-175.481)"/>
<use xlink:href="#stroke0_448_620" transform="translate(18.2315 12.815) scale(0.00138789) rotate(63.7402)"/>
<use xlink:href="#stroke0_448_620" transform="translate(18.1468 12.7676) scale(0.00159533) rotate(11.4758)"/>
<use xlink:href="#stroke0_448_620" transform="translate(18.5583 12.7858) scale(0.00115159) rotate(44.3168)"/>
<use xlink:href="#stroke0_448_620" transform="translate(18.487 13.216) scale(0.00143149) rotate(-78.9837)"/>
<use xlink:href="#stroke0_448_620" transform="translate(19.1513 13.2786) scale(0.00139094) rotate(-167.25)"/>
<use xlink:href="#stroke0_448_620" transform="translate(19.5463 12.5594) scale(0.0021011) rotate(82.224)"/>
<use xlink:href="#stroke0_448_620" transform="translate(19.8989 12.4333) scale(0.0024187) rotate(77.5518)"/>
<use xlink:href="#stroke0_448_620" transform="translate(20.152 13.0802) scale(0.00144566) rotate(171.729)"/>
<use xlink:href="#stroke0_448_620" transform="translate(20.7614 13.0901) scale(0.00259547) rotate(154.954)"/>
<use xlink:href="#stroke0_448_620" transform="translate(20.8054 12.9404) scale(0.00134644) rotate(145.072)"/>
<use xlink:href="#stroke0_448_620" transform="translate(20.4878 13.0331) scale(0.00109962) rotate(-86.072)"/>
<use xlink:href="#stroke0_448_620" transform="translate(20.6334 12.7673) scale(0.00110439) rotate(-21.2949)"/>
<use xlink:href="#stroke0_448_620" transform="translate(20.8246 13.0753) scale(0.00134434) rotate(-83.8995)"/>
<use xlink:href="#stroke0_448_620" transform="translate(21.1316 13.1105) scale(0.00112413) rotate(-106.196)"/>
<use xlink:href="#stroke0_448_620" transform="translate(21.2194 12.7061) scale(0.00123184) rotate(-10.8023)"/>
<use xlink:href="#stroke0_448_620" transform="translate(21.9434 12.8649) scale(0.00124945) rotate(131.925)"/>
<use xlink:href="#stroke0_448_620" transform="translate(22.2111 12.7717) scale(0.00153525) rotate(116.486)"/>
<use xlink:href="#stroke0_448_620" transform="translate(22.4457 13.1133) scale(0.00174617) rotate(171.634)"/>
<use xlink:href="#stroke0_448_620" transform="translate(22.1787 12.6889) scale(0.00101057) rotate(3.60727)"/>
<use xlink:href="#stroke0_448_620" transform="translate(22.7824 12.4102) scale(0.00212591) rotate(68.217)"/>
<use xlink:href="#stroke0_448_620" transform="translate(22.8507 12.722) scale(0.00210482) rotate(146.445)"/>
<use xlink:href="#stroke0_448_620" transform="translate(21.7982 12.3409) scale(0.00162057) rotate(-34.5424)"/>
<use xlink:href="#stroke0_448_620" transform="translate(22.2027 12.1639) scale(0.0010885) rotate(93.3767)"/>
<use xlink:href="#stroke0_448_620" transform="translate(22.0521 12.3618) scale(0.000932002) rotate(172.672)"/>
<use xlink:href="#stroke0_448_620" transform="translate(21.979 12.1534) scale(0.00106913) rotate(136.833)"/>
<use xlink:href="#stroke0_448_620" transform="translate(21.6807 12.37) scale(0.00130883) rotate(-163.482)"/>
<use xlink:href="#stroke0_448_620" transform="translate(21.7233 12.1786) scale(0.00165772) rotate(145.302)"/>
<use xlink:href="#stroke0_448_620" transform="translate(21.1082 11.8577) scale(0.00107863) rotate(21.8991)"/>
<use xlink:href="#stroke0_448_620" transform="translate(20.8838 12.4463) scale(0.00181439) rotate(-120.515)"/>
<use xlink:href="#stroke0_448_620" transform="translate(20.6317 11.8126) scale(0.000991644) rotate(3.01614)"/>
<use xlink:href="#stroke0_448_620" transform="translate(20.37 12.2958) scale(0.00197229) rotate(-99.6591)"/>
<use xlink:href="#stroke0_448_620" transform="translate(20.6195 11.4906) scale(0.00182631) rotate(65.1764)"/>
<use xlink:href="#stroke0_448_620" transform="translate(20.3802 11.579) scale(0.000909253) rotate(18.5553)"/>
<use xlink:href="#stroke0_448_620" transform="translate(20.1216 11.3568) scale(0.00185543) rotate(-4.41446)"/>
<use xlink:href="#stroke0_448_620" transform="translate(20.5475 11.4396) scale(0.00208636) rotate(80.3592)"/>
<use xlink:href="#stroke0_448_620" transform="translate(19.7081 12.0741) scale(0.00176815) rotate(-81.2102)"/>
<use xlink:href="#stroke0_448_620" transform="translate(19.8845 11.9584) scale(0.000844531) rotate(-135.525)"/>
<use xlink:href="#stroke0_448_620" transform="translate(19.8096 11.8863) scale(0.00121385) rotate(-143.242)"/>
<use xlink:href="#stroke0_448_620" transform="translate(19.4719 11.4121) scale(0.000996961) rotate(-38.1727)"/>
<use xlink:href="#stroke0_448_620" transform="translate(19.3985 11.5446) scale(0.00180564) rotate(-96.4691)"/>
<use xlink:href="#stroke0_448_620" transform="translate(19.8529 10.9197) scale(0.000867731) rotate(94.6)"/>
<use xlink:href="#stroke0_448_620" transform="translate(19.9047 10.9399) scale(0.00088168) rotate(150.964)"/>
<use xlink:href="#stroke0_448_620" transform="translate(19.7575 10.4482) scale(0.00107747) rotate(51.5329)"/>
<use xlink:href="#stroke0_448_620" transform="translate(19.3792 10.5352) scale(0.00198196) rotate(-53.7285)"/>
<use xlink:href="#stroke0_448_620" transform="translate(20.1648 10.4834) scale(0.00103085) rotate(-178.567)"/>
<use xlink:href="#stroke0_448_620" transform="translate(20.2219 9.94979) scale(0.00107749) rotate(63.6529)"/>
<use xlink:href="#stroke0_448_620" transform="translate(20.6668 10.4101) scale(0.00201184) rotate(-176.965)"/>
<use xlink:href="#stroke0_448_620" transform="translate(20.703 10.0926) scale(0.000788907) rotate(172.287)"/>
<use xlink:href="#stroke0_448_620" transform="translate(20.8813 9.61544) scale(0.00132737) rotate(71.4247)"/>
<use xlink:href="#stroke0_448_620" transform="translate(20.7283 9.57766) scale(0.00131282) rotate(4.13556)"/>
<use xlink:href="#stroke0_448_620" transform="translate(21.5581 9.79313) scale(0.00176293) rotate(142.228)"/>
<use xlink:href="#stroke0_448_620" transform="translate(21.2187 10.0019) scale(0.00165649) rotate(-107.639)"/>
<use xlink:href="#stroke0_448_620" transform="translate(21.6635 9.44229) scale(0.000768685) rotate(73.317)"/>
<use xlink:href="#stroke0_448_620" transform="translate(21.4997 9.3848) scale(0.00107522) rotate(-2.54066)"/>
<use xlink:href="#stroke0_448_620" transform="translate(21.7251 9.38535) scale(0.000828126) rotate(5.96959)"/>
<use xlink:href="#stroke0_448_620" transform="translate(21.8078 9.35815) scale(0.00100827) rotate(-15.5553)"/>
<use xlink:href="#stroke0_448_620" transform="translate(21.8539 9.73775) scale(0.00187501) rotate(-90.0843)"/>
<use xlink:href="#stroke0_448_620" transform="translate(22.5818 9.5243) scale(0.00101001) rotate(167.799)"/>
<use xlink:href="#stroke0_448_620" transform="translate(22.5339 9.18033) scale(0.000787763) rotate(41.8293)"/>
<use xlink:href="#stroke0_448_620" transform="translate(22.6238 8.84597) scale(0.00179146) rotate(31.0837)"/>
<use xlink:href="#stroke0_448_620" transform="translate(23.0709 9.2992) scale(0.000852057) rotate(143.594)"/>
<use xlink:href="#stroke0_448_620" transform="translate(22.8143 9.08229) scale(0.00106326) rotate(-19.5281)"/>
<use xlink:href="#stroke0_448_620" transform="translate(22.9593 9.04632) scale(0.00131423) rotate(-20.834)"/>
<use xlink:href="#stroke0_448_620" transform="translate(23.3863 8.94387) scale(0.000888318) rotate(39.0112)"/>
<use xlink:href="#stroke0_448_620" transform="translate(23.5777 8.96699) scale(0.000702863) rotate(51.0217)"/>
<use xlink:href="#stroke0_448_620" transform="translate(23.7777 8.93647) scale(0.000714026) rotate(69.0608)"/>
<use xlink:href="#stroke0_448_620" transform="translate(24.0157 9.15887) scale(0.000761928) rotate(166.444)"/>
<use xlink:href="#stroke0_448_620" transform="translate(23.9564 9.23193) scale(0.000778302) rotate(-113.596)"/>
<use xlink:href="#stroke0_448_620" transform="translate(24.2716 9.19902) scale(0.000690374) rotate(-171.057)"/>
<use xlink:href="#stroke0_448_620" transform="translate(24.4041 9.08186) scale(0.000730972) rotate(158.659)"/>
<use xlink:href="#stroke0_448_620" transform="translate(40.9664 20.0235) scale(0.00413442) rotate(-122.316)"/>
<use xlink:href="#stroke0_448_620" transform="translate(41.5841 19.0587) scale(0.00264837) rotate(74.9885)"/>
<use xlink:href="#stroke0_448_620" transform="translate(41.6331 21.1369) scale(0.00465617) rotate(-160.189)"/>
<use xlink:href="#stroke0_448_620" transform="translate(40.8577 20.1602) scale(0.00225271) rotate(24.5513)"/>
<use xlink:href="#stroke0_448_620" transform="translate(41.3347 22.105) scale(0.00448706) rotate(-160.611)"/>
<use xlink:href="#stroke0_448_620" transform="translate(41.2013 22.2369) scale(0.00315581) rotate(-179.468)"/>
<use xlink:href="#stroke0_448_620" transform="translate(39.7603 21.9731) scale(0.00452393) rotate(-42.357)"/>
<use xlink:href="#stroke0_448_620" transform="translate(41.0022 21.6135) scale(0.00228847) rotate(5.26496)"/>
<use xlink:href="#stroke0_448_620" transform="translate(41.2046 21.7353) scale(0.00247344) rotate(-15.5286)"/>
<use xlink:href="#stroke0_448_620" transform="translate(42.1835 21.5746) scale(0.00198944) rotate(61.3548)"/>
<use xlink:href="#stroke0_448_620" transform="translate(42.8352 21.941) scale(0.00207037) rotate(124.231)"/>
<use xlink:href="#stroke0_448_620" transform="translate(43.4152 22.5247) scale(0.00344073) rotate(172.316)"/>
<use xlink:href="#stroke0_448_620" transform="translate(42.6145 21.9995) scale(0.00274696) rotate(-43.3219)"/>
<use xlink:href="#stroke0_448_620" transform="translate(43.1403 21.6133) scale(0.00294838) rotate(-9.04144)"/>
<use xlink:href="#stroke0_448_620" transform="translate(43.9731 21.068) scale(0.00358625) rotate(30.7372)"/>
<use xlink:href="#stroke0_448_620" transform="translate(44.1987 22.0146) scale(0.00223721) rotate(-100.884)"/>
<use xlink:href="#stroke0_448_620" transform="translate(45.5309 20.7484) scale(0.00404893) rotate(109.833)"/>
<use xlink:href="#stroke0_448_620" transform="translate(44.2269 20.447) scale(0.00197886) rotate(-15.319)"/>
<use xlink:href="#stroke0_448_620" transform="translate(44.088 19.9661) scale(0.00247882) rotate(-3.02899)"/>
<use xlink:href="#stroke0_448_620" transform="translate(43.8601 20.3677) scale(0.0025852) rotate(-82.0718)"/>
<use xlink:href="#stroke0_448_620" transform="translate(44.5304 20.0134) scale(0.00208735) rotate(172.129)"/>
<use xlink:href="#stroke0_448_620" transform="translate(44.3729 19.4308) scale(0.00212647) rotate(123.277)"/>
<use xlink:href="#stroke0_448_620" transform="translate(44.0407 19.5188) scale(0.00194622) rotate(149.976)"/>
<use xlink:href="#stroke0_448_620" transform="translate(43.9706 19.7274) scale(0.00396118) rotate(164.458)"/>
<use xlink:href="#stroke0_448_620" transform="translate(42.3598 19.5372) scale(0.00215782) rotate(-91.9912)"/>
<use xlink:href="#stroke0_448_620" transform="translate(42.7755 19.4125) scale(0.0020224) rotate(169.523)"/>
<use xlink:href="#stroke0_448_620" transform="translate(41.5484 19.3596) scale(0.00238816) rotate(-71.3999)"/>
<use xlink:href="#stroke0_448_620" transform="translate(42.105 18.4805) scale(0.00330396) rotate(83.5404)"/>
<use xlink:href="#stroke0_448_620" transform="translate(41.7599 18.2909) scale(0.00415506) rotate(80.1756)"/>
<use xlink:href="#stroke0_448_620" transform="translate(6.15111 17.3976) scale(0.00461021) rotate(-1.20752)"/>
<use xlink:href="#stroke0_448_620" transform="translate(5.47411 18.0797) scale(0.00362763) rotate(-32.4315)"/>
<use xlink:href="#stroke0_448_620" transform="translate(6.24492 18.9165) scale(0.00307186) rotate(-174.774)"/>
<use xlink:href="#stroke0_448_620" transform="translate(5.01366 18.2858) scale(0.00184402) rotate(-26.6048)"/>
<use xlink:href="#stroke0_448_620" transform="translate(5.83749 18.8738) scale(0.00403336) rotate(158.107)"/>
<use xlink:href="#stroke0_448_620" transform="translate(4.16945 18.7804) scale(0.0018329) rotate(-79.1361)"/>
<use xlink:href="#stroke0_448_620" transform="translate(4.53589 19.526) scale(0.00377483) rotate(-162.111)"/>
<use xlink:href="#stroke0_448_620" transform="translate(3.19314 19.4869) scale(0.00302905) rotate(-75.8656)"/>
<use xlink:href="#stroke0_448_620" transform="translate(2.93622 20.0822) scale(0.00347294) rotate(-85.1742)"/>
<use xlink:href="#stroke0_448_620" transform="translate(2.35441 20.0091) scale(0.00429898) rotate(-39.1678)"/>
<use xlink:href="#stroke0_448_620" transform="translate(2.96302 21.5453) scale(0.00450291) rotate(-103.312)"/>
<use xlink:href="#stroke0_448_620" transform="translate(4.31823 19.9692) scale(0.00418699) rotate(55.0643)"/>
<use xlink:href="#stroke0_448_620" transform="translate(4.10465 20.189) scale(0.00490402) rotate(6.04004)"/>
<use xlink:href="#stroke0_448_620" transform="translate(4.85104 21.0745) scale(0.00217613) rotate(-37.6386)"/>
<use xlink:href="#stroke0_448_620" transform="translate(6.16594 21.6347) scale(0.00275485) rotate(-177.944)"/>
<use xlink:href="#stroke0_448_620" transform="translate(6.99096 21.3436) scale(0.00345786) rotate(149.03)"/>
<use xlink:href="#stroke0_448_620" transform="translate(7.11251 21.9166) scale(0.00383206) rotate(-158.479)"/>
<use xlink:href="#stroke0_448_620" transform="translate(7.51785 20.9527) scale(0.0037036) rotate(150.546)"/>
<use xlink:href="#stroke0_448_620" transform="translate(5.98758 20.6667) scale(0.00279267) rotate(-85.2666)"/>
<use xlink:href="#stroke0_448_620" transform="translate(7.0983 20.3615) scale(0.00405638) rotate(175.607)"/>
<use xlink:href="#stroke0_448_620" transform="translate(6.17931 20.1165) scale(0.00460053) rotate(-120.826)"/>
<use xlink:href="#stroke0_448_620" transform="translate(6.18059 18.4674) scale(0.00194285) rotate(-28.4322)"/>
<use xlink:href="#stroke0_448_620" transform="translate(7.08735 17.7102) scale(0.0027761) rotate(70.1917)"/>
<use xlink:href="#stroke0_448_620" transform="translate(26.1334 13.0394) scale(0.0021405) rotate(-118.416)"/>
<use xlink:href="#stroke0_448_620" transform="translate(25.3807 12.2904) scale(0.00409373) rotate(-28.8329)"/>
<defs>
<g id="stroke0_448_620" data-figma-scatter-ref="stroke0_448_620_ref" data-figma-scatter="f0.47_w0.01_aj180_sj0.65_r0_s0_sw1">
<path d="M215.823 333.963C215.823 333.23 216.123 332.93 216.49 333.296C216.856 333.663 216.856 334.263 216.49 334.63C216.123 334.996 215.823 334.696 215.823 333.963ZM143.424 3.97701C148.056 3.32404 151.523 8.80284 148.726 12.3588C146.775 14.8388 146.175 17.9633 147.648 17.9633C148.553 17.9667 158.823 30.3033 158.823 31.3862C158.823 32.4623 154.479 36.4974 152.507 37.2544C150.609 37.9824 151.073 39.9631 153.14 39.9633C153.801 39.9633 154.92 40.8881 155.626 42.02C156.91 44.0739 156.912 44.0744 158.617 42.0766C159.555 40.9766 161.223 39.938 162.323 39.77C163.423 39.601 164.653 39.0132 165.057 38.4633C165.472 37.8983 165.798 38.2253 165.807 39.2133C165.825 41.3531 166.254 41.3818 169.215 39.4419C170.838 38.3789 171.405 37.2303 171.099 35.6313C170.05 30.1434 175.963 30.1199 185.501 35.5737C190.79 38.5976 191.028 38.5792 193.164 34.9633C196.187 29.8454 203.13 33.2701 201.316 38.9838C200.801 40.6068 201.133 41.2309 202.733 41.6499C203.883 41.9499 204.823 42.5946 204.823 43.0805C204.824 43.5654 205.723 43.9633 206.823 43.9633C209.228 43.9633 209.333 43.3299 207.269 41.2661C205.332 39.3301 205.758 35.0191 208.025 33.5991C210.469 32.0694 211.11 33.2632 210.001 37.2797C209.157 40.3355 209.276 40.8478 210.928 41.2797C211.97 41.5527 212.823 42.4936 212.823 43.3696C212.824 45.4861 216.745 45.4516 218.302 43.3227C219.936 41.0879 223.264 42.9574 223.298 46.1294C223.32 48.1552 223.883 48.504 227.573 48.77C231.476 49.053 231.823 48.8831 231.823 46.6811C231.823 45.0832 232.672 43.8975 234.37 43.1245C240.164 40.4845 243.457 43.0685 242.282 49.3315C241.655 52.6722 241.655 52.6725 249.407 53.3745C262.73 54.5825 271.108 62.5852 260.323 63.8012C258.673 63.9882 256.79 64.5797 256.14 65.1167C255.368 65.7556 253.636 65.7276 251.14 65.0346C246.476 63.7398 245.823 63.7172 245.823 64.8549C245.823 65.7449 249.37 66.9616 253.515 67.4936C257.329 67.9826 258.042 68.9656 257.379 72.8286C255.795 82.0527 255.841 81.9633 252.685 81.9633C250.953 81.9633 249.964 81.5443 250.323 80.9633C250.663 80.4133 250.517 79.9633 249.999 79.9633C249.48 79.9633 248.821 79.0632 248.533 77.9633C248.217 76.7553 247.169 75.9633 245.885 75.9633C244.716 75.9632 243.46 75.1762 243.092 74.2133C242.404 72.4103 242.246 72.1833 238.753 67.9633C236.684 65.4633 236.684 65.4633 237.262 68.1733C237.705 70.252 237.359 71.1408 235.772 71.9897C232.719 73.6237 233.414 78.5898 236.633 78.1401C237.903 77.9621 239.585 78.3504 240.37 79.0024C241.211 79.7003 242.9 79.9101 244.485 79.5122C246.95 78.8932 247.055 78.9823 245.748 80.5922C244.844 81.7052 244.78 82.0721 245.573 81.5962C246.78 80.8713 247.26 82.2792 247.055 85.9321C247.01 86.7401 248.281 89.181 249.881 91.3569C252.292 94.6349 252.689 95.9524 252.194 99.0434C251.695 102.167 251.943 102.958 253.722 103.911C255.46 104.841 255.656 105.407 254.789 107.026C254.207 108.114 254.046 109.515 254.431 110.14C255.79 112.339 247.804 110.139 243.089 107.016C234.391 101.254 232.358 104.203 234.165 119.963C234.386 121.888 234.142 123.998 233.622 124.653C231.331 127.54 233.14 131.457 236.823 131.585C238.748 131.652 240.773 131.816 241.323 131.95C241.873 132.084 243.093 132.116 244.034 132.022C246.328 131.792 249.862 133.758 249.563 135.098C249.134 137.018 257.14 136.437 263.279 134.102C266.554 132.856 270.042 132.048 271.029 132.307C272.126 132.594 272.823 132.23 272.823 131.37C272.823 130.597 271.923 129.963 270.823 129.963C268.355 129.963 268.291 128.842 270.596 125.996C272.37 123.806 272.37 123.805 274.251 125.884C277.35 129.307 282.41 126.734 280.041 122.94C279.048 121.351 279.46 120.899 283.362 119.295C285.811 118.288 287.817 117.126 287.819 116.713C287.821 116.301 288.262 115.963 288.798 115.963C290.086 115.963 288.981 121.818 287.134 124.78C286.042 126.531 285.967 127.431 286.825 128.466C288.108 130.011 286.599 133.834 284.133 135.288C283.329 135.762 282.984 136.896 283.321 137.957C283.727 139.236 283.296 139.996 281.916 140.434C280.723 140.812 280.144 141.636 280.471 142.488C281.07 144.051 279.303 146.204 276.573 147.238C275.611 147.602 274.823 148.857 274.823 150.027C274.823 152.253 271.493 157.622 268.86 159.642C267.494 160.689 267.518 160.896 269.075 161.499C270.259 161.958 271.465 161.413 272.792 159.821C274.896 157.295 275.458 157.908 273.83 160.952C272.986 162.526 273.289 162.906 275.83 163.464C279.699 164.314 279.894 168.296 276.323 173.558C272.999 178.456 273.141 179.594 277.811 185.463C279.999 188.213 283.258 192.592 285.055 195.195C287.985 199.439 291.823 201.575 291.823 198.963C291.823 198.413 292.858 197.963 294.123 197.963C295.388 197.963 296.869 197.517 297.413 196.973C298.033 196.353 299.563 196.316 301.501 196.872C303.893 197.558 304.97 197.388 306.229 196.128C311.032 191.326 313.154 199.168 308.775 205.533C305.051 210.945 307.295 210.388 312.57 204.592C314.356 202.629 316.421 201.256 317.16 201.54C317.898 201.822 319.08 201.359 319.785 200.509C321.719 198.179 324.72 198.643 326.009 201.472C327.592 204.947 325.832 207.908 318.196 214.612C312.035 220.021 312.035 220.021 314.929 222.915C319.416 227.402 318.437 230.291 311.993 231.58C309.623 232.053 308.701 231.81 308.231 230.585C307.343 228.271 305.535 228.576 302.783 231.505C300.746 233.674 300.577 234.339 301.632 236.028C303.496 239.014 301.66 241.738 298.126 241.228C293.529 240.565 288.418 246.501 289.907 250.775C290.518 252.528 291.537 253.977 292.171 253.994C292.805 254.011 292.532 254.484 291.565 255.048C290.598 255.611 289.399 255.819 288.9 255.511C288.402 255.203 287.764 255.415 287.483 255.982C287.203 256.549 287.108 256.439 287.273 255.738C287.438 255.037 288.155 254.601 288.867 254.769C289.918 255.018 289.921 254.787 288.886 253.54C288.066 252.551 286.49 252.15 284.467 252.416C282.738 252.642 279.973 252.894 278.323 252.974C276.673 253.055 275.886 253.348 276.573 253.625C277.261 253.904 277.823 254.712 277.823 255.424C277.823 256.136 278.498 257.278 279.323 257.963C284.43 262.201 279.156 267.527 267.467 269.94C261.662 271.138 261.616 271.176 262.217 274.181C262.55 275.849 262.823 278.291 262.823 279.609C262.823 281.174 263.663 282.389 265.244 283.109C266.671 283.759 267.448 284.778 267.136 285.59C265.821 289.017 267.765 292.135 270.801 291.468C274.766 290.597 278.421 292.537 276.707 294.602C276.023 295.427 274.625 295.883 273.602 295.615C272.138 295.233 271.87 295.538 272.348 297.046C272.893 298.763 272.429 298.963 267.889 298.963C262.743 298.963 261.095 297.073 265.249 295.935C268.036 295.172 268.4 292.927 265.844 292.258C264.392 291.879 264.055 291.437 264.845 290.949C266.469 289.946 265.098 283.964 263.244 283.963C262.462 283.963 261.823 283.571 261.823 283.091C261.823 282.611 259.972 281.923 257.709 281.561C255.433 281.197 252.864 280.005 251.959 278.892C250.396 276.971 250.314 277.128 250.111 282.423C249.912 287.635 250.039 287.963 252.254 287.963C257.861 287.963 255.961 295.527 250.118 296.465C248.031 296.8 244.838 297.728 243.022 298.527C240.536 299.621 239.219 299.71 237.687 298.89C235.32 297.624 234.327 298.227 235.168 300.42C235.494 301.269 236.844 301.963 238.169 301.963C242.073 301.963 243.244 304.249 241.284 308.04C239.619 311.258 239.618 311.258 228.221 310.647C216.823 310.036 216.823 310.036 216.823 313.065C216.823 321.686 206.244 322.014 203.987 313.463C202.962 309.577 196.547 308.889 196.016 312.607C195.599 315.535 190.787 316.541 190.083 313.848C189.539 311.771 188.717 311.487 187.273 312.878C186.751 313.382 185.198 313.944 183.823 314.128C182.113 314.357 181.221 315.181 181 316.737C180.739 318.581 180.17 318.937 178 318.615C176.528 318.397 175.418 317.764 175.533 317.21C175.649 316.655 174.861 315.403 173.783 314.427C171.902 312.724 171.821 312.729 171.781 314.558C171.757 315.606 170.365 317.588 168.686 318.963C167.007 320.338 164.438 322.475 162.978 323.712C158.062 327.876 154.556 326.427 153.301 319.713C152.916 317.652 152.42 315.964 152.199 315.963C151.978 315.963 148.55 316.863 144.58 317.963C130.056 321.988 115.58 315.43 128.81 310.818C130.467 310.24 131.823 309.373 131.823 308.89C131.823 308.407 130.668 308.452 129.257 308.988C127.134 309.795 126.098 309.512 123.257 307.345C120.118 304.951 118.274 301.888 120.978 303.558C121.694 304.001 121.861 303.833 121.417 303.115C120.368 301.418 116.504 303.691 117.229 305.579C118.04 307.692 114.948 308.516 113.522 306.566C111.691 304.062 106.546 306.574 107.286 309.61C108.627 315.112 101.84 317.769 99.8455 312.524C98.8953 310.026 94.4089 310.708 90.3231 313.97C88.4581 315.459 83.5201 315.529 83.0311 314.074C82.7723 313.306 83.018 312.966 83.5799 313.313C84.1398 313.659 84.5764 313.384 84.5526 312.703C84.3916 308.249 84.9971 307.097 88.0731 306.006C91.7409 304.706 90.1749 302.466 84.8231 301.359C83.4482 301.075 81.5171 300.405 80.5321 299.87C79.5471 299.334 78.3755 299.121 77.9295 299.397C77.4824 299.673 76.2634 299.261 75.2196 298.481C73.4269 297.14 73.453 297.096 75.7069 297.665C77.4798 298.113 77.9663 297.907 77.6033 296.865C77.3352 296.094 76.3745 295.595 75.4686 295.757C74.5637 295.918 73.8231 295.644 73.8231 295.147C73.8225 293.779 67.1263 286.964 65.7821 286.963C64.5191 286.963 65.3358 292.016 66.7508 292.954C68.0246 293.798 67.6327 300.104 66.3377 299.607C65.6809 299.355 65.2149 300.076 65.2537 301.283C65.3377 303.874 62.3307 304.729 61.4256 302.372C61.0686 301.443 61.4731 299.62 62.3231 298.322C63.7468 296.15 63.7284 295.96 62.0955 295.928C61.1204 295.908 59.1988 295.27 57.826 294.51C56.13 293.571 54.9418 293.449 54.1238 294.128C52.5208 295.458 48.5416 294.139 49.1746 292.487C49.7193 291.067 47.2348 286.963 45.8309 286.963C44.5728 286.963 35.8231 278.847 35.8231 277.681C35.8231 277.1 37.4871 276.973 39.9481 277.367C43.78 277.98 44.0342 277.878 43.5272 275.938C43.0782 274.221 43.2342 274.059 44.4022 275.028C46.6741 276.914 46.0406 274.471 43.7127 272.369C42.5527 271.321 40.7375 268.625 39.6795 266.377C37.9885 262.785 29.7573 256.441 24.5213 254.696C21.1893 253.585 27.5839 242.826 31.0379 243.73C32.8048 244.192 33.0357 243.965 32.4178 242.374C31.1828 239.197 31.2554 238.448 32.7684 238.778C35.0593 239.276 38.8227 236.801 38.8231 234.794C38.8231 233.715 39.5439 232.963 40.5779 232.963C43.0149 232.963 45.0996 226.438 43.1737 224.839C42.4307 224.223 41.8231 222.9 41.8231 221.9C41.823 220.899 41.3729 219.803 40.8231 219.463C40.2731 219.123 39.8231 217.945 39.8231 216.845C39.8231 215.745 39.4205 215.093 38.9295 215.397C38.4384 215.7 37.0855 214.04 35.9237 211.706C34.7617 209.372 33.2645 206.563 32.5965 205.463C31.9285 204.363 30.3573 201.785 29.1033 199.734C26.2513 195.07 26.2154 191.993 28.9774 189.028C30.8989 186.965 30.957 186.618 29.5194 185.813C28.6324 185.316 28.1605 184.245 28.4735 183.431C28.8615 182.419 27.9015 181.476 25.4315 180.444C23.4467 179.615 21.786 178.38 21.741 177.7C21.499 174.063 20.5431 170.143 19.2762 167.585C18.4912 166.003 18.1172 163.64 18.4442 162.335C18.8492 160.724 18.6035 159.943 17.6805 159.9C16.9341 159.865 17.347 159.425 18.5975 158.923C21.2044 157.876 20.8038 153.423 17.911 151.294C13.1591 147.798 12.87 147.403 13.4549 145.213C13.7859 143.975 14.834 142.963 15.785 142.963C16.735 142.963 18.3281 142.063 19.3231 140.963C20.3181 139.863 21.5542 138.963 22.0682 138.963C22.5823 138.963 23.847 137.951 24.8787 136.713C26.4927 134.779 26.7609 134.71 26.7899 136.223C26.8079 137.191 25.9229 138.753 24.8231 139.695C22.2852 141.868 22.305 142.594 24.9237 143.279C26.0795 143.582 26.7278 144.308 26.3651 144.896C26.0023 145.483 25.92 145.963 26.1815 145.963C26.4445 145.963 27.4328 146.261 28.3778 146.623C29.5896 147.087 29.9501 146.866 29.6024 145.873C29.0314 144.244 32.5938 138.703 33.7518 139.419C34.1787 139.683 35.3646 139.287 36.3875 138.54C38.4045 137.065 37.003 133.964 34.3192 133.963C32.9872 133.963 30.2179 125.51 30.7147 122.963C30.8767 122.138 30.9536 119.741 30.8856 117.637C30.7766 114.238 31.1058 113.683 33.8338 112.653C35.9678 111.847 36.8578 110.879 36.7528 109.478C36.4928 106.022 36.7888 104.824 37.7537 105.42C38.2657 105.737 38.9407 105.581 39.2547 105.073C39.5679 104.566 40.6568 104.368 41.6746 104.635C44.2356 105.304 47.2646 102.201 45.7879 100.421C44.9809 99.4493 44.9929 98.5137 45.8309 96.9487C46.4608 95.7707 46.7305 94.1671 46.4305 93.3852C46.0505 92.3923 46.6314 91.9633 48.3543 91.9633C49.712 91.9632 50.8228 91.5132 50.8231 90.9633C50.8231 90.4135 50.3871 89.9636 49.8543 89.9633C49.3224 89.9633 49.1449 89.2882 49.4608 88.4633C49.7917 87.6015 49.481 86.9636 48.7303 86.9633C47.7133 86.9633 47.6899 86.6961 48.6229 85.7631C49.2829 85.1031 49.8231 83.8148 49.8231 82.9008C49.8233 81.6241 51.1422 81.0827 55.5067 80.5698C58.6325 80.2028 61.7825 79.411 62.5067 78.81C64.2735 77.3441 64.1799 74.9637 62.3543 74.9633C61.4603 74.9633 61.1108 75.5493 61.4608 76.4633C61.8237 77.4082 61.4499 77.9633 60.45 77.9633C58.464 77.9633 58.8759 72.1768 60.9559 70.8598C64.4336 68.656 58.1944 70.1802 53.6815 72.6362C50.1078 74.581 48.4698 75.0103 47.6688 74.2094C46.9258 73.4665 45.7561 73.4182 44.0643 74.061C39.8403 75.667 37.8231 74.3507 37.8231 69.9907C37.8233 65.514 41.1635 63.0775 53.0731 58.8667C60.4397 56.2628 60.5863 56.0654 58.1824 51.9956C56.1924 48.6276 56.994 44.361 59.7821 43.476C62.4579 42.6272 68.8174 43.9249 68.8377 45.3237C68.8797 48.4517 70.4558 49.1528 74.6307 47.9028C79.0287 46.5848 80.5395 44.5322 78.7215 42.3422C77.8406 41.2803 78.116 40.538 79.9549 39.018C81.9907 37.3362 82.4786 37.2654 83.4324 38.5122C85.3604 41.0312 100.442 37.019 99.3865 34.269C98.521 32.0121 103.808 29.185 104.979 31.2778C106.381 33.7828 109.101 33.326 112.231 30.059C115.014 27.1544 115.014 27.1541 112.856 24.9965C109.082 21.2226 112.1 14.3884 117.416 14.6713C123.005 14.9683 123.68 15.1663 123.238 16.3803C123.021 16.9763 123.233 18.0729 123.708 18.8178C124.754 20.4597 129.376 17.8723 130.306 15.1245C130.615 14.2105 133.671 11.332 137.096 8.72701C140.516 6.12608 143.361 3.99002 143.424 3.97701ZM208.763 322.963C209.345 322.963 209.823 323.413 209.823 323.963C209.823 324.513 209.625 324.963 209.382 324.963C209.139 324.963 208.663 324.513 208.323 323.963C207.983 323.413 208.182 322.964 208.763 322.963ZM116.823 315.345C116.823 314.52 117.273 314.123 117.823 314.463C118.373 314.803 118.823 315.757 118.823 316.582C118.823 317.406 118.373 317.803 117.823 317.463C117.273 317.123 116.823 316.17 116.823 315.345ZM202.323 313.963C202.598 313.963 202.823 314.188 202.823 314.463C202.823 314.738 202.598 314.963 202.323 314.963C202.048 314.963 201.823 314.738 201.823 314.463C201.823 314.188 202.048 313.963 202.323 313.963ZM74.7635 305.963C75.3455 305.963 75.8231 306.413 75.8231 306.963C75.823 307.513 75.6246 307.963 75.3817 307.963C75.1386 307.963 74.6629 307.513 74.3231 306.963C73.9831 306.413 74.1818 305.964 74.7635 305.963ZM71.8231 304.963C72.373 304.963 72.8231 305.413 72.8231 305.963C72.823 306.513 72.3729 306.963 71.8231 306.963C71.2731 306.963 70.8232 306.513 70.8231 305.963C70.8231 305.413 71.2731 304.963 71.8231 304.963ZM131.823 306.07C131.823 304.426 129.038 304.086 127.17 305.5C125.465 306.792 125.573 306.902 128.573 306.931C130.36 306.949 131.823 306.561 131.823 306.07ZM86.8231 303.963C87.5559 303.963 87.856 304.263 87.4901 304.63C87.1231 304.996 86.5231 304.996 86.1561 304.63C85.7901 304.263 86.0901 303.963 86.8231 303.963ZM77.2401 304.042C78.294 303.999 78.8836 304.235 78.5516 304.567C78.2196 304.899 77.3566 304.935 76.6356 304.646C75.838 304.327 76.0752 304.09 77.2401 304.042ZM78.8231 300.963C79.373 300.963 79.8231 301.413 79.8231 301.963C79.823 302.513 79.3729 302.963 78.8231 302.963C78.2731 302.963 77.8232 302.513 77.8231 301.963C77.8231 301.413 78.2731 300.963 78.8231 300.963ZM70.3231 299.963C71.148 299.963 71.8231 300.624 71.8231 301.432C71.8231 302.326 71.2371 302.675 70.3231 302.325C69.4981 302.008 68.8231 301.347 68.8231 300.856C68.8233 300.365 69.4982 299.963 70.3231 299.963ZM69.8231 291.963C70.3727 291.963 70.8226 292.161 70.8231 292.404C70.8231 292.647 70.3731 293.123 69.8231 293.463C69.2731 293.803 68.8231 293.604 68.8231 293.022C68.8232 292.44 69.2731 291.963 69.8231 291.963ZM270.323 285.963C271.148 285.963 271.823 286.133 271.823 286.341C271.823 286.548 271.148 287.279 270.323 287.963C269.094 288.983 268.823 288.914 268.823 287.585C268.823 286.693 269.498 285.963 270.323 285.963ZM275.323 284.963C275.598 284.963 275.823 285.188 275.823 285.463C275.823 285.738 275.598 285.963 275.323 285.963C275.048 285.963 274.823 285.738 274.823 285.463C274.823 285.188 275.048 284.963 275.323 284.963ZM273.515 281.322C274.055 279.913 274.222 279.924 275.064 281.429C276.122 283.319 275.489 284.493 273.932 283.531C273.371 283.182 273.183 282.189 273.515 281.322ZM269.981 280.963C269.981 279.588 270.208 279.026 270.485 279.713C270.763 280.401 270.763 281.526 270.485 282.213C270.208 282.901 269.981 282.338 269.981 280.963ZM272.323 279.963C272.598 279.963 272.823 280.188 272.823 280.463C272.823 280.738 272.598 280.963 272.323 280.963C272.048 280.963 271.823 280.738 271.823 280.463C271.823 280.188 272.048 279.963 272.323 279.963ZM266.479 278.508C266.109 277.545 266.407 277.251 267.374 277.622C269.054 278.267 269.168 278.632 267.928 279.398C267.435 279.703 266.783 279.302 266.479 278.508ZM273.323 277.963C273.598 277.963 273.823 278.188 273.823 278.463C273.823 278.738 273.598 278.963 273.323 278.963C273.048 278.963 272.823 278.738 272.823 278.463C272.823 278.188 273.048 277.963 273.323 277.963ZM312.823 274.963C312.823 274.23 313.123 273.93 313.49 274.296C313.856 274.663 313.856 275.263 313.49 275.63C313.123 275.996 312.823 275.696 312.823 274.963ZM306.823 264.522C306.823 262.765 307.423 262.507 308.28 263.894C308.597 264.406 308.398 265.108 307.839 265.454C307.28 265.798 306.823 265.379 306.823 264.522ZM39.241 257.57C36.868 256.659 36.5506 256.812 37.2156 258.545C37.5496 259.415 37.8231 260.315 37.8231 260.545C37.8235 260.775 38.4984 260.963 39.3231 260.963C41.3139 260.963 41.251 258.341 39.241 257.57ZM294.721 251.963C296.379 251.963 302.87 258.076 302.261 259.064C300.769 261.477 295.519 258.26 294.343 254.213C293.964 252.911 294.123 251.964 294.721 251.963ZM274.323 255.963C274.048 255.963 273.823 256.188 273.823 256.463C273.823 256.738 274.048 256.963 274.323 256.963C274.598 256.963 274.823 256.738 274.823 256.463C274.823 256.188 274.598 255.963 274.323 255.963ZM268.323 252.963C268.048 252.963 267.823 253.188 267.823 253.463C267.823 253.738 268.048 253.963 268.323 253.963C268.598 253.963 268.823 253.738 268.823 253.463C268.823 253.188 268.598 252.963 268.323 252.963ZM266.646 249.296C266.257 247.287 264.26 246.448 263.356 247.911C262.476 249.334 263.598 250.963 265.455 250.963C266.331 250.963 266.833 250.26 266.646 249.296ZM269.323 249.963C269.048 249.963 268.823 250.188 268.823 250.463C268.823 250.738 269.048 250.963 269.323 250.963C269.598 250.963 269.823 250.738 269.823 250.463C269.823 250.188 269.598 249.963 269.323 249.963ZM24.3231 232.963C24.598 232.963 24.8231 233.188 24.8231 233.463C24.823 233.738 24.5979 233.963 24.3231 233.963C24.0481 233.963 23.8232 233.738 23.8231 233.463C23.8231 233.188 24.0481 232.963 24.3231 232.963ZM26.3231 232.963C26.598 232.963 26.8231 233.188 26.8231 233.463C26.823 233.738 26.5979 233.963 26.3231 233.963C26.0481 233.963 25.8232 233.738 25.8231 233.463C25.8231 233.188 26.0481 232.963 26.3231 232.963ZM30.3231 182.963C30.0481 182.963 29.8231 183.188 29.8231 183.463C29.8232 183.738 30.0481 183.963 30.3231 183.963C30.5979 183.963 30.823 183.738 30.8231 183.463C30.8231 183.188 30.598 182.963 30.3231 182.963ZM25.8231 182.963C26.5559 182.963 26.856 183.263 26.4901 183.63C26.1231 183.996 25.5231 183.996 25.1561 183.63C24.7901 183.263 25.0901 182.963 25.8231 182.963ZM24.5418 168.045C24.7068 165.852 23.3077 164.369 22.4237 165.799C22.1289 166.277 22.4496 167.439 23.1375 168.378C24.2905 169.956 24.3998 169.93 24.5418 168.045ZM26.3231 165.963C26.0481 165.963 25.8231 166.188 25.8231 166.463C25.8232 166.738 26.0481 166.963 26.3231 166.963C26.5979 166.963 26.823 166.738 26.8231 166.463C26.8231 166.188 26.598 165.963 26.3231 165.963ZM278.023 154.164C281.374 150.813 285.386 154.145 284.39 159.453C283.619 163.564 281.534 164.032 278.766 160.713C276.583 158.097 276.33 155.857 278.023 154.164ZM0.823065 156.963C1.55594 156.963 1.85603 157.263 1.49006 157.63C1.12312 157.996 0.523086 157.996 0.156073 157.63C-0.209927 157.263 0.0900652 156.963 0.823065 156.963ZM286.917 147.963C287.415 147.963 287.823 148.863 287.823 149.963C287.823 151.063 287.65 151.962 287.44 151.963C287.229 151.963 286.821 151.063 286.533 149.963C286.246 148.863 286.418 147.963 286.917 147.963ZM285.323 145.963C285.598 145.963 285.823 146.188 285.823 146.463C285.823 146.738 285.598 146.963 285.323 146.963C285.048 146.963 284.823 146.738 284.823 146.463C284.823 146.188 285.048 145.963 285.323 145.963ZM293.205 142.963C293.48 142.963 293.983 143.413 294.323 143.963C294.663 144.513 294.716 144.963 294.441 144.963C294.166 144.963 293.663 144.513 293.323 143.963C292.983 143.413 292.93 142.963 293.205 142.963ZM18.6795 133.08C18.8755 133.016 18.7986 133.583 18.5076 134.341C18.2168 135.099 18.5072 136.25 19.1512 136.898C20.0502 137.802 19.7528 137.866 17.8738 137.174C14.8158 136.047 14.1344 134.282 16.5184 133.664C17.5105 133.407 18.4825 133.144 18.6795 133.08ZM27.4901 131.63C28.6061 130.513 29.4901 130.881 29.4901 132.463C29.49 133.288 28.8899 133.963 28.1561 133.963C26.7371 133.963 26.3861 132.734 27.4901 131.63ZM293.763 131.963C294.345 131.963 294.823 132.413 294.823 132.963C294.823 133.513 294.625 133.963 294.382 133.963C294.139 133.963 293.663 133.513 293.323 132.963C292.983 132.413 293.182 131.964 293.763 131.963ZM296.323 132.963C296.598 132.963 296.823 133.188 296.823 133.463C296.823 133.738 296.598 133.963 296.323 133.963C296.048 133.963 295.823 133.738 295.823 133.463C295.823 133.188 296.048 132.963 296.323 132.963ZM20.8231 128.963C21.373 128.963 21.8231 129.638 21.8231 130.463C21.823 131.288 21.3729 131.963 20.8231 131.963C20.2731 131.963 19.8231 131.288 19.8231 130.463C19.8231 129.638 20.2731 128.963 20.8231 128.963ZM302.823 129.091C306.081 127.786 307.823 127.729 307.823 128.928C307.823 130.677 303.932 132.124 302.06 131.07C300.503 130.194 300.582 129.989 302.823 129.091ZM14.3885 125.861C17.5155 124.636 18.4666 124.918 16.4256 126.463C15.3817 127.253 14.062 127.611 13.492 127.258C12.8941 126.889 13.2737 126.298 14.3885 125.861ZM290.882 124.963C291.4 124.963 291.823 125.413 291.823 125.963C291.823 126.513 291.12 126.963 290.263 126.963C289.407 126.963 288.983 126.513 289.323 125.963C289.663 125.413 290.364 124.963 290.882 124.963ZM253.323 104.963C253.048 104.963 252.823 105.188 252.823 105.463C252.823 105.738 253.048 105.963 253.323 105.963C253.598 105.963 253.823 105.738 253.823 105.463C253.823 105.188 253.598 104.963 253.323 104.963ZM38.3231 101.963C38.598 101.963 38.8231 102.188 38.8231 102.463C38.823 102.738 38.5979 102.963 38.3231 102.963C38.0481 102.963 37.8232 102.738 37.8231 102.463C37.8231 102.188 38.0481 101.963 38.3231 101.963ZM43.3231 100.963C43.598 100.963 43.8231 101.188 43.8231 101.463C43.823 101.738 43.5979 101.963 43.3231 101.963C43.0481 101.963 42.8232 101.738 42.8231 101.463C42.8231 101.188 43.0481 100.963 43.3231 100.963ZM32.0731 95.9458C33.86 94.8529 35.9221 94.1854 36.6551 94.4614C37.3872 94.7374 38.7372 94.9995 39.6551 95.0424C40.6539 95.0895 40.8314 95.3207 40.0975 95.6176C39.4238 95.8904 38.6452 95.9673 38.367 95.7885C38.089 95.6095 37.152 96.4753 36.286 97.7133C35.258 99.1803 33.6844 99.9633 31.7654 99.9633C27.9139 99.9632 28.0332 98.4167 32.0731 95.9458ZM260.323 98.9633C260.598 98.9634 260.823 99.1884 260.823 99.4633C260.823 99.7382 260.598 99.9632 260.323 99.9633C260.048 99.9633 259.823 99.7383 259.823 99.4633C259.823 99.1883 260.048 98.9633 260.323 98.9633ZM42.3231 97.9633C42.598 97.9634 42.8231 98.1884 42.8231 98.4633C42.823 98.7382 42.5979 98.9632 42.3231 98.9633C42.0481 98.9633 41.8232 98.7383 41.8231 98.4633C41.8231 98.1883 42.0481 97.9633 42.3231 97.9633ZM54.6434 89.7915C54.2964 87.4396 52.372 86.2652 51.411 87.8198C50.504 89.2878 51.8519 91.9633 53.4998 91.9633C54.4317 91.9633 54.8462 91.1762 54.6434 89.7915ZM239.323 74.9633C239.598 74.9634 239.823 75.1884 239.823 75.4633C239.823 75.7382 239.598 75.9632 239.323 75.9633C239.048 75.9633 238.823 75.7383 238.823 75.4633C238.823 75.1883 239.048 74.9633 239.323 74.9633ZM273.823 72.9594C273.823 72.4464 274.498 72.2376 275.323 72.4946C276.148 72.7526 277.573 73.2036 278.49 73.4965C279.664 73.8715 279.843 74.3424 279.097 75.0883C277.917 76.2677 273.824 74.6152 273.823 72.9594ZM69.8074 71.2133C69.8294 69.4163 68.1488 69.6726 67.4178 71.5766C67.0247 72.6002 66.0719 73.0001 64.8113 72.6704C63.7187 72.3845 62.8236 72.5091 62.8231 72.9477C62.8231 73.3867 64.0183 74.0465 65.4783 74.4135C68.145 75.0822 69.7744 73.878 69.8074 71.2133ZM244.382 68.9633C244.139 68.9636 243.663 69.4135 243.323 69.9633C242.983 70.5132 243.182 70.9631 243.763 70.9633C244.345 70.9633 244.823 70.5133 244.823 69.9633C244.823 69.4133 244.625 68.9633 244.382 68.9633ZM241.323 67.9633C241.048 67.9633 240.823 68.1883 240.823 68.4633C240.823 68.7383 241.048 68.9633 241.323 68.9633C241.598 68.9632 241.823 68.7382 241.823 68.4633C241.823 68.1884 241.598 67.9634 241.323 67.9633ZM144.24 46.0424C143.075 46.0904 142.838 46.327 143.636 46.646C144.357 46.935 145.22 46.8988 145.552 46.5669C145.884 46.2349 145.294 45.9995 144.24 46.0424ZM181.823 43.9633C181.09 43.9633 180.79 44.2633 181.156 44.6303C181.523 44.9962 182.123 44.9963 182.49 44.6303C182.856 44.2634 182.556 43.9634 181.823 43.9633ZM147.345 34.3335C146.209 33.8976 145.532 34.3585 145.147 35.8335C144.84 37.0054 143.967 37.9633 143.206 37.9633C142.446 37.9633 141.823 38.4133 141.823 38.9633C141.823 40.4821 144.417 40.1582 145.823 38.4633C146.508 37.6384 148.111 36.9635 149.386 36.9633C150.661 36.9633 151.983 36.5133 152.323 35.9633C152.663 35.4133 152.051 34.9633 150.964 34.9633C149.876 34.9633 148.247 34.6804 147.345 34.3335ZM138.947 36.6958C137.959 35.7159 137.845 35.8314 138.387 37.2563C138.763 38.2423 139.322 38.7967 139.63 38.4887C139.938 38.1817 139.631 37.3747 138.947 36.6958ZM160.323 29.9633C160.598 29.9634 160.823 30.1884 160.823 30.4633C160.823 30.7382 160.598 30.9632 160.323 30.9633C160.048 30.9633 159.823 30.7382 159.823 30.4633C159.823 30.1883 160.048 29.9633 160.323 29.9633ZM205.823 28.9633C206.556 28.9634 206.856 29.2634 206.49 29.6303C206.123 29.9963 205.523 29.9961 205.156 29.6303C204.79 29.2633 205.09 28.9633 205.823 28.9633ZM210.823 24.9633C211.373 24.9634 211.823 25.161 211.823 25.4038C211.823 25.6468 211.373 26.1233 210.823 26.4633C210.273 26.8033 209.823 26.6039 209.823 26.0219C209.823 25.44 210.273 24.9633 210.823 24.9633ZM176.323 24.9633C176.598 24.9634 176.823 25.1884 176.823 25.4633C176.823 25.7382 176.598 25.9632 176.323 25.9633C176.048 25.9633 175.823 25.7382 175.823 25.4633C175.823 25.1883 176.048 24.9633 176.323 24.9633ZM172.823 18.9633C173.556 18.9634 173.856 19.2634 173.49 19.6303C173.123 19.9963 172.523 19.9961 172.156 19.6303C171.79 19.2633 172.09 18.9633 172.823 18.9633ZM173.823 15.9633C173.823 15.2303 174.123 14.9303 174.49 15.2963C174.856 15.6634 174.856 16.2634 174.49 16.6303C174.123 16.9963 173.823 16.6962 173.823 15.9633ZM208.823 13.9633C209.556 13.9634 209.856 14.2634 209.49 14.6303C209.123 14.9963 208.523 14.9962 208.156 14.6303C207.79 14.2633 208.09 13.9633 208.823 13.9633ZM177.323 12.9633C177.598 12.9634 177.823 13.1884 177.823 13.4633C177.823 13.7382 177.598 13.9632 177.323 13.9633C177.048 13.9633 176.823 13.7382 176.823 13.4633C176.823 13.1883 177.048 12.9633 177.323 12.9633ZM166.323 10.9633C166.598 10.9634 166.823 11.1884 166.823 11.4633C166.823 11.7382 166.598 11.9632 166.323 11.9633C166.048 11.9633 165.823 11.7382 165.823 11.4633C165.823 11.1883 166.048 10.9633 166.323 10.9633ZM175.823 10.9633C175.823 10.2303 176.123 9.93035 176.49 10.2963C176.856 10.6634 176.856 11.2634 176.49 11.6303C176.123 11.9963 175.823 11.6962 175.823 10.9633ZM171.323 9.96334C171.598 9.96343 171.823 10.1884 171.823 10.4633C171.823 10.7382 171.598 10.9632 171.323 10.9633C171.048 10.9633 170.823 10.7382 170.823 10.4633C170.823 10.1883 171.048 9.96334 171.323 9.96334ZM132.382 6.96334C132.625 6.96334 132.823 7.41334 132.823 7.96334C132.823 8.51325 132.345 8.96334 131.763 8.96334C131.182 8.96314 130.983 8.51318 131.323 7.96334C131.663 7.41353 132.139 6.96364 132.382 6.96334ZM122.823 7.96334C123.556 7.96339 123.856 8.26336 123.49 8.63033C123.123 8.99625 122.523 8.99614 122.156 8.63033C121.79 8.26333 122.09 7.96334 122.823 7.96334ZM167.204 2.311C170.133 -0.207938 172.823 -0.770742 172.823 1.13424C172.823 2.86018 169.742 5.96305 168.028 5.96334C167.212 5.96334 166.002 6.70389 165.34 7.60885C164.278 9.06077 164.156 8.98412 164.305 6.95846C164.398 5.69446 165.703 3.603 167.204 2.311Z" fill="#F5C149"/>
</g>
<path id="stroke0_448_620_ref" d="M24.248 9.00879C24.452 8.99211 24.6597 8.99641 24.8633 9.04395C24.8835 9.04884 24.8548 9.08802 24.874 9.0957C24.9974 9.13853 25.1717 9.24728 25.2832 9.08887C25.3673 9.11342 25.4706 9.14846 25.5352 9.20801C25.5757 9.24634 25.5162 9.27303 25.5791 9.27539C25.5934 9.27609 25.5909 9.23396 25.6113 9.2373C25.6187 9.23876 25.6265 9.24031 25.6338 9.24219C25.7084 9.26103 25.7806 9.29872 25.8564 9.30859C25.873 9.31059 25.8821 9.27687 25.8887 9.27148C25.9433 9.23772 25.9744 9.34067 25.9854 9.35254C26.069 9.43512 26.1496 9.44824 26.2432 9.4873C26.2646 9.49633 26.2584 9.44289 26.2793 9.44922C26.3911 9.48739 26.5021 9.53758 26.6006 9.60254C26.6218 9.61698 26.585 9.64527 26.5938 9.6543C26.6352 9.69232 26.6779 9.62771 26.7188 9.66309C26.7274 9.67054 26.7079 9.69956 26.708 9.7041C26.7122 9.76994 26.7704 9.70675 26.7803 9.70605C26.8838 9.72454 26.9065 9.83208 27.001 9.86328C27.012 9.86632 27.0079 9.8161 27.0381 9.82812C27.2433 9.91294 27.4514 10.0343 27.6221 10.1895C27.6476 10.2132 27.6088 10.2268 27.6084 10.2314C27.602 10.302 27.6678 10.2488 27.6807 10.251C27.7705 10.2868 27.789 10.3945 27.9062 10.3682C28.0124 10.4919 28.1683 10.6803 28.1084 10.9307C28.037 11.1818 27.9144 11.3698 27.7441 11.5244C27.7391 11.5254 27.7113 11.4975 27.7041 11.5029C27.62 11.5805 27.6841 11.6015 27.7002 11.7109C27.7034 11.7389 27.595 11.7248 27.584 11.7236C27.5522 11.721 27.5156 11.6674 27.5078 11.6689C27.4474 11.6831 27.6079 11.8081 27.5615 11.8623C27.5579 11.8606 27.5367 11.8321 27.5303 11.834C27.5101 11.8404 27.5085 11.8637 27.4873 11.8682C27.4371 11.8776 27.3551 11.8198 27.3545 11.9033C27.3547 11.9144 27.4467 11.9881 27.3975 12.0293C27.3777 12.0462 27.2965 12.124 27.2676 12.1387C27.2394 12.1529 27.2303 12.111 27.2275 12.1113C27.143 12.126 27.1404 12.1012 27.0859 12.0732C27.0758 12.0817 27.065 12.0894 27.0547 12.0977C27.0744 12.1294 27.1054 12.1698 27.1055 12.1836C27.1041 12.2096 27.03 12.2149 27.0098 12.2119C26.9901 12.2086 26.9897 12.1785 26.9746 12.1797C26.8761 12.1871 26.9948 12.2728 26.9873 12.3125C26.9665 12.4066 26.8487 12.3283 26.79 12.3477C26.775 12.3533 26.7996 12.3718 26.7891 12.3818C26.742 12.4208 26.691 12.4026 26.6465 12.4658C26.6396 12.4774 26.6206 12.5707 26.5645 12.5332C26.5568 12.527 26.5563 12.4929 26.5303 12.4961C26.4908 12.5011 26.425 12.5182 26.3896 12.541C26.3825 12.5459 26.3809 12.5526 26.3818 12.5596C26.816 12.5503 27.3001 12.5637 27.8252 12.6133C28.966 12.7211 30.8766 13.0156 32.9307 13.5508C34.8522 14.0515 36.9319 14.7709 38.6309 15.7627L38.9648 15.9648L38.9736 15.9697L38.9824 15.9756C39.2038 16.127 39.549 16.3735 39.8672 16.6221C40.0259 16.7461 40.1838 16.8751 40.3174 16.9951C40.3704 17.0428 40.4245 17.0959 40.4766 17.1484C41.2231 17.1432 42.2802 17.2022 43.292 17.3965C43.8536 17.5044 44.4176 17.6568 44.9121 17.8711C45.4014 18.0834 45.8627 18.374 46.1748 18.7764C47.2631 20.1814 47.02 21.8198 46.7461 22.5186C46.5591 23.2629 45.5958 24.1055 43.585 24.0762C41.9769 24.0527 40.8541 24.5258 40.3809 24.8164C40.2579 26.5107 40.0242 29.641 39.9531 30.1211C39.8429 30.8628 38.9822 33.7743 34.8203 35.916C32.7304 36.9913 29.0395 37.873 24.9795 38.0537C20.9134 38.2346 16.3979 37.7159 12.6699 35.9219L12.6543 35.9141L12.6387 35.9053C11.9533 35.5141 10.8888 34.7722 9.88281 33.7988C8.88088 32.8291 7.8976 31.5919 7.43164 30.207L7.41797 30.166L7.41113 30.1221C7.28833 29.3032 7.05459 26.96 7.04102 23.8564C6.86834 23.7528 6.65494 23.6315 6.43555 23.5244C6.08776 23.3548 5.79577 23.252 5.63281 23.2402C5.2854 23.2155 4.2549 23.1182 3.28711 22.9121C2.80671 22.8097 2.31313 22.6743 1.92188 22.4961C1.72699 22.4072 1.53246 22.2966 1.37598 22.1572C1.21984 22.0179 1.06578 21.8161 1.02734 21.5488C0.951001 21.0151 1.03486 20.0755 1.30957 19.2236C1.57474 18.4016 2.09261 17.4337 3.04492 17.1699C3.13267 17.1456 3.2237 17.1206 3.31641 17.0947C3.98884 16.9071 4.79351 16.6818 5.59863 16.5352C6.30846 16.4059 7.05419 16.3311 7.73633 16.4082C8.42961 15.7915 9.48139 15.2879 10.623 14.874C11.8916 14.4142 13.3441 14.0395 14.708 13.7451C16.0739 13.4504 17.3638 13.2332 18.3105 13.0898C18.7839 13.0182 19.1736 12.9652 19.4443 12.9297C19.5792 12.912 19.6855 12.8985 19.7578 12.8896C19.7934 12.8853 19.822 12.8821 19.8408 12.8799C19.8497 12.8788 19.8575 12.8775 19.8623 12.877C19.8644 12.8767 19.8669 12.8762 19.8682 12.876H19.8701L19.8994 12.873H22.5859C22.5152 12.7792 22.4331 12.6772 22.333 12.5703C22.2412 12.4723 22.1503 12.3956 22.0635 12.332C22.0433 12.3424 22.0196 12.3541 22.0117 12.3486C21.9923 12.3328 21.9973 12.2955 21.9824 12.2832C21.9202 12.2314 21.8392 12.2219 21.7715 12.1885C21.7576 12.1814 21.7571 12.1697 21.7549 12.1582C21.7312 12.1488 21.7078 12.1405 21.6846 12.1328C21.6664 12.1358 21.6472 12.1375 21.627 12.1201C21.6255 12.1188 21.6254 12.116 21.624 12.1143C21.5528 12.0945 21.4838 12.0821 21.417 12.0732C21.4095 12.0807 21.4138 12.1074 21.4092 12.1113C21.3866 12.1247 21.3685 12.0963 21.3467 12.1123C21.3416 12.1176 21.3383 12.1485 21.334 12.1533C21.2968 12.1956 21.2471 12.122 21.2373 12.1084C21.2033 12.059 21.1827 12.0982 21.1553 12.0781C21.1421 12.0684 21.1451 12.0579 21.1484 12.0488C21.0224 12.0412 20.907 12.0316 20.8018 11.9941C20.7805 11.9905 20.758 11.9934 20.7305 12.0195C20.7365 11.9983 20.7372 11.9803 20.7402 11.9668C20.7257 11.9596 20.7104 11.954 20.6963 11.9453C20.6749 11.9571 20.6518 11.9649 20.6338 11.9336C20.6331 11.9306 20.6401 11.9215 20.6484 11.9092C20.6124 11.8808 20.5777 11.8471 20.5449 11.8047C20.5349 11.8804 20.4883 11.9327 20.4297 11.8369C20.4165 11.8121 20.5118 11.8543 20.5029 11.8154C20.4906 11.7502 20.3747 11.7685 20.3955 11.6807C20.3979 11.6738 20.4319 11.6752 20.4648 11.6787C20.4602 11.67 20.4538 11.6615 20.4492 11.6523C20.4412 11.6451 20.434 11.6367 20.4258 11.6289C20.3682 11.684 20.3052 11.7393 20.2539 11.8027C20.2396 11.8223 20.3086 11.8513 20.2383 11.8662C20.231 11.866 20.1809 11.8453 20.1582 11.8496C20.142 11.8534 20.1236 11.8948 20.0977 11.8936C20.0723 11.8917 20.0817 11.8512 20.0459 11.8418C20.0091 11.8322 19.9809 11.8753 19.9336 11.8281C19.824 11.7184 19.7204 11.531 19.6768 11.3594C19.6632 11.306 19.6974 11.3231 19.6904 11.2861C19.6774 11.2135 19.6484 11.1459 19.6504 11.0654C19.6515 11.0391 19.6966 11.0655 19.6973 11.0391C19.7004 10.895 19.7056 10.7427 19.7715 10.6016C19.8963 10.3396 20.1041 10.1951 20.2871 10.0986C20.5658 9.95874 20.8329 9.85261 21.1123 9.75C21.2577 9.69706 21.449 9.6644 21.5918 9.5957C21.6083 9.58771 21.5869 9.55802 21.5879 9.55273C21.6252 9.49043 21.6334 9.56494 21.6699 9.56348C21.8183 9.55252 21.9726 9.50553 22.0996 9.45117C22.1533 9.42778 22.0766 9.37542 22.1445 9.39648C22.1492 9.3979 22.1471 9.43906 22.1631 9.43945C22.2004 9.43768 22.2643 9.41166 22.293 9.40625C22.3471 9.39681 22.3571 9.39342 22.4062 9.37988C22.4741 9.36165 22.5612 9.35852 22.6318 9.33105C22.6465 9.32493 22.6169 9.29173 22.6387 9.27832C22.6619 9.26524 22.7299 9.25143 22.7549 9.25488C22.7792 9.25857 22.7777 9.29138 22.7832 9.29785C22.8291 9.34749 22.8851 9.25222 22.8965 9.24414C23.0698 9.16716 23.2373 9.18102 23.4092 9.15039C23.5395 9.12701 23.6787 9.08984 23.8057 9.07617C23.9563 9.06027 24.0874 9.06999 24.2344 9.05762C24.2497 9.05637 24.2298 9.01111 24.248 9.00879ZM41.1904 19.083C41.4727 19.5225 40.8956 21.228 40.5713 22.0264H43.7822C45.0836 21.6926 44.7172 20.4651 44.1738 19.75C43.7388 19.1782 42.0038 19.0672 41.1904 19.083ZM6.91992 18.1533C6.4732 18.2407 5.38499 18.4388 4.60645 18.5342C3.82806 18.6297 3.3889 19.8609 3.2666 20.4648C4.29813 21.3035 6.13194 21.2125 6.91992 21.0615C5.95939 19.7555 6.51963 18.5787 6.91992 18.1533ZM26.2822 12.5615C26.3071 12.5608 26.3322 12.5611 26.3574 12.5605C26.3545 12.5553 26.3498 12.5513 26.3398 12.5508C26.3258 12.5503 26.3048 12.5568 26.2822 12.5615Z"/>
</defs>
</svg>
