<svg width="300" height="300" viewBox="0 0 300 300" fill="none" xmlns="http://www.w3.org/2000/svg" xmlns:xlink="http://www.w3.org/1999/xlink">
<path d="M150.422 14.3203C151.584 14.1102 152.782 14 154.004 14H243.846C249.625 14.0003 254.2 18.8841 253.825 24.6504L237.404 276.65C237.061 281.909 232.695 286 227.425 286H154.004C152.782 286 151.584 285.889 150.422 285.679V286H71.1714C65.8668 286 61.4849 281.858 61.187 276.562L47.0161 24.5615C46.6936 18.8271 51.257 14.0001 57.0005 14H150.422V14.3203ZM130.743 180.34C125.32 174.077 115.846 173.396 109.583 178.818L88.394 197.166C82.1314 202.589 81.4509 212.061 86.8735 218.324L103.65 237.7C109.073 243.963 118.545 244.643 124.808 239.221L145.999 220.874C152.261 215.451 152.942 205.978 147.519 199.715L130.743 180.34ZM205.669 123.816C197.182 116.747 184.571 117.897 177.501 126.384L156.625 151.445C149.556 159.932 150.706 172.544 159.193 179.613L174.956 192.743C183.443 199.812 196.053 198.663 203.123 190.176L223.999 165.114C231.068 156.627 229.919 144.016 221.432 136.946L205.669 123.816ZM108.532 111.429C103.344 109.535 97.6032 112.206 95.7095 117.394L88.8511 136.182C86.9577 141.37 89.629 147.11 94.8169 149.004L121.12 158.604C126.308 160.498 132.048 157.828 133.942 152.64L140.799 133.853C142.693 128.664 140.022 122.923 134.834 121.029L108.532 111.429Z" fill="black"/>
<use xlink:href="#stroke0_403_1007" transform="translate(150.63 18.5797) scale(0.0182373) rotate(-138.507)"/>
<use xlink:href="#stroke0_403_1007" transform="translate(150.399 13.0751) scale(0.0108653) rotate(-27.802)"/>
<use xlink:href="#stroke0_403_1007" transform="translate(156.629 15.374) scale(0.0111062) rotate(174.838)"/>
<use xlink:href="#stroke0_403_1007" transform="translate(157.381 10.1523) scale(0.0151586) rotate(53.0198)"/>
<use xlink:href="#stroke0_403_1007" transform="translate(160.459 16.0665) scale(0.0115047) rotate(-166.99)"/>
<use xlink:href="#stroke0_403_1007" transform="translate(161.248 16.5527) scale(0.0110055) rotate(-142.655)"/>
<use xlink:href="#stroke0_403_1007" transform="translate(162.037 11.3068) scale(0.0134755) rotate(26.9586)"/>
<use xlink:href="#stroke0_403_1007" transform="translate(170.771 15.5493) scale(0.0215338) rotate(148.524)"/>
<use xlink:href="#stroke0_403_1007" transform="translate(165.062 11.5171) scale(0.0228077) rotate(-13.6854)"/>
<use xlink:href="#stroke0_403_1007" transform="translate(173.476 17.4332) scale(0.0139713) rotate(-150.433)"/>
<use xlink:href="#stroke0_403_1007" transform="translate(180.522 18.1516) scale(0.0255435) rotate(174.129)"/>
<use xlink:href="#stroke0_403_1007" transform="translate(174.888 14.4883) scale(0.0211295) rotate(-48.6589)"/>
<use xlink:href="#stroke0_403_1007" transform="translate(184.961 14.6448) scale(0.0112513) rotate(156.094)"/>
<use xlink:href="#stroke0_403_1007" transform="translate(191.603 16.4345) scale(0.0269763) rotate(154.98)"/>
<use xlink:href="#stroke0_403_1007" transform="translate(189.577 16.4994) scale(0.0123957) rotate(-147.593)"/>
<use xlink:href="#stroke0_403_1007" transform="translate(191.978 20.801) scale(0.0286389) rotate(-132.128)"/>
<use xlink:href="#stroke0_403_1007" transform="translate(197.724 12.5299) scale(0.0109953) rotate(96.3028)"/>
<use xlink:href="#stroke0_403_1007" transform="translate(202.583 12.3325) scale(0.020043) rotate(110.883)"/>
<use xlink:href="#stroke0_403_1007" transform="translate(198.363 15.9967) scale(0.0137884) rotate(-77.672)"/>
<use xlink:href="#stroke0_403_1007" transform="translate(200.501 13.9517) scale(0.0117165) rotate(-39.0435)"/>
<use xlink:href="#stroke0_403_1007" transform="translate(201.061 15.4771) scale(0.0219908) rotate(-60.6717)"/>
<use xlink:href="#stroke0_403_1007" transform="translate(204.936 16.7662) scale(0.0243406) rotate(-75.2672)"/>
<use xlink:href="#stroke0_403_1007" transform="translate(212.559 17.9806) scale(0.0180252) rotate(-124.005)"/>
<use xlink:href="#stroke0_403_1007" transform="translate(219.108 17.7773) scale(0.019676) rotate(-169.422)"/>
<use xlink:href="#stroke0_403_1007" transform="translate(221.951 11.7675) scale(0.0148876) rotate(90.6261)"/>
<use xlink:href="#stroke0_403_1007" transform="translate(224.656 15.1098) scale(0.0134202) rotate(158.29)"/>
<use xlink:href="#stroke0_403_1007" transform="translate(220.924 14.2293) scale(0.0131889) rotate(-43.3407)"/>
<use xlink:href="#stroke0_403_1007" transform="translate(231.33 16.2115) scale(0.0216258) rotate(163.21)"/>
<use xlink:href="#stroke0_403_1007" transform="translate(232.011 15.926) scale(0.0121087) rotate(170.018)"/>
<use xlink:href="#stroke0_403_1007" transform="translate(229.306 12.076) scale(0.0131396) rotate(-10.4827)"/>
<use xlink:href="#stroke0_403_1007" transform="translate(235.359 10.4078) scale(0.0168751) rotate(59.6275)"/>
<use xlink:href="#stroke0_403_1007" transform="translate(239.486 9.95271) scale(0.0203181) rotate(70.1765)"/>
<use xlink:href="#stroke0_403_1007" transform="translate(242.582 14.0161) scale(0.0109833) rotate(130.81)"/>
<use xlink:href="#stroke0_403_1007" transform="translate(245.147 15.5397) scale(0.0147624) rotate(164.441)"/>
<use xlink:href="#stroke0_403_1007" transform="translate(240.256 15.4969) scale(0.0216608) rotate(-59.8179)"/>
<use xlink:href="#stroke0_403_1007" transform="translate(251.015 13.7309) scale(0.0136383) rotate(113.729)"/>
<use xlink:href="#stroke0_403_1007" transform="translate(253.032 19.662) scale(0.0187281) rotate(-171.589)"/>
<use xlink:href="#stroke0_403_1007" transform="translate(258.276 22.5512) scale(0.0270962) rotate(166.862)"/>
<use xlink:href="#stroke0_403_1007" transform="translate(256.392 21.6536) scale(0.0116295) rotate(120.233)"/>
<use xlink:href="#stroke0_403_1007" transform="translate(258.329 26.1862) scale(0.0194383) rotate(150.576)"/>
<use xlink:href="#stroke0_403_1007" transform="translate(250.466 27.908) scale(0.012577) rotate(-52.8081)"/>
<use xlink:href="#stroke0_403_1007" transform="translate(256.869 27.3152) scale(0.0196601) rotate(94.9334)"/>
<use xlink:href="#stroke0_403_1007" transform="translate(253.289 29.4239) scale(0.01636) rotate(41.6981)"/>
<use xlink:href="#stroke0_403_1007" transform="translate(248.712 41.2217) scale(0.0267462) rotate(-90.4123)"/>
<use xlink:href="#stroke0_403_1007" transform="translate(258.635 40.6702) scale(0.0240619) rotate(130.379)"/>
<use xlink:href="#stroke0_403_1007" transform="translate(249.308 47.1332) scale(0.0185451) rotate(-81.5232)"/>
<use xlink:href="#stroke0_403_1007" transform="translate(250.279 42.2018) scale(0.027865) rotate(27.1389)"/>
<use xlink:href="#stroke0_403_1007" transform="translate(256.492 49.2112) scale(0.0250348) rotate(96.2067)"/>
<use xlink:href="#stroke0_403_1007" transform="translate(247.62 61.7323) scale(0.0261667) rotate(-95.2857)"/>
<use xlink:href="#stroke0_403_1007" transform="translate(256.038 60.1251) scale(0.0187937) rotate(125.005)"/>
<use xlink:href="#stroke0_403_1007" transform="translate(255.376 63.8951) scale(0.0163318) rotate(136.378)"/>
<use xlink:href="#stroke0_403_1007" transform="translate(245.274 69.5661) scale(0.0262293) rotate(-67.7185)"/>
<use xlink:href="#stroke0_403_1007" transform="translate(249.303 66.9338) scale(0.0193409) rotate(20.7584)"/>
<use xlink:href="#stroke0_403_1007" transform="translate(253.016 71.2689) scale(0.015127) rotate(85.5214)"/>
<use xlink:href="#stroke0_403_1007" transform="translate(255.469 79.2785) scale(0.0247604) rotate(155.149)"/>
<use xlink:href="#stroke0_403_1007" transform="translate(251.681 83.5611) scale(0.0147003) rotate(-163.199)"/>
<use xlink:href="#stroke0_403_1007" transform="translate(249.424 86.7479) scale(0.0159183) rotate(-129.013)"/>
<use xlink:href="#stroke0_403_1007" transform="translate(250.319 92.2088) scale(0.024747) rotate(-140.546)"/>
<use xlink:href="#stroke0_403_1007" transform="translate(245.437 88.6441) scale(0.0170148) rotate(-27.5041)"/>
<use xlink:href="#stroke0_403_1007" transform="translate(253.266 91.8434) scale(0.0155574) rotate(121.671)"/>
<use xlink:href="#stroke0_403_1007" transform="translate(254.266 96.3051) scale(0.0220058) rotate(140.64)"/>
<use xlink:href="#stroke0_403_1007" transform="translate(245.716 99.2568) scale(0.0152281) rotate(-52.2868)"/>
<use xlink:href="#stroke0_403_1007" transform="translate(244.42 102.541) scale(0.017788) rotate(-59.467)"/>
<use xlink:href="#stroke0_403_1007" transform="translate(253.612 104.113) scale(0.0226937) rotate(125.488)"/>
<use xlink:href="#stroke0_403_1007" transform="translate(252.372 104.802) scale(0.0249969) rotate(89.8683)"/>
<use xlink:href="#stroke0_403_1007" transform="translate(241.483 112.429) scale(0.0267563) rotate(-38.8355)"/>
<use xlink:href="#stroke0_403_1007" transform="translate(251.181 115.401) scale(0.0149794) rotate(112.944)"/>
<use xlink:href="#stroke0_403_1007" transform="translate(245.416 122.915) scale(0.0178806) rotate(-102.851)"/>
<use xlink:href="#stroke0_403_1007" transform="translate(243.239 117.747) scale(0.0293711) rotate(8.49513)"/>
<use xlink:href="#stroke0_403_1007" transform="translate(245.223 124.866) scale(0.0126963) rotate(-4.04787)"/>
<use xlink:href="#stroke0_403_1007" transform="translate(246.543 123.939) scale(0.0263976) rotate(38.7452)"/>
<use xlink:href="#stroke0_403_1007" transform="translate(249.783 139.585) scale(0.0263788) rotate(-169.143)"/>
<use xlink:href="#stroke0_403_1007" transform="translate(248.667 140.609) scale(0.0142937) rotate(-170.262)"/>
<use xlink:href="#stroke0_403_1007" transform="translate(243.843 140.521) scale(0.0120462) rotate(-55.45)"/>
<use xlink:href="#stroke0_403_1007" transform="translate(242.803 142.019) scale(0.0130941) rotate(-44.3367)"/>
<use xlink:href="#stroke0_403_1007" transform="translate(243.476 144.335) scale(0.0120713) rotate(-48.0283)"/>
<use xlink:href="#stroke0_403_1007" transform="translate(241.574 145.107) scale(0.0183937) rotate(-23.752)"/>
<use xlink:href="#stroke0_403_1007" transform="translate(246.503 146.732) scale(0.0111824) rotate(64.5393)"/>
<use xlink:href="#stroke0_403_1007" transform="translate(246.538 154.873) scale(0.0152057) rotate(-148.022)"/>
<use xlink:href="#stroke0_403_1007" transform="translate(243.601 149.242) scale(0.0249777) rotate(24.5431)"/>
<use xlink:href="#stroke0_403_1007" transform="translate(239.575 158.833) scale(0.0249517) rotate(-45.1117)"/>
<use xlink:href="#stroke0_403_1007" transform="translate(245.864 166.999) scale(0.0196383) rotate(-150.863)"/>
<use xlink:href="#stroke0_403_1007" transform="translate(242.691 163.805) scale(0.0116236) rotate(-14.8643)"/>
<use xlink:href="#stroke0_403_1007" transform="translate(248.32 172.195) scale(0.0235103) rotate(-177.658)"/>
<use xlink:href="#stroke0_403_1007" transform="translate(250.312 173.946) scale(0.0257636) rotate(151.024)"/>
<use xlink:href="#stroke0_403_1007" transform="translate(242.807 171.817) scale(0.0179602) rotate(27.0148)"/>
<use xlink:href="#stroke0_403_1007" transform="translate(242.93 186.422) scale(0.0288933) rotate(-128.424)"/>
<use xlink:href="#stroke0_403_1007" transform="translate(241.22 182.316) scale(0.0111647) rotate(-29.1878)"/>
<use xlink:href="#stroke0_403_1007" transform="translate(242.539 187.369) scale(0.0109794) rotate(-122.787)"/>
<use xlink:href="#stroke0_403_1007" transform="translate(242.439 190.519) scale(0.01507) rotate(-128.028)"/>
<use xlink:href="#stroke0_403_1007" transform="translate(242.323 191.839) scale(0.0113509) rotate(-126.13)"/>
<use xlink:href="#stroke0_403_1007" transform="translate(238.502 194.328) scale(0.0224152) rotate(-71.2276)"/>
<use xlink:href="#stroke0_403_1007" transform="translate(241.86 199.625) scale(0.0183482) rotate(-122.645)"/>
<use xlink:href="#stroke0_403_1007" transform="translate(241.782 201.587) scale(0.0150054) rotate(-119.01)"/>
<use xlink:href="#stroke0_403_1007" transform="translate(240.465 203.721) scale(0.0150308) rotate(-105.054)"/>
<use xlink:href="#stroke0_403_1007" transform="translate(245.8 199.769) scale(0.024281) rotate(86.73)"/>
<use xlink:href="#stroke0_403_1007" transform="translate(243.012 213.082) scale(0.0228488) rotate(-148.933)"/>
<use xlink:href="#stroke0_403_1007" transform="translate(240.063 213.252) scale(0.0122585) rotate(-104.767)"/>
<use xlink:href="#stroke0_403_1007" transform="translate(241.478 207.855) scale(0.0264202) rotate(42.4497)"/>
<use xlink:href="#stroke0_403_1007" transform="translate(243.639 218.762) scale(0.0111508) rotate(172.218)"/>
<use xlink:href="#stroke0_403_1007" transform="translate(238.999 215.902) scale(0.0181009) rotate(14.3297)"/>
<use xlink:href="#stroke0_403_1007" transform="translate(244.549 224.467) scale(0.0168685) rotate(164.381)"/>
<use xlink:href="#stroke0_403_1007" transform="translate(243.094 221.451) scale(0.0194461) rotate(70.9837)"/>
<use xlink:href="#stroke0_403_1007" transform="translate(237.365 226.878) scale(0.0146111) rotate(-20.8105)"/>
<use xlink:href="#stroke0_403_1007" transform="translate(238.654 235.115) scale(0.0190911) rotate(-108.533)"/>
<use xlink:href="#stroke0_403_1007" transform="translate(235.163 233.972) scale(0.0223352) rotate(-39.0471)"/>
<use xlink:href="#stroke0_403_1007" transform="translate(241.693 238.952) scale(0.0109475) rotate(174.042)"/>
<use xlink:href="#stroke0_403_1007" transform="translate(242.431 235.234) scale(0.0241557) rotate(71.6193)"/>
<use xlink:href="#stroke0_403_1007" transform="translate(234.81 241.96) scale(0.0226266) rotate(-21.3634)"/>
<use xlink:href="#stroke0_403_1007" transform="translate(239.4 244.217) scale(0.0119275) rotate(49.9949)"/>
<use xlink:href="#stroke0_403_1007" transform="translate(236.053 246.374) scale(0.0199827) rotate(-0.833798)"/>
<use xlink:href="#stroke0_403_1007" transform="translate(238.96 249.47) scale(0.012296) rotate(42.5343)"/>
<use xlink:href="#stroke0_403_1007" transform="translate(239.954 257.48) scale(0.0138806) rotate(-159.198)"/>
<use xlink:href="#stroke0_403_1007" transform="translate(238.85 259.477) scale(0.0120878) rotate(-141.323)"/>
<use xlink:href="#stroke0_403_1007" transform="translate(240.276 261.111) scale(0.0130696) rotate(-175.067)"/>
<use xlink:href="#stroke0_403_1007" transform="translate(233.574 260.283) scale(0.0201065) rotate(-30.6862)"/>
<use xlink:href="#stroke0_403_1007" transform="translate(232.355 262.442) scale(0.0275173) rotate(-17.6415)"/>
<use xlink:href="#stroke0_403_1007" transform="translate(237.462 265.798) scale(0.0133344) rotate(34.9922)"/>
<use xlink:href="#stroke0_403_1007" transform="translate(233.177 275.412) scale(0.023874) rotate(-84.0041)"/>
<use xlink:href="#stroke0_403_1007" transform="translate(240.964 276.801) scale(0.0152218) rotate(160.49)"/>
<use xlink:href="#stroke0_403_1007" transform="translate(234.58 273.141) scale(0.026601) rotate(18.2009)"/>
<use xlink:href="#stroke0_403_1007" transform="translate(230.334 286.036) scale(0.0252568) rotate(-84.3779)"/>
<use xlink:href="#stroke0_403_1007" transform="translate(233.231 281.623) scale(0.0111538) rotate(57.9636)"/>
<use xlink:href="#stroke0_403_1007" transform="translate(233.442 280.292) scale(0.0274665) rotate(78.5501)"/>
<use xlink:href="#stroke0_403_1007" transform="translate(224.483 283.171) scale(0.0144605) rotate(10.0647)"/>
<use xlink:href="#stroke0_403_1007" transform="translate(221.531 286.827) scale(0.0117866) rotate(-60.2643)"/>
<use xlink:href="#stroke0_403_1007" transform="translate(223.769 288.394) scale(0.0126394) rotate(-168.578)"/>
<use xlink:href="#stroke0_403_1007" transform="translate(221.334 290.986) scale(0.0245855) rotate(-158.959)"/>
<use xlink:href="#stroke0_403_1007" transform="translate(215.123 288.785) scale(0.0131915) rotate(-120.739)"/>
<use xlink:href="#stroke0_403_1007" transform="translate(212.604 289.085) scale(0.0150407) rotate(-119.791)"/>
<use xlink:href="#stroke0_403_1007" transform="translate(208.512 287.122) scale(0.0131786) rotate(-74.2512)"/>
<use xlink:href="#stroke0_403_1007" transform="translate(208.149 283.75) scale(0.011602) rotate(22.4967)"/>
<use xlink:href="#stroke0_403_1007" transform="translate(202.951 291.015) scale(0.0245657) rotate(-101.948)"/>
<use xlink:href="#stroke0_403_1007" transform="translate(206.281 288.788) scale(0.0212399) rotate(171.586)"/>
<use xlink:href="#stroke0_403_1007" transform="translate(194.792 291.656) scale(0.0290718) rotate(-106.2)"/>
<use xlink:href="#stroke0_403_1007" transform="translate(191.848 285.122) scale(0.0128652) rotate(-24.3147)"/>
<use xlink:href="#stroke0_403_1007" transform="translate(190.724 282.769) scale(0.0145941) rotate(15.5944)"/>
<use xlink:href="#stroke0_403_1007" transform="translate(190.387 291.515) scale(0.0232081) rotate(-148.189)"/>
<use xlink:href="#stroke0_403_1007" transform="translate(187.272 291.476) scale(0.0260343) rotate(-156.475)"/>
<use xlink:href="#stroke0_403_1007" transform="translate(177.793 286.672) scale(0.0164825) rotate(-56.9008)"/>
<use xlink:href="#stroke0_403_1007" transform="translate(181.304 288.49) scale(0.0134424) rotate(179.304)"/>
<use xlink:href="#stroke0_403_1007" transform="translate(179.645 289.805) scale(0.0218814) rotate(-178.934)"/>
<use xlink:href="#stroke0_403_1007" transform="translate(178.486 283.957) scale(0.0293823) rotate(118.579)"/>
<use xlink:href="#stroke0_403_1007" transform="translate(171.228 290.79) scale(0.0266163) rotate(-175.93)"/>
<use xlink:href="#stroke0_403_1007" transform="translate(166.787 285.441) scale(0.0126338) rotate(118.724)"/>
<use xlink:href="#stroke0_403_1007" transform="translate(163.875 291.599) scale(0.0262292) rotate(-166.842)"/>
<use xlink:href="#stroke0_403_1007" transform="translate(154.321 290.362) scale(0.0216671) rotate(-107.492)"/>
<use xlink:href="#stroke0_403_1007" transform="translate(155.28 281.676) scale(0.0216466) rotate(69.8195)"/>
<use xlink:href="#stroke0_403_1007" transform="translate(151.504 281.846) scale(0.0190793) rotate(63.1767)"/>
<use xlink:href="#stroke0_403_1007" transform="translate(149.429 283.451) scale(0.0136633) rotate(85.2785)"/>
<use xlink:href="#stroke0_403_1007" transform="translate(143.416 288.14) scale(0.0115472) rotate(-93.3938)"/>
<use xlink:href="#stroke0_403_1007" transform="translate(146.091 285.104) scale(0.0125721) rotate(121.377)"/>
<use xlink:href="#stroke0_403_1007" transform="translate(144.147 287.011) scale(0.0136481) rotate(147.634)"/>
<use xlink:href="#stroke0_403_1007" transform="translate(139.599 290.234) scale(0.0179846) rotate(-152.161)"/>
<use xlink:href="#stroke0_403_1007" transform="translate(138.734 287.824) scale(0.0153783) rotate(164.602)"/>
<use xlink:href="#stroke0_403_1007" transform="translate(133.867 281.589) scale(0.0193983) rotate(58.7475)"/>
<use xlink:href="#stroke0_403_1007" transform="translate(131.722 289.464) scale(0.0166531) rotate(-166.447)"/>
<use xlink:href="#stroke0_403_1007" transform="translate(126.902 290.879) scale(0.0199222) rotate(-138.36)"/>
<use xlink:href="#stroke0_403_1007" transform="translate(118.333 280.589) scale(0.0285873) rotate(4.08499)"/>
<use xlink:href="#stroke0_403_1007" transform="translate(114.088 285.42) scale(0.0196603) rotate(-36.8027)"/>
<use xlink:href="#stroke0_403_1007" transform="translate(118.888 287.738) scale(0.0150705) rotate(160.925)"/>
<use xlink:href="#stroke0_403_1007" transform="translate(115.27 282.326) scale(0.0197161) rotate(76.0699)"/>
<use xlink:href="#stroke0_403_1007" transform="translate(113.785 288.915) scale(0.0232382) rotate(167.986)"/>
<use xlink:href="#stroke0_403_1007" transform="translate(108.207 291.089) scale(0.0258842) rotate(-165.789)"/>
<use xlink:href="#stroke0_403_1007" transform="translate(98.831 281.831) scale(0.0207952) rotate(13.9442)"/>
<use xlink:href="#stroke0_403_1007" transform="translate(92.8004 290.598) scale(0.0281777) rotate(-93.7104)"/>
<use xlink:href="#stroke0_403_1007" transform="translate(88.4096 287.597) scale(0.0209907) rotate(-62.231)"/>
<use xlink:href="#stroke0_403_1007" transform="translate(90.3953 291.635) scale(0.0254897) rotate(-146.842)"/>
<use xlink:href="#stroke0_403_1007" transform="translate(84.339 287.876) scale(0.0112761) rotate(-91.3197)"/>
<use xlink:href="#stroke0_403_1007" transform="translate(86.0595 289.102) scale(0.015658) rotate(-171.07)"/>
<use xlink:href="#stroke0_403_1007" transform="translate(85.6209 286.249) scale(0.0198647) rotate(137.457)"/>
<use xlink:href="#stroke0_403_1007" transform="translate(80.8449 285.157) scale(0.0109525) rotate(115.739)"/>
<use xlink:href="#stroke0_403_1007" transform="translate(76.8239 282.245) scale(0.0171046) rotate(54.9954)"/>
<use xlink:href="#stroke0_403_1007" transform="translate(75.4297 287.738) scale(0.010889) rotate(-177)"/>
<use xlink:href="#stroke0_403_1007" transform="translate(66.323 284.544) scale(0.0213232) rotate(-27.755)"/>
<use xlink:href="#stroke0_403_1007" transform="translate(71.5355 281.645) scale(0.0246537) rotate(92.508)"/>
<use xlink:href="#stroke0_403_1007" transform="translate(65.0842 280.673) scale(0.012099) rotate(48.6503)"/>
<use xlink:href="#stroke0_403_1007" transform="translate(69.4096 281.52) scale(0.028054) rotate(139.346)"/>
<use xlink:href="#stroke0_403_1007" transform="translate(64.1416 278.692) scale(0.0120399) rotate(148.234)"/>
<use xlink:href="#stroke0_403_1007" transform="translate(63.629 271.793) scale(0.0184885) rotate(75.7813)"/>
<use xlink:href="#stroke0_403_1007" transform="translate(58.3424 266.588) scale(0.0254071) rotate(16.2438)"/>
<use xlink:href="#stroke0_403_1007" transform="translate(59.13 272.724) scale(0.0224237) rotate(-114.167)"/>
<use xlink:href="#stroke0_403_1007" transform="translate(63.7337 263.787) scale(0.0150379) rotate(118.182)"/>
<use xlink:href="#stroke0_403_1007" transform="translate(58.5524 256.501) scale(0.0228262) rotate(27.8805)"/>
<use xlink:href="#stroke0_403_1007" transform="translate(60.6755 255.935) scale(0.0118765) rotate(48.571)"/>
<use xlink:href="#stroke0_403_1007" transform="translate(55.5255 255.991) scale(0.020292) rotate(-45.2078)"/>
<use xlink:href="#stroke0_403_1007" transform="translate(60.8898 247.155) scale(0.0232277) rotate(57.6671)"/>
<use xlink:href="#stroke0_403_1007" transform="translate(57.4257 251.473) scale(0.0132025) rotate(-87.9999)"/>
<use xlink:href="#stroke0_403_1007" transform="translate(56.3474 246.994) scale(0.0136723) rotate(-42.6543)"/>
<use xlink:href="#stroke0_403_1007" transform="translate(56.2 245.103) scale(0.0131817) rotate(-48.7501)"/>
<use xlink:href="#stroke0_403_1007" transform="translate(57.3237 238.358) scale(0.0185255) rotate(19.9303)"/>
<use xlink:href="#stroke0_403_1007" transform="translate(60.6075 237.815) scale(0.0111892) rotate(83.7219)"/>
<use xlink:href="#stroke0_403_1007" transform="translate(59.1355 241.145) scale(0.0150743) rotate(-132.747)"/>
<use xlink:href="#stroke0_403_1007" transform="translate(64.4282 235.989) scale(0.0263224) rotate(151.03)"/>
<use xlink:href="#stroke0_403_1007" transform="translate(59.08 233.879) scale(0.0125244) rotate(-138.435)"/>
<use xlink:href="#stroke0_403_1007" transform="translate(61.3206 229.81) scale(0.0137165) rotate(152.602)"/>
<use xlink:href="#stroke0_403_1007" transform="translate(62.1967 230.501) scale(0.0264523) rotate(-170.664)"/>
<use xlink:href="#stroke0_403_1007" transform="translate(55.1857 218.177) scale(0.0198894) rotate(1.37668)"/>
<use xlink:href="#stroke0_403_1007" transform="translate(60.5019 218.49) scale(0.011012) rotate(122.26)"/>
<use xlink:href="#stroke0_403_1007" transform="translate(56.5319 220.786) scale(0.0191027) rotate(-118.402)"/>
<use xlink:href="#stroke0_403_1007" transform="translate(53.8211 211.006) scale(0.0184659) rotate(-11.8141)"/>
<use xlink:href="#stroke0_403_1007" transform="translate(58.8192 213.463) scale(0.01334) rotate(-166.055)"/>
<use xlink:href="#stroke0_403_1007" transform="translate(58.1463 211.767) scale(0.0148821) rotate(-151.576)"/>
<use xlink:href="#stroke0_403_1007" transform="translate(59.6848 201.897) scale(0.0189932) rotate(77.9635)"/>
<use xlink:href="#stroke0_403_1007" transform="translate(56.9216 200.533) scale(0.0110211) rotate(36.6644)"/>
<use xlink:href="#stroke0_403_1007" transform="translate(61.7463 199.884) scale(0.0222925) rotate(129.167)"/>
<use xlink:href="#stroke0_403_1007" transform="translate(58.1489 201.361) scale(0.0202165) rotate(-149.971)"/>
<use xlink:href="#stroke0_403_1007" transform="translate(54.4261 187.162) scale(0.0259383) rotate(27.7727)"/>
<use xlink:href="#stroke0_403_1007" transform="translate(60.1228 184.597) scale(0.0249256) rotate(88.9459)"/>
<use xlink:href="#stroke0_403_1007" transform="translate(55.4862 189.814) scale(0.0210283) rotate(-130.658)"/>
<use xlink:href="#stroke0_403_1007" transform="translate(51.1305 182.38) scale(0.0200811) rotate(-56.5554)"/>
<use xlink:href="#stroke0_403_1007" transform="translate(57.6839 177.043) scale(0.0109567) rotate(87.8641)"/>
<use xlink:href="#stroke0_403_1007" transform="translate(49.4731 176.971) scale(0.0264037) rotate(-56.6013)"/>
<use xlink:href="#stroke0_403_1007" transform="translate(52.2994 172.784) scale(0.0118132) rotate(-48.6149)"/>
<use xlink:href="#stroke0_403_1007" transform="translate(51.6777 165.298) scale(0.0236411) rotate(6.85854)"/>
<use xlink:href="#stroke0_403_1007" transform="translate(57.5145 169.109) scale(0.014951) rotate(-176.422)"/>
<use xlink:href="#stroke0_403_1007" transform="translate(58.857 161.701) scale(0.0194971) rotate(109.462)"/>
<use xlink:href="#stroke0_403_1007" transform="translate(54.1595 156.673) scale(0.0168383) rotate(39.9644)"/>
<use xlink:href="#stroke0_403_1007" transform="translate(51.8998 162.346) scale(0.0251535) rotate(-109)"/>
<use xlink:href="#stroke0_403_1007" transform="translate(50.3606 157.493) scale(0.0246179) rotate(-97.4034)"/>
<use xlink:href="#stroke0_403_1007" transform="translate(49.6193 149.744) scale(0.0188261) rotate(-50.8734)"/>
<use xlink:href="#stroke0_403_1007" transform="translate(57.7162 139.856) scale(0.0289657) rotate(79.7146)"/>
<use xlink:href="#stroke0_403_1007" transform="translate(50.9105 137.106) scale(0.0206119) rotate(13.9194)"/>
<use xlink:href="#stroke0_403_1007" transform="translate(55.0668 143.431) scale(0.0276503) rotate(-152.75)"/>
<use xlink:href="#stroke0_403_1007" transform="translate(52.7305 131.244) scale(0.0118697) rotate(30.7476)"/>
<use xlink:href="#stroke0_403_1007" transform="translate(52.5882 127.3) scale(0.0180095) rotate(35.0961)"/>
<use xlink:href="#stroke0_403_1007" transform="translate(55.3101 126.837) scale(0.0129277) rotate(91.6032)"/>
<use xlink:href="#stroke0_403_1007" transform="translate(46.2274 126.863) scale(0.0286704) rotate(-58.0181)"/>
<use xlink:href="#stroke0_403_1007" transform="translate(58.1812 119.5) scale(0.0253519) rotate(120.146)"/>
<use xlink:href="#stroke0_403_1007" transform="translate(47.3663 113.462) scale(0.0257254) rotate(-13.2824)"/>
<use xlink:href="#stroke0_403_1007" transform="translate(49.9686 109.325) scale(0.0180763) rotate(16.4746)"/>
<use xlink:href="#stroke0_403_1007" transform="matrix(0.0106 -0.0123033 0.0123033 0.0106 47.7685 110.457)"/>
<use xlink:href="#stroke0_403_1007" transform="translate(44.8282 107.075) scale(0.0277889) rotate(-50.2112)"/>
<use xlink:href="#stroke0_403_1007" transform="translate(50.3863 105.579) scale(0.0111423) rotate(-106.779)"/>
<use xlink:href="#stroke0_403_1007" transform="translate(53.3578 103.014) scale(0.0110801) rotate(170.953)"/>
<use xlink:href="#stroke0_403_1007" transform="translate(53.718 99.271) scale(0.0111839) rotate(126.656)"/>
<use xlink:href="#stroke0_403_1007" transform="translate(48.9129 94.9329) scale(0.0140841) rotate(6.07999)"/>
<use xlink:href="#stroke0_403_1007" transform="translate(50.7199 99.9422) scale(0.0239007) rotate(-133.944)"/>
<use xlink:href="#stroke0_403_1007" transform="translate(49.8016 87.64) scale(0.0152817) rotate(29.7704)"/>
<use xlink:href="#stroke0_403_1007" transform="translate(50.5212 86.2644) scale(0.0113128) rotate(48.5621)"/>
<use xlink:href="#stroke0_403_1007" transform="translate(53.0514 80.9579) scale(0.0246507) rotate(74.9709)"/>
<use xlink:href="#stroke0_403_1007" transform="translate(48.2926 80.1602) scale(0.0139656) rotate(4.78047)"/>
<use xlink:href="#stroke0_403_1007" transform="translate(50.4985 78.0534) scale(0.010885) rotate(43.6691)"/>
<use xlink:href="#stroke0_403_1007" transform="translate(56.5568 77.9872) scale(0.0272807) rotate(139.263)"/>
<use xlink:href="#stroke0_403_1007" transform="translate(43.7983 74.2703) scale(0.02511) rotate(-57.2029)"/>
<use xlink:href="#stroke0_403_1007" transform="translate(51.152 72.6177) scale(0.014069) rotate(-168.204)"/>
<use xlink:href="#stroke0_403_1007" transform="translate(51.4823 69.3393) scale(0.0110121) rotate(172.486)"/>
<use xlink:href="#stroke0_403_1007" transform="translate(51.5502 60.7616) scale(0.0207922) rotate(71.1147)"/>
<use xlink:href="#stroke0_403_1007" transform="translate(52.1274 62.5467) scale(0.0123986) rotate(138.397)"/>
<use xlink:href="#stroke0_403_1007" transform="translate(52.5613 54.838) scale(0.0239248) rotate(81.1915)"/>
<use xlink:href="#stroke0_403_1007" transform="translate(46.3249 55.2382) scale(0.0112766) rotate(-19.4638)"/>
<use xlink:href="#stroke0_403_1007" transform="translate(47.5094 49.9961) scale(0.0175775) rotate(32.2691)"/>
<use xlink:href="#stroke0_403_1007" transform="translate(43.8254 54.8101) scale(0.0265846) rotate(-91.6238)"/>
<use xlink:href="#stroke0_403_1007" transform="translate(46.4373 42.9577) scale(0.0177316) rotate(16.8719)"/>
<use xlink:href="#stroke0_403_1007" transform="translate(46.0619 47.1359) scale(0.0174948) rotate(-102.749)"/>
<use xlink:href="#stroke0_403_1007" transform="translate(43.3569 40.5257) scale(0.0193661) rotate(-44.1134)"/>
<use xlink:href="#stroke0_403_1007" transform="translate(52.4497 35.6008) scale(0.0203764) rotate(112.997)"/>
<use xlink:href="#stroke0_403_1007" transform="translate(49.5389 36.6131) scale(0.01124) rotate(-179.314)"/>
<use xlink:href="#stroke0_403_1007" transform="translate(45.1209 31.7153) scale(0.0109741) rotate(-18.8481)"/>
<use xlink:href="#stroke0_403_1007" transform="translate(43.1647 29.5802) scale(0.0192624) rotate(-35.9726)"/>
<use xlink:href="#stroke0_403_1007" transform="translate(48.235 31.7441) scale(0.0210659) rotate(-152.27)"/>
<use xlink:href="#stroke0_403_1007" transform="translate(49.1514 26.2781) scale(0.012447) rotate(179.43)"/>
<use xlink:href="#stroke0_403_1007" transform="translate(51.0372 24.6836) scale(0.019517) rotate(175.773)"/>
<use xlink:href="#stroke0_403_1007" transform="translate(47.9874 16.2438) scale(0.0123041) rotate(39.2061)"/>
<use xlink:href="#stroke0_403_1007" transform="translate(46.2695 17.3018) scale(0.0147632) rotate(-43.6985)"/>
<use xlink:href="#stroke0_403_1007" transform="translate(47.9934 10.1143) scale(0.0274385) rotate(3.0075)"/>
<use xlink:href="#stroke0_403_1007" transform="translate(57.6921 15.5698) scale(0.0123294) rotate(172.274)"/>
<use xlink:href="#stroke0_403_1007" transform="translate(64.1672 18.146) scale(0.028476) rotate(171.458)"/>
<use xlink:href="#stroke0_403_1007" transform="translate(59.5009 13.7549) scale(0.0116593) rotate(-38.1437)"/>
<use xlink:href="#stroke0_403_1007" transform="translate(61.3408 15.7666) scale(0.0156448) rotate(-76.7024)"/>
<use xlink:href="#stroke0_403_1007" transform="translate(64.439 16.3633) scale(0.0143432) rotate(-86.617)"/>
<use xlink:href="#stroke0_403_1007" transform="translate(64.7661 15.8732) scale(0.0243309) rotate(-63.1427)"/>
<use xlink:href="#stroke0_403_1007" transform="translate(75.379 12.3927) scale(0.0110849) rotate(103.885)"/>
<use xlink:href="#stroke0_403_1007" transform="translate(73.7626 16.6902) scale(0.0140891) rotate(-109.08)"/>
<use xlink:href="#stroke0_403_1007" transform="translate(74.9432 16.3325) scale(0.0143496) rotate(-83.1492)"/>
<use xlink:href="#stroke0_403_1007" transform="translate(77.1021 10.0103) scale(0.0241742) rotate(3.22197)"/>
<use xlink:href="#stroke0_403_1007" transform="translate(83.6018 17.8596) scale(0.0155137) rotate(-127.501)"/>
<use xlink:href="#stroke0_403_1007" transform="translate(84.3336 17.2709) scale(0.0170165) rotate(-96.8786)"/>
<use xlink:href="#stroke0_403_1007" transform="translate(88.7406 18.2112) scale(0.0178665) rotate(-121.966)"/>
<use xlink:href="#stroke0_403_1007" transform="translate(93.7994 19.4767) scale(0.0242404) rotate(-141.383)"/>
<use xlink:href="#stroke0_403_1007" transform="translate(99.9498 15.942) scale(0.016919) rotate(168.207)"/>
<use xlink:href="#stroke0_403_1007" transform="translate(100.642 20.2414) scale(0.0273448) rotate(-138.306)"/>
<use xlink:href="#stroke0_403_1007" transform="translate(110.107 12.3753) scale(0.0246637) rotate(114.41)"/>
<use xlink:href="#stroke0_403_1007" transform="translate(114.673 13.5768) scale(0.025045) rotate(131.656)"/>
<use xlink:href="#stroke0_403_1007" transform="translate(117.735 10.939) scale(0.0246642) rotate(100.141)"/>
<use xlink:href="#stroke0_403_1007" transform="translate(118.182 16.652) scale(0.0142487) rotate(-172.182)"/>
<use xlink:href="#stroke0_403_1007" transform="translate(125.63 13.4292) scale(0.0260501) rotate(129.813)"/>
<use xlink:href="#stroke0_403_1007" transform="translate(123.067 10.1675) scale(0.0164318) rotate(43.8667)"/>
<use xlink:href="#stroke0_403_1007" transform="translate(120.741 13.8664) scale(0.024724) rotate(-46.5489)"/>
<use xlink:href="#stroke0_403_1007" transform="translate(135.319 13.5341) scale(0.0212557) rotate(133.059)"/>
<use xlink:href="#stroke0_403_1007" transform="translate(138.507 8.39194) scale(0.0291213) rotate(79.8677)"/>
<use xlink:href="#stroke0_403_1007" transform="translate(132.893 15.6325) scale(0.0282007) rotate(-58.7282)"/>
<use xlink:href="#stroke0_403_1007" transform="translate(140.067 15.8641) scale(0.0145841) rotate(-80.1196)"/>
<use xlink:href="#stroke0_403_1007" transform="translate(146.488 11.0527) scale(0.0129794) rotate(69.9056)"/>
<use xlink:href="#stroke0_403_1007" transform="translate(147.965 17.8721) scale(0.0163832) rotate(-140.861)"/>
<use xlink:href="#stroke0_403_1007" transform="translate(154.783 18.5596) scale(0.0253043) rotate(-179.951)"/>
<use xlink:href="#stroke0_403_1007" transform="translate(131.092 176.681) scale(0.0157197) rotate(49.7509)"/>
<use xlink:href="#stroke0_403_1007" transform="translate(126.487 181.628) scale(0.0153002) rotate(-97.9237)"/>
<use xlink:href="#stroke0_403_1007" transform="translate(126.437 174.222) scale(0.0135904) rotate(37.7854)"/>
<use xlink:href="#stroke0_403_1007" transform="translate(128.447 178.007) scale(0.0192254) rotate(163)"/>
<use xlink:href="#stroke0_403_1007" transform="translate(124.041 171.178) scale(0.0213099) rotate(79.5846)"/>
<use xlink:href="#stroke0_403_1007" transform="translate(117.665 178.478) scale(0.0129012) rotate(-122.769)"/>
<use xlink:href="#stroke0_403_1007" transform="translate(108.873 173.142) scale(0.0282873) rotate(-22.1891)"/>
<use xlink:href="#stroke0_403_1007" transform="translate(112.649 172.641) scale(0.0213055) rotate(62.4965)"/>
<use xlink:href="#stroke0_403_1007" transform="translate(101.784 178.231) scale(0.0278964) rotate(-28.7766)"/>
<use xlink:href="#stroke0_403_1007" transform="translate(106.775 184.833) scale(0.0119012) rotate(-161.87)"/>
<use xlink:href="#stroke0_403_1007" transform="translate(100.907 185.068) scale(0.0141605) rotate(-67.4319)"/>
<use xlink:href="#stroke0_403_1007" transform="translate(101.15 187.402) scale(0.0113193) rotate(-113.979)"/>
<use xlink:href="#stroke0_403_1007" transform="translate(101.253 190.358) scale(0.0151246) rotate(-142.061)"/>
<use xlink:href="#stroke0_403_1007" transform="translate(99.331 192.925) scale(0.0183935) rotate(-143.523)"/>
<use xlink:href="#stroke0_403_1007" transform="translate(97.8725 196.988) scale(0.0274649) rotate(-155.696)"/>
<use xlink:href="#stroke0_403_1007" transform="translate(94.9531 195.266) scale(0.012962) rotate(-176.507)"/>
<use xlink:href="#stroke0_403_1007" transform="translate(93.9225 193.142) scale(0.0114126) rotate(102.393)"/>
<use xlink:href="#stroke0_403_1007" transform="translate(88.2778 199.038) scale(0.015035) rotate(-107.297)"/>
<use xlink:href="#stroke0_403_1007" transform="translate(88.6715 193.698) scale(0.0183635) rotate(52.9598)"/>
<use xlink:href="#stroke0_403_1007" transform="translate(83.7286 196.112) scale(0.0207719) rotate(16.3051)"/>
<use xlink:href="#stroke0_403_1007" transform="translate(88.3721 204.988) scale(0.0195217) rotate(157.577)"/>
<use xlink:href="#stroke0_403_1007" transform="translate(78.7873 204.882) scale(0.0207304) rotate(-27.1028)"/>
<use xlink:href="#stroke0_403_1007" transform="translate(85.6151 209.155) scale(0.0115959) rotate(134.943)"/>
<use xlink:href="#stroke0_403_1007" transform="translate(79.3002 213.446) scale(0.0195539) rotate(-68.3272)"/>
<use xlink:href="#stroke0_403_1007" transform="translate(79.723 211.247) scale(0.0280006) rotate(-5.35922)"/>
<use xlink:href="#stroke0_403_1007" transform="translate(83.9617 219.277) scale(0.0112332) rotate(-66.5839)"/>
<use xlink:href="#stroke0_403_1007" transform="translate(91.4518 216.261) scale(0.0194812) rotate(82.7517)"/>
<use xlink:href="#stroke0_403_1007" transform="translate(91.5477 218.69) scale(0.015126) rotate(62.3475)"/>
<use xlink:href="#stroke0_403_1007" transform="translate(88.0531 226.356) scale(0.0196449) rotate(-71.3092)"/>
<use xlink:href="#stroke0_403_1007" transform="translate(96.6637 225.689) scale(0.013228) rotate(115.889)"/>
<use xlink:href="#stroke0_403_1007" transform="translate(95.0152 223.603) scale(0.0219448) rotate(34.3335)"/>
<use xlink:href="#stroke0_403_1007" transform="translate(100.942 232.109) scale(0.0140396) rotate(155.907)"/>
<use xlink:href="#stroke0_403_1007" transform="translate(104.609 234.327) scale(0.0207295) rotate(151.033)"/>
<use xlink:href="#stroke0_403_1007" transform="translate(104.545 237.403) scale(0.0149985) rotate(169.396)"/>
<use xlink:href="#stroke0_403_1007" transform="translate(99.5158 235.884) scale(0.0185313) rotate(-24.5082)"/>
<use xlink:href="#stroke0_403_1007" transform="translate(109.338 234.838) scale(0.0268694) rotate(74.9599)"/>
<use xlink:href="#stroke0_403_1007" transform="translate(105.602 237.2) scale(0.0287153) rotate(-2.23848)"/>
<use xlink:href="#stroke0_403_1007" transform="translate(110.61 242.079) scale(0.0148353) rotate(-26.8813)"/>
<use xlink:href="#stroke0_403_1007" transform="translate(120.185 239.528) scale(0.0196452) rotate(92.4316)"/>
<use xlink:href="#stroke0_403_1007" transform="translate(120.724 245.846) scale(0.0173) rotate(-150.05)"/>
<use xlink:href="#stroke0_403_1007" transform="translate(116.787 239.237) scale(0.0263656) rotate(-36.298)"/>
<use xlink:href="#stroke0_403_1007" transform="translate(124.205 241.5) scale(0.014245) rotate(-106.263)"/>
<use xlink:href="#stroke0_403_1007" transform="translate(125.269 235.754) scale(0.0109423) rotate(-11.7421)"/>
<use xlink:href="#stroke0_403_1007" transform="translate(129.383 239.004) scale(0.0146872) rotate(-144.607)"/>
<use xlink:href="#stroke0_403_1007" transform="translate(128.816 231.091) scale(0.0151822) rotate(10.5815)"/>
<use xlink:href="#stroke0_403_1007" transform="translate(137.272 227.028) scale(0.0262703) rotate(83.1427)"/>
<use xlink:href="#stroke0_403_1007" transform="translate(142.078 228.129) scale(0.0238758) rotate(124.463)"/>
<use xlink:href="#stroke0_403_1007" transform="translate(138.835 232.14) scale(0.0256523) rotate(-129.15)"/>
<use xlink:href="#stroke0_403_1007" transform="translate(137.583 225.657) scale(0.0235398) rotate(-68.0502)"/>
<use xlink:href="#stroke0_403_1007" transform="translate(143.051 217.395) scale(0.0193979) rotate(12.8932)"/>
<use xlink:href="#stroke0_403_1007" transform="translate(149.855 220.922) scale(0.0119932) rotate(163.218)"/>
<use xlink:href="#stroke0_403_1007" transform="translate(155.264 218.959) scale(0.0259321) rotate(151.81)"/>
<use xlink:href="#stroke0_403_1007" transform="translate(152.673 211.62) scale(0.0133374) rotate(83.2073)"/>
<use xlink:href="#stroke0_403_1007" transform="translate(147.166 212.6) scale(0.0169468) rotate(-61.6406)"/>
<use xlink:href="#stroke0_403_1007" transform="translate(148.779 209.7) scale(0.0112322) rotate(-57.2002)"/>
<use xlink:href="#stroke0_403_1007" transform="translate(148.57 208.216) scale(0.0109124) rotate(-65.4938)"/>
<use xlink:href="#stroke0_403_1007" transform="translate(149.792 210.894) scale(0.028851) rotate(-132.602)"/>
<use xlink:href="#stroke0_403_1007" transform="translate(146.633 198.454) scale(0.0136864) rotate(13.2988)"/>
<use xlink:href="#stroke0_403_1007" transform="translate(149.678 199.164) scale(0.0118624) rotate(125.376)"/>
<use xlink:href="#stroke0_403_1007" transform="translate(145.51 193.939) scale(0.0159152) rotate(42.2814)"/>
<use xlink:href="#stroke0_403_1007" transform="translate(145.03 198.636) scale(0.0133717) rotate(-149.31)"/>
<use xlink:href="#stroke0_403_1007" transform="translate(146.326 189.768) scale(0.0230022) rotate(92.8847)"/>
<use xlink:href="#stroke0_403_1007" transform="translate(136.892 188.023) scale(0.0177931) rotate(-1.44754)"/>
<use xlink:href="#stroke0_403_1007" transform="translate(131.613 191.188) scale(0.0290338) rotate(-75.4821)"/>
<use xlink:href="#stroke0_403_1007" transform="translate(136.33 182.86) scale(0.0131066) rotate(74.1808)"/>
<use xlink:href="#stroke0_403_1007" transform="translate(133.046 187.68) scale(0.0177411) rotate(-134.017)"/>
<use xlink:href="#stroke0_403_1007" transform="translate(134.291 180.388) scale(0.0112533) rotate(110.428)"/>
<use xlink:href="#stroke0_403_1007" transform="translate(134.873 182.645) scale(0.0203476) rotate(162.567)"/>
<use xlink:href="#stroke0_403_1007" transform="translate(202.038 120.965) scale(0.0197428) rotate(-7.56818)"/>
<use xlink:href="#stroke0_403_1007" transform="translate(204.067 125.1) scale(0.0124713) rotate(-146.934)"/>
<use xlink:href="#stroke0_403_1007" transform="translate(203.294 118.535) scale(0.0119411) rotate(74.7521)"/>
<use xlink:href="#stroke0_403_1007" transform="translate(201.18 124.039) scale(0.0175466) rotate(-160.531)"/>
<use xlink:href="#stroke0_403_1007" transform="translate(193.954 118.629) scale(0.0137228) rotate(-21.8959)"/>
<use xlink:href="#stroke0_403_1007" transform="translate(197.605 118.877) scale(0.0121922) rotate(122.969)"/>
<use xlink:href="#stroke0_403_1007" transform="translate(197.656 117.647) scale(0.0272607) rotate(117.221)"/>
<use xlink:href="#stroke0_403_1007" transform="translate(187.63 125.703) scale(0.0253286) rotate(-140.046)"/>
<use xlink:href="#stroke0_403_1007" transform="translate(179.001 119.749) scale(0.0216519) rotate(-24.0293)"/>
<use xlink:href="#stroke0_403_1007" transform="translate(182.434 117.691) scale(0.0283906) rotate(62.5297)"/>
<use xlink:href="#stroke0_403_1007" transform="translate(180.648 125.378) scale(0.0119881) rotate(114.691)"/>
<use xlink:href="#stroke0_403_1007" transform="translate(173.349 126.285) scale(0.0142685) rotate(-19.3458)"/>
<use xlink:href="#stroke0_403_1007" transform="translate(175.823 125.421) scale(0.0211573) rotate(57.4338)"/>
<use xlink:href="#stroke0_403_1007" transform="translate(174.489 129.906) scale(0.0125155) rotate(85.3135)"/>
<use xlink:href="#stroke0_403_1007" transform="translate(169.632 140.969) scale(0.0273875) rotate(-129.104)"/>
<use xlink:href="#stroke0_403_1007" transform="translate(162.522 136.706) scale(0.0236583) rotate(-31.4591)"/>
<use xlink:href="#stroke0_403_1007" transform="translate(168.111 137.287) scale(0.0180405) rotate(83.9102)"/>
<use xlink:href="#stroke0_403_1007" transform="translate(166.78 147.227) scale(0.0227859) rotate(-176.509)"/>
<use xlink:href="#stroke0_403_1007" transform="translate(161.279 142.742) scale(0.0129094) rotate(36.24)"/>
<use xlink:href="#stroke0_403_1007" transform="translate(156.488 144.089) scale(0.0203048) rotate(2.43565)"/>
<use xlink:href="#stroke0_403_1007" transform="translate(152.519 145.571) scale(0.028618) rotate(3.40851)"/>
<use xlink:href="#stroke0_403_1007" transform="translate(158.639 154.357) scale(0.0147221) rotate(142.326)"/>
<use xlink:href="#stroke0_403_1007" transform="translate(153.363 150.107) scale(0.028933) rotate(46.5181)"/>
<use xlink:href="#stroke0_403_1007" transform="translate(152.682 157.126) scale(0.0141542) rotate(48.1634)"/>
<use xlink:href="#stroke0_403_1007" transform="translate(151.249 157.702) scale(0.0257412) rotate(39.6846)"/>
<use xlink:href="#stroke0_403_1007" transform="translate(148.089 163.808) scale(0.0255772) rotate(-1.91639)"/>
<use xlink:href="#stroke0_403_1007" transform="translate(158.697 173.753) scale(0.0242153) rotate(152.148)"/>
<use xlink:href="#stroke0_403_1007" transform="translate(152.382 177.305) scale(0.0148974) rotate(-89.5629)"/>
<use xlink:href="#stroke0_403_1007" transform="translate(159.084 176.202) scale(0.0125565) rotate(122.857)"/>
<use xlink:href="#stroke0_403_1007" transform="translate(155.406 176.534) scale(0.0120227) rotate(-5.76759)"/>
<use xlink:href="#stroke0_403_1007" transform="translate(161.701 182.332) scale(0.0149465) rotate(179.856)"/>
<use xlink:href="#stroke0_403_1007" transform="translate(163.041 175.615) scale(0.0265817) rotate(52.5457)"/>
<use xlink:href="#stroke0_403_1007" transform="translate(162.466 179.845) scale(0.0239436) rotate(16.0478)"/>
<use xlink:href="#stroke0_403_1007" transform="translate(166.954 183.214) scale(0.0157048) rotate(32.1861)"/>
<use xlink:href="#stroke0_403_1007" transform="translate(166.574 192.177) scale(0.0199087) rotate(-90.8647)"/>
<use xlink:href="#stroke0_403_1007" transform="translate(172.844 193.539) scale(0.0135391) rotate(-147.894)"/>
<use xlink:href="#stroke0_403_1007" transform="translate(176.86 199.104) scale(0.0289556) rotate(-151.766)"/>
<use xlink:href="#stroke0_403_1007" transform="translate(176.305 197.809) scale(0.0141629) rotate(-109.082)"/>
<use xlink:href="#stroke0_403_1007" transform="translate(177.464 193.161) scale(0.0170369) rotate(3.69007)"/>
<use xlink:href="#stroke0_403_1007" transform="translate(179.444 198.469) scale(0.0160652) rotate(-72.737)"/>
<use xlink:href="#stroke0_403_1007" transform="translate(187.043 200.005) scale(0.0138643) rotate(-169.784)"/>
<use xlink:href="#stroke0_403_1007" transform="translate(190.911 198.367) scale(0.0144637) rotate(145.074)"/>
<use xlink:href="#stroke0_403_1007" transform="translate(190.318 194.846) scale(0.0112405) rotate(56.9388)"/>
<use xlink:href="#stroke0_403_1007" transform="translate(186.859 198.331) scale(0.0263735) rotate(-57.9795)"/>
<use xlink:href="#stroke0_403_1007" transform="translate(198.078 197.689) scale(0.0124804) rotate(175.968)"/>
<use xlink:href="#stroke0_403_1007" transform="translate(199.085 188.273) scale(0.0249058) rotate(49.8312)"/>
<use xlink:href="#stroke0_403_1007" transform="translate(207.861 193.323) scale(0.0258126) rotate(149.815)"/>
<use xlink:href="#stroke0_403_1007" transform="translate(206.256 182.631) scale(0.0256193) rotate(57.6894)"/>
<use xlink:href="#stroke0_403_1007" transform="translate(213.347 181.368) scale(0.0285554) rotate(101.717)"/>
<use xlink:href="#stroke0_403_1007" transform="translate(215.677 178.996) scale(0.0244963) rotate(107.404)"/>
<use xlink:href="#stroke0_403_1007" transform="translate(209.772 180.428) scale(0.012601) rotate(-72.7306)"/>
<use xlink:href="#stroke0_403_1007" transform="translate(217.393 182.344) scale(0.0294327) rotate(-161.884)"/>
<use xlink:href="#stroke0_403_1007" transform="translate(223.365 171.004) scale(0.0255922) rotate(114.694)"/>
<use xlink:href="#stroke0_403_1007" transform="translate(223.125 170.756) scale(0.0137714) rotate(137.719)"/>
<use xlink:href="#stroke0_403_1007" transform="translate(225.04 162.448) scale(0.026508) rotate(78.1371)"/>
<use xlink:href="#stroke0_403_1007" transform="translate(221.167 166.136) scale(0.0109989) rotate(-67.918)"/>
<use xlink:href="#stroke0_403_1007" transform="translate(226.013 166.742) scale(0.012207) rotate(-152.085)"/>
<use xlink:href="#stroke0_403_1007" transform="translate(222.929 163.431) scale(0.0143769) rotate(-74.4849)"/>
<use xlink:href="#stroke0_403_1007" transform="translate(230.557 159.422) scale(0.0140344) rotate(126.133)"/>
<use xlink:href="#stroke0_403_1007" transform="translate(231.553 160.176) scale(0.0183844) rotate(175.442)"/>
<use xlink:href="#stroke0_403_1007" transform="translate(233.637 155.066) scale(0.0210532) rotate(146.115)"/>
<use xlink:href="#stroke0_403_1007" transform="translate(229.525 156.457) scale(0.0281943) rotate(-141.617)"/>
<use xlink:href="#stroke0_403_1007" transform="translate(227.814 149.501) scale(0.0118528) rotate(-139.597)"/>
<use xlink:href="#stroke0_403_1007" transform="translate(231.822 145.555) scale(0.0227384) rotate(151.057)"/>
<use xlink:href="#stroke0_403_1007" transform="translate(223.911 146.535) scale(0.0266086) rotate(-127.255)"/>
<use xlink:href="#stroke0_403_1007" transform="translate(222.411 133.93) scale(0.0171026) rotate(48.1272)"/>
<use xlink:href="#stroke0_403_1007" transform="translate(219.91 132.761) scale(0.0138668) rotate(34.9081)"/>
<use xlink:href="#stroke0_403_1007" transform="translate(215.269 134.138) scale(0.0136401) rotate(-32.694)"/>
<use xlink:href="#stroke0_403_1007" transform="translate(215.935 135.739) scale(0.0112924) rotate(-112.758)"/>
<use xlink:href="#stroke0_403_1007" transform="translate(220.301 129.132) scale(0.0247473) rotate(114.055)"/>
<use xlink:href="#stroke0_403_1007" transform="translate(210.741 126.469) scale(0.0136783) rotate(16.4147)"/>
<use xlink:href="#stroke0_403_1007" transform="translate(209.862 125.652) scale(0.0111186) rotate(30.4881)"/>
<use xlink:href="#stroke0_403_1007" transform="translate(211.55 124.018) scale(0.0159015) rotate(90.3915)"/>
<use xlink:href="#stroke0_403_1007" transform="translate(204.54 123.551) scale(0.0124835) rotate(-9.62257)"/>
<use xlink:href="#stroke0_403_1007" transform="translate(203.131 123.278) scale(0.0116882) rotate(-38.8236)"/>
<use xlink:href="#stroke0_403_1007" transform="translate(106.226 114.012) scale(0.0148103) rotate(-93.9656)"/>
<use xlink:href="#stroke0_403_1007" transform="translate(105.142 108.745) scale(0.0110065) rotate(13.9484)"/>
<use xlink:href="#stroke0_403_1007" transform="translate(103.619 107.509) scale(0.0149891) rotate(33.1216)"/>
<use xlink:href="#stroke0_403_1007" transform="translate(96.6205 115.554) scale(0.0249889) rotate(-84.4464)"/>
<use xlink:href="#stroke0_403_1007" transform="translate(97.7533 119.208) scale(0.0233075) rotate(-137.44)"/>
<use xlink:href="#stroke0_403_1007" transform="matrix(0.0206 0.0104122 -0.0104122 0.0206 94.48 112.201)"/>
<use xlink:href="#stroke0_403_1007" transform="translate(94.4875 126.392) scale(0.0234661) rotate(-135.014)"/>
<use xlink:href="#stroke0_403_1007" transform="translate(93.8492 129.569) scale(0.0225092) rotate(-145.788)"/>
<use xlink:href="#stroke0_403_1007" transform="translate(89.8312 124.569) scale(0.0163115) rotate(5.95285)"/>
<use xlink:href="#stroke0_403_1007" transform="translate(89.6796 133.619) scale(0.0164064) rotate(-112.256)"/>
<use xlink:href="#stroke0_403_1007" transform="translate(85.3539 138.202) scale(0.0278729) rotate(-91.1661)"/>
<use xlink:href="#stroke0_403_1007" transform="translate(90.6353 133.19) scale(0.0195052) rotate(71.3035)"/>
<use xlink:href="#stroke0_403_1007" transform="translate(86.093 142.227) scale(0.0135844) rotate(-90.8791)"/>
<use xlink:href="#stroke0_403_1007" transform="translate(86.3046 138.543) scale(0.0211806) rotate(13.1827)"/>
<use xlink:href="#stroke0_403_1007" transform="translate(91.3106 148.613) scale(0.0142644) rotate(-161.262)"/>
<use xlink:href="#stroke0_403_1007" transform="translate(89.4861 149.09) scale(0.0127663) rotate(-88.8802)"/>
<use xlink:href="#stroke0_403_1007" transform="translate(93.1559 151.061) scale(0.0130535) rotate(-128.499)"/>
<use xlink:href="#stroke0_403_1007" transform="translate(100.87 148.603) scale(0.0210336) rotate(125.427)"/>
<use xlink:href="#stroke0_403_1007" transform="translate(104.293 149.106) scale(0.021991) rotate(117.418)"/>
<use xlink:href="#stroke0_403_1007" transform="translate(97.7875 150.325) scale(0.0228325) rotate(-31.1357)"/>
<use xlink:href="#stroke0_403_1007" transform="translate(100.322 153.313) scale(0.0274372) rotate(-43.8539)"/>
<use xlink:href="#stroke0_403_1007" transform="translate(113.459 152.114) scale(0.0166171) rotate(98.2099)"/>
<use xlink:href="#stroke0_403_1007" transform="translate(110.456 152.854) scale(0.014744) rotate(3.43696)"/>
<use xlink:href="#stroke0_403_1007" transform="translate(112.509 161.259) scale(0.0246868) rotate(-100.754)"/>
<use xlink:href="#stroke0_403_1007" transform="translate(121.224 158.569) scale(0.0117533) rotate(151.158)"/>
<use xlink:href="#stroke0_403_1007" transform="translate(117.956 156.752) scale(0.0134965) rotate(-10.8301)"/>
<use xlink:href="#stroke0_403_1007" transform="translate(118.031 157.709) scale(0.0248067) rotate(-33.7931)"/>
<use xlink:href="#stroke0_403_1007" transform="translate(128.562 163.767) scale(0.0204963) rotate(-148.473)"/>
<use xlink:href="#stroke0_403_1007" transform="translate(133.503 155.355) scale(0.0167427) rotate(99.5216)"/>
<use xlink:href="#stroke0_403_1007" transform="translate(129.358 155.595) scale(0.0115875) rotate(-37.6755)"/>
<use xlink:href="#stroke0_403_1007" transform="translate(130.427 153.545) scale(0.0121408) rotate(-29.6334)"/>
<use xlink:href="#stroke0_403_1007" transform="translate(138.191 156.013) scale(0.0243729) rotate(-175.245)"/>
<use xlink:href="#stroke0_403_1007" transform="translate(138.935 142.357) scale(0.026204) rotate(76.6521)"/>
<use xlink:href="#stroke0_403_1007" transform="translate(138.283 147.693) scale(0.0158709) rotate(-157.762)"/>
<use xlink:href="#stroke0_403_1007" transform="translate(141.588 137.393) scale(0.0221109) rotate(83.2027)"/>
<use xlink:href="#stroke0_403_1007" transform="translate(134.554 137.492) scale(0.0197965) rotate(-39.424)"/>
<use xlink:href="#stroke0_403_1007" transform="translate(142.154 137.389) scale(0.0113503) rotate(176.296)"/>
<use xlink:href="#stroke0_403_1007" transform="translate(143.46 130.895) scale(0.015403) rotate(87.0025)"/>
<use xlink:href="#stroke0_403_1007" transform="translate(145.05 128.698) scale(0.017955) rotate(104.509)"/>
<use xlink:href="#stroke0_403_1007" transform="translate(146.176 124.532) scale(0.0246283) rotate(106.351)"/>
<use xlink:href="#stroke0_403_1007" transform="translate(141.411 119.891) scale(0.0198194) rotate(72.3237)"/>
<use xlink:href="#stroke0_403_1007" transform="translate(134.17 121.104) scale(0.0132939) rotate(-22.9889)"/>
<use xlink:href="#stroke0_403_1007" transform="translate(139.76 123.119) scale(0.0258166) rotate(155.459)"/>
<use xlink:href="#stroke0_403_1007" transform="translate(128.618 121.227) scale(0.0127095) rotate(-76.6216)"/>
<use xlink:href="#stroke0_403_1007" transform="translate(127.626 122.391) scale(0.0162574) rotate(-115.773)"/>
<use xlink:href="#stroke0_403_1007" transform="translate(129.382 122.777) scale(0.0268356) rotate(-174.629)"/>
<use xlink:href="#stroke0_403_1007" transform="translate(120.493 114.082) scale(0.0128662) rotate(2.66774)"/>
<use xlink:href="#stroke0_403_1007" transform="translate(122.502 113.409) scale(0.0122) rotate(86.917)"/>
<use xlink:href="#stroke0_403_1007" transform="translate(118.067 118.192) scale(0.0138237) rotate(-128.84)"/>
<use xlink:href="#stroke0_403_1007" transform="translate(115.669 119.114) scale(0.0233821) rotate(-135.976)"/>
<use xlink:href="#stroke0_403_1007" transform="translate(116.148 116.981) scale(0.0267211) rotate(176.455)"/>
<use xlink:href="#stroke0_403_1007" transform="translate(110.121 117.467) scale(0.0264191) rotate(-150.877)"/>
<defs>
<g id="stroke0_403_1007" data-figma-scatter-ref="stroke0_403_1007_ref" data-figma-scatter="f0.51_w0.06_aj180_sj0.65_r0_s12563639237098934128_sw6">
<path d="M215.823 333.963C215.823 333.23 216.123 332.93 216.49 333.296C216.856 333.663 216.856 334.263 216.49 334.63C216.123 334.996 215.823 334.696 215.823 333.963ZM143.424 3.97701C148.056 3.32404 151.523 8.80284 148.726 12.3588C146.775 14.8388 146.175 17.9633 147.648 17.9633C148.553 17.9667 158.823 30.3033 158.823 31.3862C158.823 32.4623 154.479 36.4974 152.507 37.2544C150.609 37.9824 151.073 39.9631 153.14 39.9633C153.801 39.9633 154.92 40.8881 155.626 42.02C156.91 44.0739 156.912 44.0744 158.617 42.0766C159.555 40.9766 161.223 39.938 162.323 39.77C163.423 39.601 164.653 39.0132 165.057 38.4633C165.472 37.8983 165.798 38.2253 165.807 39.2133C165.825 41.3531 166.254 41.3818 169.215 39.4419C170.838 38.3789 171.405 37.2303 171.099 35.6313C170.05 30.1434 175.963 30.1199 185.501 35.5737C190.79 38.5976 191.028 38.5792 193.164 34.9633C196.187 29.8454 203.13 33.2701 201.316 38.9838C200.801 40.6068 201.133 41.2309 202.733 41.6499C203.883 41.9499 204.823 42.5946 204.823 43.0805C204.824 43.5654 205.723 43.9633 206.823 43.9633C209.228 43.9633 209.333 43.3299 207.269 41.2661C205.332 39.3301 205.758 35.0191 208.025 33.5991C210.469 32.0694 211.11 33.2632 210.001 37.2797C209.157 40.3355 209.276 40.8478 210.928 41.2797C211.97 41.5527 212.823 42.4936 212.823 43.3696C212.824 45.4861 216.745 45.4516 218.302 43.3227C219.936 41.0879 223.264 42.9574 223.298 46.1294C223.32 48.1552 223.883 48.504 227.573 48.77C231.476 49.053 231.823 48.8831 231.823 46.6811C231.823 45.0832 232.672 43.8975 234.37 43.1245C240.164 40.4845 243.457 43.0685 242.282 49.3315C241.655 52.6722 241.655 52.6725 249.407 53.3745C262.73 54.5825 271.108 62.5852 260.323 63.8012C258.673 63.9882 256.79 64.5797 256.14 65.1167C255.368 65.7556 253.636 65.7276 251.14 65.0346C246.476 63.7398 245.823 63.7172 245.823 64.8549C245.823 65.7449 249.37 66.9616 253.515 67.4936C257.329 67.9826 258.042 68.9656 257.379 72.8286C255.795 82.0527 255.841 81.9633 252.685 81.9633C250.953 81.9633 249.964 81.5443 250.323 80.9633C250.663 80.4133 250.517 79.9633 249.999 79.9633C249.48 79.9633 248.821 79.0632 248.533 77.9633C248.217 76.7553 247.169 75.9633 245.885 75.9633C244.716 75.9632 243.46 75.1762 243.092 74.2133C242.404 72.4103 242.246 72.1833 238.753 67.9633C236.684 65.4633 236.684 65.4633 237.262 68.1733C237.705 70.252 237.359 71.1408 235.772 71.9897C232.719 73.6237 233.414 78.5898 236.633 78.1401C237.903 77.9621 239.585 78.3504 240.37 79.0024C241.211 79.7003 242.9 79.9101 244.485 79.5122C246.95 78.8932 247.055 78.9823 245.748 80.5922C244.844 81.7052 244.78 82.0721 245.573 81.5962C246.78 80.8713 247.26 82.2792 247.055 85.9321C247.01 86.7401 248.281 89.181 249.881 91.3569C252.292 94.6349 252.689 95.9524 252.194 99.0434C251.695 102.167 251.943 102.958 253.722 103.911C255.46 104.841 255.656 105.407 254.789 107.026C254.207 108.114 254.046 109.515 254.431 110.14C255.79 112.339 247.804 110.139 243.089 107.016C234.391 101.254 232.358 104.203 234.165 119.963C234.386 121.888 234.142 123.998 233.622 124.653C231.331 127.54 233.14 131.457 236.823 131.585C238.748 131.652 240.773 131.816 241.323 131.95C241.873 132.084 243.093 132.116 244.034 132.022C246.328 131.792 249.862 133.758 249.563 135.098C249.134 137.018 257.14 136.437 263.279 134.102C266.554 132.856 270.042 132.048 271.029 132.307C272.126 132.594 272.823 132.23 272.823 131.37C272.823 130.597 271.923 129.963 270.823 129.963C268.355 129.963 268.291 128.842 270.596 125.996C272.37 123.806 272.37 123.805 274.251 125.884C277.35 129.307 282.41 126.734 280.041 122.94C279.048 121.351 279.46 120.899 283.362 119.295C285.811 118.288 287.817 117.126 287.819 116.713C287.821 116.301 288.262 115.963 288.798 115.963C290.086 115.963 288.981 121.818 287.134 124.78C286.042 126.531 285.967 127.431 286.825 128.466C288.108 130.011 286.599 133.834 284.133 135.288C283.329 135.762 282.984 136.896 283.321 137.957C283.727 139.236 283.296 139.996 281.916 140.434C280.723 140.812 280.144 141.636 280.471 142.488C281.07 144.051 279.303 146.204 276.573 147.238C275.611 147.602 274.823 148.857 274.823 150.027C274.823 152.253 271.493 157.622 268.86 159.642C267.494 160.689 267.518 160.896 269.075 161.499C270.259 161.958 271.465 161.413 272.792 159.821C274.896 157.295 275.458 157.908 273.83 160.952C272.986 162.526 273.289 162.906 275.83 163.464C279.699 164.314 279.894 168.296 276.323 173.558C272.999 178.456 273.141 179.594 277.811 185.463C279.999 188.213 283.258 192.592 285.055 195.195C287.985 199.439 291.823 201.575 291.823 198.963C291.823 198.413 292.858 197.963 294.123 197.963C295.388 197.963 296.869 197.517 297.413 196.973C298.033 196.353 299.563 196.316 301.501 196.872C303.893 197.558 304.97 197.388 306.229 196.128C311.032 191.326 313.154 199.168 308.775 205.533C305.051 210.945 307.295 210.388 312.57 204.592C314.356 202.629 316.421 201.256 317.16 201.54C317.898 201.822 319.08 201.359 319.785 200.509C321.719 198.179 324.72 198.643 326.009 201.472C327.592 204.947 325.832 207.908 318.196 214.612C312.035 220.021 312.035 220.021 314.929 222.915C319.416 227.402 318.437 230.291 311.993 231.58C309.623 232.053 308.701 231.81 308.231 230.585C307.343 228.271 305.535 228.576 302.783 231.505C300.746 233.674 300.577 234.339 301.632 236.028C303.496 239.014 301.66 241.738 298.126 241.228C293.529 240.565 288.418 246.501 289.907 250.775C290.518 252.528 291.537 253.977 292.171 253.994C292.805 254.011 292.532 254.484 291.565 255.048C290.598 255.611 289.399 255.819 288.9 255.511C288.402 255.203 287.764 255.415 287.483 255.982C287.203 256.549 287.108 256.439 287.273 255.738C287.438 255.037 288.155 254.601 288.867 254.769C289.918 255.018 289.921 254.787 288.886 253.54C288.066 252.551 286.49 252.15 284.467 252.416C282.738 252.642 279.973 252.894 278.323 252.974C276.673 253.055 275.886 253.348 276.573 253.625C277.261 253.904 277.823 254.712 277.823 255.424C277.823 256.136 278.498 257.278 279.323 257.963C284.43 262.201 279.156 267.527 267.467 269.94C261.662 271.138 261.616 271.176 262.217 274.181C262.55 275.849 262.823 278.291 262.823 279.609C262.823 281.174 263.663 282.389 265.244 283.109C266.671 283.759 267.448 284.778 267.136 285.59C265.821 289.017 267.765 292.135 270.801 291.468C274.766 290.597 278.421 292.537 276.707 294.602C276.023 295.427 274.625 295.883 273.602 295.615C272.138 295.233 271.87 295.538 272.348 297.046C272.893 298.763 272.429 298.963 267.889 298.963C262.743 298.963 261.095 297.073 265.249 295.935C268.036 295.172 268.4 292.927 265.844 292.258C264.392 291.879 264.055 291.437 264.845 290.949C266.469 289.946 265.098 283.964 263.244 283.963C262.462 283.963 261.823 283.571 261.823 283.091C261.823 282.611 259.972 281.923 257.709 281.561C255.433 281.197 252.864 280.005 251.959 278.892C250.396 276.971 250.314 277.128 250.111 282.423C249.912 287.635 250.039 287.963 252.254 287.963C257.861 287.963 255.961 295.527 250.118 296.465C248.031 296.8 244.838 297.728 243.022 298.527C240.536 299.621 239.219 299.71 237.687 298.89C235.32 297.624 234.327 298.227 235.168 300.42C235.494 301.269 236.844 301.963 238.169 301.963C242.073 301.963 243.244 304.249 241.284 308.04C239.619 311.258 239.618 311.258 228.221 310.647C216.823 310.036 216.823 310.036 216.823 313.065C216.823 321.686 206.244 322.014 203.987 313.463C202.962 309.577 196.547 308.889 196.016 312.607C195.599 315.535 190.787 316.541 190.083 313.848C189.539 311.771 188.717 311.487 187.273 312.878C186.751 313.382 185.198 313.944 183.823 314.128C182.113 314.357 181.221 315.181 181 316.737C180.739 318.581 180.17 318.937 178 318.615C176.528 318.397 175.418 317.764 175.533 317.21C175.649 316.655 174.861 315.403 173.783 314.427C171.902 312.724 171.821 312.729 171.781 314.558C171.757 315.606 170.365 317.588 168.686 318.963C167.007 320.338 164.438 322.475 162.978 323.712C158.062 327.876 154.556 326.427 153.301 319.713C152.916 317.652 152.42 315.964 152.199 315.963C151.978 315.963 148.55 316.863 144.58 317.963C130.056 321.988 115.58 315.43 128.81 310.818C130.467 310.24 131.823 309.373 131.823 308.89C131.823 308.407 130.668 308.452 129.257 308.988C127.134 309.795 126.098 309.512 123.257 307.345C120.118 304.951 118.274 301.888 120.978 303.558C121.694 304.001 121.861 303.833 121.417 303.115C120.368 301.418 116.504 303.691 117.229 305.579C118.04 307.692 114.948 308.516 113.522 306.566C111.691 304.062 106.546 306.574 107.286 309.61C108.627 315.112 101.84 317.769 99.8455 312.524C98.8953 310.026 94.4089 310.708 90.3231 313.97C88.4581 315.459 83.5201 315.529 83.0311 314.074C82.7723 313.306 83.018 312.966 83.5799 313.313C84.1398 313.659 84.5764 313.384 84.5526 312.703C84.3916 308.249 84.9971 307.097 88.0731 306.006C91.7409 304.706 90.1749 302.466 84.8231 301.359C83.4482 301.075 81.5171 300.405 80.5321 299.87C79.5471 299.334 78.3755 299.121 77.9295 299.397C77.4824 299.673 76.2634 299.261 75.2196 298.481C73.4269 297.14 73.453 297.096 75.7069 297.665C77.4798 298.113 77.9663 297.907 77.6033 296.865C77.3352 296.094 76.3745 295.595 75.4686 295.757C74.5637 295.918 73.8231 295.644 73.8231 295.147C73.8225 293.779 67.1263 286.964 65.7821 286.963C64.5191 286.963 65.3358 292.016 66.7508 292.954C68.0246 293.798 67.6327 300.104 66.3377 299.607C65.6809 299.355 65.2149 300.076 65.2537 301.283C65.3377 303.874 62.3307 304.729 61.4256 302.372C61.0686 301.443 61.4731 299.62 62.3231 298.322C63.7468 296.15 63.7284 295.96 62.0955 295.928C61.1204 295.908 59.1988 295.27 57.826 294.51C56.13 293.571 54.9418 293.449 54.1238 294.128C52.5208 295.458 48.5416 294.139 49.1746 292.487C49.7193 291.067 47.2348 286.963 45.8309 286.963C44.5728 286.963 35.8231 278.847 35.8231 277.681C35.8231 277.1 37.4871 276.973 39.9481 277.367C43.78 277.98 44.0342 277.878 43.5272 275.938C43.0782 274.221 43.2342 274.059 44.4022 275.028C46.6741 276.914 46.0406 274.471 43.7127 272.369C42.5527 271.321 40.7375 268.625 39.6795 266.377C37.9885 262.785 29.7573 256.441 24.5213 254.696C21.1893 253.585 27.5839 242.826 31.0379 243.73C32.8048 244.192 33.0357 243.965 32.4178 242.374C31.1828 239.197 31.2554 238.448 32.7684 238.778C35.0593 239.276 38.8227 236.801 38.8231 234.794C38.8231 233.715 39.5439 232.963 40.5779 232.963C43.0149 232.963 45.0996 226.438 43.1737 224.839C42.4307 224.223 41.8231 222.9 41.8231 221.9C41.823 220.899 41.3729 219.803 40.8231 219.463C40.2731 219.123 39.8231 217.945 39.8231 216.845C39.8231 215.745 39.4205 215.093 38.9295 215.397C38.4384 215.7 37.0855 214.04 35.9237 211.706C34.7617 209.372 33.2645 206.563 32.5965 205.463C31.9285 204.363 30.3573 201.785 29.1033 199.734C26.2513 195.07 26.2154 191.993 28.9774 189.028C30.8989 186.965 30.957 186.618 29.5194 185.813C28.6324 185.316 28.1605 184.245 28.4735 183.431C28.8615 182.419 27.9015 181.476 25.4315 180.444C23.4467 179.615 21.786 178.38 21.741 177.7C21.499 174.063 20.5431 170.143 19.2762 167.585C18.4912 166.003 18.1172 163.64 18.4442 162.335C18.8492 160.724 18.6035 159.943 17.6805 159.9C16.9341 159.865 17.347 159.425 18.5975 158.923C21.2044 157.876 20.8038 153.423 17.911 151.294C13.1591 147.798 12.87 147.403 13.4549 145.213C13.7859 143.975 14.834 142.963 15.785 142.963C16.735 142.963 18.3281 142.063 19.3231 140.963C20.3181 139.863 21.5542 138.963 22.0682 138.963C22.5823 138.963 23.847 137.951 24.8787 136.713C26.4927 134.779 26.7609 134.71 26.7899 136.223C26.8079 137.191 25.9229 138.753 24.8231 139.695C22.2852 141.868 22.305 142.594 24.9237 143.279C26.0795 143.582 26.7278 144.308 26.3651 144.896C26.0023 145.483 25.92 145.963 26.1815 145.963C26.4445 145.963 27.4328 146.261 28.3778 146.623C29.5896 147.087 29.9501 146.866 29.6024 145.873C29.0314 144.244 32.5938 138.703 33.7518 139.419C34.1787 139.683 35.3646 139.287 36.3875 138.54C38.4045 137.065 37.003 133.964 34.3192 133.963C32.9872 133.963 30.2179 125.51 30.7147 122.963C30.8767 122.138 30.9536 119.741 30.8856 117.637C30.7766 114.238 31.1058 113.683 33.8338 112.653C35.9678 111.847 36.8578 110.879 36.7528 109.478C36.4928 106.022 36.7888 104.824 37.7537 105.42C38.2657 105.737 38.9407 105.581 39.2547 105.073C39.5679 104.566 40.6568 104.368 41.6746 104.635C44.2356 105.304 47.2646 102.201 45.7879 100.421C44.9809 99.4493 44.9929 98.5137 45.8309 96.9487C46.4608 95.7707 46.7305 94.1671 46.4305 93.3852C46.0505 92.3923 46.6314 91.9633 48.3543 91.9633C49.712 91.9632 50.8228 91.5132 50.8231 90.9633C50.8231 90.4135 50.3871 89.9636 49.8543 89.9633C49.3224 89.9633 49.1449 89.2882 49.4608 88.4633C49.7917 87.6015 49.481 86.9636 48.7303 86.9633C47.7133 86.9633 47.6899 86.6961 48.6229 85.7631C49.2829 85.1031 49.8231 83.8148 49.8231 82.9008C49.8233 81.6241 51.1422 81.0827 55.5067 80.5698C58.6325 80.2028 61.7825 79.411 62.5067 78.81C64.2735 77.3441 64.1799 74.9637 62.3543 74.9633C61.4603 74.9633 61.1108 75.5493 61.4608 76.4633C61.8237 77.4082 61.4499 77.9633 60.45 77.9633C58.464 77.9633 58.8759 72.1768 60.9559 70.8598C64.4336 68.656 58.1944 70.1802 53.6815 72.6362C50.1078 74.581 48.4698 75.0103 47.6688 74.2094C46.9258 73.4665 45.7561 73.4182 44.0643 74.061C39.8403 75.667 37.8231 74.3507 37.8231 69.9907C37.8233 65.514 41.1635 63.0775 53.0731 58.8667C60.4397 56.2628 60.5863 56.0654 58.1824 51.9956C56.1924 48.6276 56.994 44.361 59.7821 43.476C62.4579 42.6272 68.8174 43.9249 68.8377 45.3237C68.8797 48.4517 70.4558 49.1528 74.6307 47.9028C79.0287 46.5848 80.5395 44.5322 78.7215 42.3422C77.8406 41.2803 78.116 40.538 79.9549 39.018C81.9907 37.3362 82.4786 37.2654 83.4324 38.5122C85.3604 41.0312 100.442 37.019 99.3865 34.269C98.521 32.0121 103.808 29.185 104.979 31.2778C106.381 33.7828 109.101 33.326 112.231 30.059C115.014 27.1544 115.014 27.1541 112.856 24.9965C109.082 21.2226 112.1 14.3884 117.416 14.6713C123.005 14.9683 123.68 15.1663 123.238 16.3803C123.021 16.9763 123.233 18.0729 123.708 18.8178C124.754 20.4597 129.376 17.8723 130.306 15.1245C130.615 14.2105 133.671 11.332 137.096 8.72701C140.516 6.12608 143.361 3.99002 143.424 3.97701ZM208.763 322.963C209.345 322.963 209.823 323.413 209.823 323.963C209.823 324.513 209.625 324.963 209.382 324.963C209.139 324.963 208.663 324.513 208.323 323.963C207.983 323.413 208.182 322.964 208.763 322.963ZM116.823 315.345C116.823 314.52 117.273 314.123 117.823 314.463C118.373 314.803 118.823 315.757 118.823 316.582C118.823 317.406 118.373 317.803 117.823 317.463C117.273 317.123 116.823 316.17 116.823 315.345ZM202.323 313.963C202.598 313.963 202.823 314.188 202.823 314.463C202.823 314.738 202.598 314.963 202.323 314.963C202.048 314.963 201.823 314.738 201.823 314.463C201.823 314.188 202.048 313.963 202.323 313.963ZM74.7635 305.963C75.3455 305.963 75.8231 306.413 75.8231 306.963C75.823 307.513 75.6246 307.963 75.3817 307.963C75.1386 307.963 74.6629 307.513 74.3231 306.963C73.9831 306.413 74.1818 305.964 74.7635 305.963ZM71.8231 304.963C72.373 304.963 72.8231 305.413 72.8231 305.963C72.823 306.513 72.3729 306.963 71.8231 306.963C71.2731 306.963 70.8232 306.513 70.8231 305.963C70.8231 305.413 71.2731 304.963 71.8231 304.963ZM131.823 306.07C131.823 304.426 129.038 304.086 127.17 305.5C125.465 306.792 125.573 306.902 128.573 306.931C130.36 306.949 131.823 306.561 131.823 306.07ZM86.8231 303.963C87.5559 303.963 87.856 304.263 87.4901 304.63C87.1231 304.996 86.5231 304.996 86.1561 304.63C85.7901 304.263 86.0901 303.963 86.8231 303.963ZM77.2401 304.042C78.294 303.999 78.8836 304.235 78.5516 304.567C78.2196 304.899 77.3566 304.935 76.6356 304.646C75.838 304.327 76.0752 304.09 77.2401 304.042ZM78.8231 300.963C79.373 300.963 79.8231 301.413 79.8231 301.963C79.823 302.513 79.3729 302.963 78.8231 302.963C78.2731 302.963 77.8232 302.513 77.8231 301.963C77.8231 301.413 78.2731 300.963 78.8231 300.963ZM70.3231 299.963C71.148 299.963 71.8231 300.624 71.8231 301.432C71.8231 302.326 71.2371 302.675 70.3231 302.325C69.4981 302.008 68.8231 301.347 68.8231 300.856C68.8233 300.365 69.4982 299.963 70.3231 299.963ZM69.8231 291.963C70.3727 291.963 70.8226 292.161 70.8231 292.404C70.8231 292.647 70.3731 293.123 69.8231 293.463C69.2731 293.803 68.8231 293.604 68.8231 293.022C68.8232 292.44 69.2731 291.963 69.8231 291.963ZM270.323 285.963C271.148 285.963 271.823 286.133 271.823 286.341C271.823 286.548 271.148 287.279 270.323 287.963C269.094 288.983 268.823 288.914 268.823 287.585C268.823 286.693 269.498 285.963 270.323 285.963ZM275.323 284.963C275.598 284.963 275.823 285.188 275.823 285.463C275.823 285.738 275.598 285.963 275.323 285.963C275.048 285.963 274.823 285.738 274.823 285.463C274.823 285.188 275.048 284.963 275.323 284.963ZM273.515 281.322C274.055 279.913 274.222 279.924 275.064 281.429C276.122 283.319 275.489 284.493 273.932 283.531C273.371 283.182 273.183 282.189 273.515 281.322ZM269.981 280.963C269.981 279.588 270.208 279.026 270.485 279.713C270.763 280.401 270.763 281.526 270.485 282.213C270.208 282.901 269.981 282.338 269.981 280.963ZM272.323 279.963C272.598 279.963 272.823 280.188 272.823 280.463C272.823 280.738 272.598 280.963 272.323 280.963C272.048 280.963 271.823 280.738 271.823 280.463C271.823 280.188 272.048 279.963 272.323 279.963ZM266.479 278.508C266.109 277.545 266.407 277.251 267.374 277.622C269.054 278.267 269.168 278.632 267.928 279.398C267.435 279.703 266.783 279.302 266.479 278.508ZM273.323 277.963C273.598 277.963 273.823 278.188 273.823 278.463C273.823 278.738 273.598 278.963 273.323 278.963C273.048 278.963 272.823 278.738 272.823 278.463C272.823 278.188 273.048 277.963 273.323 277.963ZM312.823 274.963C312.823 274.23 313.123 273.93 313.49 274.296C313.856 274.663 313.856 275.263 313.49 275.63C313.123 275.996 312.823 275.696 312.823 274.963ZM306.823 264.522C306.823 262.765 307.423 262.507 308.28 263.894C308.597 264.406 308.398 265.108 307.839 265.454C307.28 265.798 306.823 265.379 306.823 264.522ZM39.241 257.57C36.868 256.659 36.5506 256.812 37.2156 258.545C37.5496 259.415 37.8231 260.315 37.8231 260.545C37.8235 260.775 38.4984 260.963 39.3231 260.963C41.3139 260.963 41.251 258.341 39.241 257.57ZM294.721 251.963C296.379 251.963 302.87 258.076 302.261 259.064C300.769 261.477 295.519 258.26 294.343 254.213C293.964 252.911 294.123 251.964 294.721 251.963ZM274.323 255.963C274.048 255.963 273.823 256.188 273.823 256.463C273.823 256.738 274.048 256.963 274.323 256.963C274.598 256.963 274.823 256.738 274.823 256.463C274.823 256.188 274.598 255.963 274.323 255.963ZM268.323 252.963C268.048 252.963 267.823 253.188 267.823 253.463C267.823 253.738 268.048 253.963 268.323 253.963C268.598 253.963 268.823 253.738 268.823 253.463C268.823 253.188 268.598 252.963 268.323 252.963ZM266.646 249.296C266.257 247.287 264.26 246.448 263.356 247.911C262.476 249.334 263.598 250.963 265.455 250.963C266.331 250.963 266.833 250.26 266.646 249.296ZM269.323 249.963C269.048 249.963 268.823 250.188 268.823 250.463C268.823 250.738 269.048 250.963 269.323 250.963C269.598 250.963 269.823 250.738 269.823 250.463C269.823 250.188 269.598 249.963 269.323 249.963ZM24.3231 232.963C24.598 232.963 24.8231 233.188 24.8231 233.463C24.823 233.738 24.5979 233.963 24.3231 233.963C24.0481 233.963 23.8232 233.738 23.8231 233.463C23.8231 233.188 24.0481 232.963 24.3231 232.963ZM26.3231 232.963C26.598 232.963 26.8231 233.188 26.8231 233.463C26.823 233.738 26.5979 233.963 26.3231 233.963C26.0481 233.963 25.8232 233.738 25.8231 233.463C25.8231 233.188 26.0481 232.963 26.3231 232.963ZM30.3231 182.963C30.0481 182.963 29.8231 183.188 29.8231 183.463C29.8232 183.738 30.0481 183.963 30.3231 183.963C30.5979 183.963 30.823 183.738 30.8231 183.463C30.8231 183.188 30.598 182.963 30.3231 182.963ZM25.8231 182.963C26.5559 182.963 26.856 183.263 26.4901 183.63C26.1231 183.996 25.5231 183.996 25.1561 183.63C24.7901 183.263 25.0901 182.963 25.8231 182.963ZM24.5418 168.045C24.7068 165.852 23.3077 164.369 22.4237 165.799C22.1289 166.277 22.4496 167.439 23.1375 168.378C24.2905 169.956 24.3998 169.93 24.5418 168.045ZM26.3231 165.963C26.0481 165.963 25.8231 166.188 25.8231 166.463C25.8232 166.738 26.0481 166.963 26.3231 166.963C26.5979 166.963 26.823 166.738 26.8231 166.463C26.8231 166.188 26.598 165.963 26.3231 165.963ZM278.023 154.164C281.374 150.813 285.386 154.145 284.39 159.453C283.619 163.564 281.534 164.032 278.766 160.713C276.583 158.097 276.33 155.857 278.023 154.164ZM0.823065 156.963C1.55594 156.963 1.85603 157.263 1.49006 157.63C1.12312 157.996 0.523086 157.996 0.156073 157.63C-0.209927 157.263 0.0900652 156.963 0.823065 156.963ZM286.917 147.963C287.415 147.963 287.823 148.863 287.823 149.963C287.823 151.063 287.65 151.962 287.44 151.963C287.229 151.963 286.821 151.063 286.533 149.963C286.246 148.863 286.418 147.963 286.917 147.963ZM285.323 145.963C285.598 145.963 285.823 146.188 285.823 146.463C285.823 146.738 285.598 146.963 285.323 146.963C285.048 146.963 284.823 146.738 284.823 146.463C284.823 146.188 285.048 145.963 285.323 145.963ZM293.205 142.963C293.48 142.963 293.983 143.413 294.323 143.963C294.663 144.513 294.716 144.963 294.441 144.963C294.166 144.963 293.663 144.513 293.323 143.963C292.983 143.413 292.93 142.963 293.205 142.963ZM18.6795 133.08C18.8755 133.016 18.7986 133.583 18.5076 134.341C18.2168 135.099 18.5072 136.25 19.1512 136.898C20.0502 137.802 19.7528 137.866 17.8738 137.174C14.8158 136.047 14.1344 134.282 16.5184 133.664C17.5105 133.407 18.4825 133.144 18.6795 133.08ZM27.4901 131.63C28.6061 130.513 29.4901 130.881 29.4901 132.463C29.49 133.288 28.8899 133.963 28.1561 133.963C26.7371 133.963 26.3861 132.734 27.4901 131.63ZM293.763 131.963C294.345 131.963 294.823 132.413 294.823 132.963C294.823 133.513 294.625 133.963 294.382 133.963C294.139 133.963 293.663 133.513 293.323 132.963C292.983 132.413 293.182 131.964 293.763 131.963ZM296.323 132.963C296.598 132.963 296.823 133.188 296.823 133.463C296.823 133.738 296.598 133.963 296.323 133.963C296.048 133.963 295.823 133.738 295.823 133.463C295.823 133.188 296.048 132.963 296.323 132.963ZM20.8231 128.963C21.373 128.963 21.8231 129.638 21.8231 130.463C21.823 131.288 21.3729 131.963 20.8231 131.963C20.2731 131.963 19.8231 131.288 19.8231 130.463C19.8231 129.638 20.2731 128.963 20.8231 128.963ZM302.823 129.091C306.081 127.786 307.823 127.729 307.823 128.928C307.823 130.677 303.932 132.124 302.06 131.07C300.503 130.194 300.582 129.989 302.823 129.091ZM14.3885 125.861C17.5155 124.636 18.4666 124.918 16.4256 126.463C15.3817 127.253 14.062 127.611 13.492 127.258C12.8941 126.889 13.2737 126.298 14.3885 125.861ZM290.882 124.963C291.4 124.963 291.823 125.413 291.823 125.963C291.823 126.513 291.12 126.963 290.263 126.963C289.407 126.963 288.983 126.513 289.323 125.963C289.663 125.413 290.364 124.963 290.882 124.963ZM253.323 104.963C253.048 104.963 252.823 105.188 252.823 105.463C252.823 105.738 253.048 105.963 253.323 105.963C253.598 105.963 253.823 105.738 253.823 105.463C253.823 105.188 253.598 104.963 253.323 104.963ZM38.3231 101.963C38.598 101.963 38.8231 102.188 38.8231 102.463C38.823 102.738 38.5979 102.963 38.3231 102.963C38.0481 102.963 37.8232 102.738 37.8231 102.463C37.8231 102.188 38.0481 101.963 38.3231 101.963ZM43.3231 100.963C43.598 100.963 43.8231 101.188 43.8231 101.463C43.823 101.738 43.5979 101.963 43.3231 101.963C43.0481 101.963 42.8232 101.738 42.8231 101.463C42.8231 101.188 43.0481 100.963 43.3231 100.963ZM32.0731 95.9458C33.86 94.8529 35.9221 94.1854 36.6551 94.4614C37.3872 94.7374 38.7372 94.9995 39.6551 95.0424C40.6539 95.0895 40.8314 95.3207 40.0975 95.6176C39.4238 95.8904 38.6452 95.9673 38.367 95.7885C38.089 95.6095 37.152 96.4753 36.286 97.7133C35.258 99.1803 33.6844 99.9633 31.7654 99.9633C27.9139 99.9632 28.0332 98.4167 32.0731 95.9458ZM260.323 98.9633C260.598 98.9634 260.823 99.1884 260.823 99.4633C260.823 99.7382 260.598 99.9632 260.323 99.9633C260.048 99.9633 259.823 99.7383 259.823 99.4633C259.823 99.1883 260.048 98.9633 260.323 98.9633ZM42.3231 97.9633C42.598 97.9634 42.8231 98.1884 42.8231 98.4633C42.823 98.7382 42.5979 98.9632 42.3231 98.9633C42.0481 98.9633 41.8232 98.7383 41.8231 98.4633C41.8231 98.1883 42.0481 97.9633 42.3231 97.9633ZM54.6434 89.7915C54.2964 87.4396 52.372 86.2652 51.411 87.8198C50.504 89.2878 51.8519 91.9633 53.4998 91.9633C54.4317 91.9633 54.8462 91.1762 54.6434 89.7915ZM239.323 74.9633C239.598 74.9634 239.823 75.1884 239.823 75.4633C239.823 75.7382 239.598 75.9632 239.323 75.9633C239.048 75.9633 238.823 75.7383 238.823 75.4633C238.823 75.1883 239.048 74.9633 239.323 74.9633ZM273.823 72.9594C273.823 72.4464 274.498 72.2376 275.323 72.4946C276.148 72.7526 277.573 73.2036 278.49 73.4965C279.664 73.8715 279.843 74.3424 279.097 75.0883C277.917 76.2677 273.824 74.6152 273.823 72.9594ZM69.8074 71.2133C69.8294 69.4163 68.1488 69.6726 67.4178 71.5766C67.0247 72.6002 66.0719 73.0001 64.8113 72.6704C63.7187 72.3845 62.8236 72.5091 62.8231 72.9477C62.8231 73.3867 64.0183 74.0465 65.4783 74.4135C68.145 75.0822 69.7744 73.878 69.8074 71.2133ZM244.382 68.9633C244.139 68.9636 243.663 69.4135 243.323 69.9633C242.983 70.5132 243.182 70.9631 243.763 70.9633C244.345 70.9633 244.823 70.5133 244.823 69.9633C244.823 69.4133 244.625 68.9633 244.382 68.9633ZM241.323 67.9633C241.048 67.9633 240.823 68.1883 240.823 68.4633C240.823 68.7383 241.048 68.9633 241.323 68.9633C241.598 68.9632 241.823 68.7382 241.823 68.4633C241.823 68.1884 241.598 67.9634 241.323 67.9633ZM144.24 46.0424C143.075 46.0904 142.838 46.327 143.636 46.646C144.357 46.935 145.22 46.8988 145.552 46.5669C145.884 46.2349 145.294 45.9995 144.24 46.0424ZM181.823 43.9633C181.09 43.9633 180.79 44.2633 181.156 44.6303C181.523 44.9962 182.123 44.9963 182.49 44.6303C182.856 44.2634 182.556 43.9634 181.823 43.9633ZM147.345 34.3335C146.209 33.8976 145.532 34.3585 145.147 35.8335C144.84 37.0054 143.967 37.9633 143.206 37.9633C142.446 37.9633 141.823 38.4133 141.823 38.9633C141.823 40.4821 144.417 40.1582 145.823 38.4633C146.508 37.6384 148.111 36.9635 149.386 36.9633C150.661 36.9633 151.983 36.5133 152.323 35.9633C152.663 35.4133 152.051 34.9633 150.964 34.9633C149.876 34.9633 148.247 34.6804 147.345 34.3335ZM138.947 36.6958C137.959 35.7159 137.845 35.8314 138.387 37.2563C138.763 38.2423 139.322 38.7967 139.63 38.4887C139.938 38.1817 139.631 37.3747 138.947 36.6958ZM160.323 29.9633C160.598 29.9634 160.823 30.1884 160.823 30.4633C160.823 30.7382 160.598 30.9632 160.323 30.9633C160.048 30.9633 159.823 30.7382 159.823 30.4633C159.823 30.1883 160.048 29.9633 160.323 29.9633ZM205.823 28.9633C206.556 28.9634 206.856 29.2634 206.49 29.6303C206.123 29.9963 205.523 29.9961 205.156 29.6303C204.79 29.2633 205.09 28.9633 205.823 28.9633ZM210.823 24.9633C211.373 24.9634 211.823 25.161 211.823 25.4038C211.823 25.6468 211.373 26.1233 210.823 26.4633C210.273 26.8033 209.823 26.6039 209.823 26.0219C209.823 25.44 210.273 24.9633 210.823 24.9633ZM176.323 24.9633C176.598 24.9634 176.823 25.1884 176.823 25.4633C176.823 25.7382 176.598 25.9632 176.323 25.9633C176.048 25.9633 175.823 25.7382 175.823 25.4633C175.823 25.1883 176.048 24.9633 176.323 24.9633ZM172.823 18.9633C173.556 18.9634 173.856 19.2634 173.49 19.6303C173.123 19.9963 172.523 19.9961 172.156 19.6303C171.79 19.2633 172.09 18.9633 172.823 18.9633ZM173.823 15.9633C173.823 15.2303 174.123 14.9303 174.49 15.2963C174.856 15.6634 174.856 16.2634 174.49 16.6303C174.123 16.9963 173.823 16.6962 173.823 15.9633ZM208.823 13.9633C209.556 13.9634 209.856 14.2634 209.49 14.6303C209.123 14.9963 208.523 14.9962 208.156 14.6303C207.79 14.2633 208.09 13.9633 208.823 13.9633ZM177.323 12.9633C177.598 12.9634 177.823 13.1884 177.823 13.4633C177.823 13.7382 177.598 13.9632 177.323 13.9633C177.048 13.9633 176.823 13.7382 176.823 13.4633C176.823 13.1883 177.048 12.9633 177.323 12.9633ZM166.323 10.9633C166.598 10.9634 166.823 11.1884 166.823 11.4633C166.823 11.7382 166.598 11.9632 166.323 11.9633C166.048 11.9633 165.823 11.7382 165.823 11.4633C165.823 11.1883 166.048 10.9633 166.323 10.9633ZM175.823 10.9633C175.823 10.2303 176.123 9.93035 176.49 10.2963C176.856 10.6634 176.856 11.2634 176.49 11.6303C176.123 11.9963 175.823 11.6962 175.823 10.9633ZM171.323 9.96334C171.598 9.96343 171.823 10.1884 171.823 10.4633C171.823 10.7382 171.598 10.9632 171.323 10.9633C171.048 10.9633 170.823 10.7382 170.823 10.4633C170.823 10.1883 171.048 9.96334 171.323 9.96334ZM132.382 6.96334C132.625 6.96334 132.823 7.41334 132.823 7.96334C132.823 8.51325 132.345 8.96334 131.763 8.96334C131.182 8.96314 130.983 8.51318 131.323 7.96334C131.663 7.41353 132.139 6.96364 132.382 6.96334ZM122.823 7.96334C123.556 7.96339 123.856 8.26336 123.49 8.63033C123.123 8.99625 122.523 8.99614 122.156 8.63033C121.79 8.26333 122.09 7.96334 122.823 7.96334ZM167.204 2.311C170.133 -0.207938 172.823 -0.770742 172.823 1.13424C172.823 2.86018 169.742 5.96305 168.028 5.96334C167.212 5.96334 166.002 6.70389 165.34 7.60885C164.278 9.06077 164.156 8.98412 164.305 6.95846C164.398 5.69446 165.703 3.603 167.204 2.311Z" fill="black"/>
</g>
<path id="stroke0_403_1007_ref" d="M150.422 14.3203C151.584 14.1102 152.781 14 154.004 14H243.846C249.624 14.0001 254.2 18.884 253.824 24.6504L237.403 276.65C237.061 281.909 232.695 286 227.425 286H154.004C152.781 286 151.584 285.889 150.422 285.679V286H71.1709C65.8663 286 61.4844 281.858 61.1865 276.562L47.0156 24.5615C46.6932 18.8272 51.2566 14.0002 57 14H150.422V14.3203ZM130.742 180.34C125.319 174.077 115.847 173.396 109.584 178.818L88.3945 197.166C82.1319 202.589 81.4506 212.061 86.873 218.324L103.65 237.7C109.073 243.963 118.546 244.643 124.809 239.221L145.998 220.874C152.261 215.451 152.941 205.978 147.519 199.715L130.742 180.34ZM205.669 123.816C197.182 116.747 184.571 117.897 177.502 126.384L156.626 151.445C149.557 159.932 150.705 172.544 159.192 179.613L174.955 192.743C183.442 199.813 196.054 198.663 203.123 190.176L223.999 165.114C231.068 156.627 229.919 144.016 221.432 136.946L205.669 123.816ZM108.532 111.429C103.344 109.535 97.6027 112.206 95.709 117.394L88.8516 136.182C86.9581 141.37 89.6285 147.11 94.8164 149.004L121.119 158.604C126.307 160.498 132.048 157.828 133.941 152.64L140.8 133.853C142.693 128.664 140.022 122.923 134.834 121.029L108.532 111.429Z"/>
</defs>
</svg>
